<?xml version="1.0" encoding="UTF-8" standalone="no"?>
<svg
   xmlns:dc="http://purl.org/dc/elements/1.1/"
   xmlns:cc="http://creativecommons.org/ns#"
   xmlns:rdf="http://www.w3.org/1999/02/22-rdf-syntax-ns#"
   xmlns:svg="http://www.w3.org/2000/svg"
   xmlns="http://www.w3.org/2000/svg"
   xmlns:xlink="http://www.w3.org/1999/xlink"
   id="svg2"
   version="1.1"
   width="600"
   height="400"
   xml:space="preserve"><title
     id="title1866">Vintager Frame (re-remix)</title><metadata
     id="metadata8"><rdf:RDF><cc:Work
         rdf:about=""><dc:format>image/svg+xml</dc:format><dc:type
           rdf:resource="http://purl.org/dc/dcmitype/StillImage" /><dc:title>Vintager Frame (re-remix)</dc:title><cc:license
           rdf:resource="http://creativecommons.org/publicdomain/zero/1.0/" /><dc:contributor><cc:Agent><dc:title>leandrosciola  (https://openclipart.org/detail/304942/vintage-frame)</dc:title></cc:Agent></dc:contributor><dc:subject><rdf:Bag><rdf:li>border</rdf:li><rdf:li>embellishment</rdf:li><rdf:li>filigree</rdf:li><rdf:li>flourish</rdf:li><rdf:li>frame</rdf:li><rdf:li>gold</rdf:li></rdf:Bag></dc:subject><dc:description>Remix of leandrosciola's Vintage Frame to remove place holder text and a gold gradient</dc:description><dc:creator><cc:Agent><dc:title /></cc:Agent></dc:creator><dc:publisher><cc:Agent><dc:title>Openclipart.org</dc:title></cc:Agent></dc:publisher><dc:identifier>https://openclipart.org/</dc:identifier><dc:source /></cc:Work><cc:License
         rdf:about="http://creativecommons.org/publicdomain/zero/1.0/"><cc:permits
           rdf:resource="http://creativecommons.org/ns#Reproduction" /><cc:permits
           rdf:resource="http://creativecommons.org/ns#Distribution" /><cc:permits
           rdf:resource="http://creativecommons.org/ns#DerivativeWorks" /></cc:License></rdf:RDF></metadata><defs
     id="defs6"><linearGradient
       id="linearGradient3524"><stop
         stop-color="#eee2a8"
         offset="0"
         id="stop3494" /><stop
         stop-color="#f2dd8f"
         offset="0.071429"
         id="stop3496" /><stop
         stop-color="#fce58e"
         offset="0.142857"
         id="stop3498" /><stop
         stop-color="#fced92"
         offset="0.214286"
         id="stop3500" /><stop
         stop-color="#faef88"
         offset="0.285714"
         id="stop3502" /><stop
         stop-color="#f9e47d"
         offset="0.357143"
         id="stop3504" /><stop
         stop-color="#f4d161"
         offset="0.428571"
         id="stop3506" /><stop
         stop-color="#d1b343"
         offset="0.5"
         id="stop3508" /><stop
         stop-color="#af9743"
         offset="0.571429"
         id="stop3510" /><stop
         stop-color="#b39b3d"
         offset="0.642857"
         id="stop3512" /><stop
         stop-color="#c6b158"
         offset="0.714286"
         id="stop3514" /><stop
         stop-color="#dac170"
         offset="0.785714"
         id="stop3516" /><stop
         stop-color="#d7c276"
         offset="0.857143"
         id="stop3518" /><stop
         stop-color="#cdbb77"
         offset="0.928571"
         id="stop3520" /><stop
         stop-color="#ccbb77"
         offset="1"
         id="stop3522" /></linearGradient><linearGradient
       gradientUnits="userSpaceOnUse"
       y2="11.885562"
       x2="161.14285"
       y1="11.885562"
       x1="-161.14426"
       id="linearGradient3580"
       xlink:href="#linearGradient3524" /><linearGradient
       gradientUnits="userSpaceOnUse"
       y2="11.885566"
       x2="161.14285"
       y1="11.885566"
       x1="-161.14426"
       id="linearGradient3582"
       xlink:href="#linearGradient3524" /><linearGradient
       gradientUnits="userSpaceOnUse"
       y2="383.99997"
       x2="584"
       y1="15.999982"
       x1="15.999986"
       id="linearGradient3598"
       xlink:href="#linearGradient3524" /></defs><g
     id="g3715"><title
       id="title3717">Vintage Frame re-remix</title><rect
       y="-2.8027343e-006"
       x="1.7704772e-007"
       height="400"
       width="600"
       id="rect4482"
       style="fill:#24221c;fill-opacity:1;stroke:none;stroke-width:1.25" /><rect
       style="fill:none;stroke:url(#linearGradient3598);stroke-width:3.00094488;stroke-miterlimit:4;stroke-dasharray:none;stroke-opacity:1"
       id="rect4570"
       width="568"
       height="368"
       x="15.999986"
       y="15.999982" /><g
       id="g3641"><g
         style="fill:#918a6f;fill-opacity:1"
         transform="matrix(1.25,0,0,-1.25,274.39457,79.079482)"
         id="g4232" /><g
         style="fill:#918a6f;fill-opacity:1"
         transform="matrix(1.25,0,0,-1.25,199.88469,67.667732)"
         id="g4240" /><g
         style="fill:#918a6f;fill-opacity:1"
         transform="matrix(1.25,0,0,-1.25,98.57056,73.323857)"
         id="g4244" /><g
         style="fill:#918a6f;fill-opacity:1"
         transform="matrix(1.25,0,0,-1.25,325.60432,79.079482)"
         id="g4248" /><g
         style="fill:#918a6f;fill-opacity:1"
         transform="matrix(1.25,0,0,-1.25,206.07369,67.803233)"
         id="g4236" /><g
         style="fill:#918a6f;fill-opacity:1"
         transform="matrix(1.25,0,0,-1.25,393.92457,67.803233)"
         id="g4252" /><g
         style="fill:#918a6f;fill-opacity:1"
         transform="matrix(1.25,0,0,-1.25,400.11356,67.668982)"
         id="g4256" /><g
         style="fill:#918a6f;fill-opacity:1"
         transform="matrix(1.25,0,0,-1.25,501.42944,73.323857)"
         id="g4260" /><g
         style="fill:#918a6f;fill-opacity:1"
         transform="matrix(1.25,0,0,-1.25,135.49019,74.111232)"
         id="g4276" /><g
         style="fill:#918a6f;fill-opacity:1"
         transform="matrix(1.25,0,0,-1.25,142.63132,73.077858)"
         id="g4280" /><g
         style="fill:#918a6f;fill-opacity:1"
         transform="matrix(1.25,0,0,-1.25,120.14594,74.113108)"
         id="g4284" /><g
         style="fill:#918a6f;fill-opacity:1"
         transform="matrix(1.25,0,0,-1.25,149.32981,62.396732)"
         id="g4288" /><g
         style="fill:#918a6f;fill-opacity:1"
         transform="matrix(1.25,0,0,-1.25,464.77419,74.111232)"
         id="g4292" /><g
         style="fill:#918a6f;fill-opacity:1"
         transform="matrix(1.25,0,0,-1.25,457.63306,73.077858)"
         id="g4296" /><g
         style="fill:#918a6f;fill-opacity:1"
         transform="matrix(1.25,0,0,-1.25,480.11844,74.113108)"
         id="g4300" /><g
         style="fill:#918a6f;fill-opacity:1"
         transform="matrix(1.25,0,0,-1.25,450.93382,62.396732)"
         id="g4304" /><g
         style="fill:#918a6f;fill-opacity:1"
         transform="matrix(1.25,0,0,-1.25,299.99913,72.856983)"
         id="g4264" /><g
         style="fill:#918a6f;fill-opacity:1"
         transform="matrix(1.25,0,0,-1.25,299.9985,28.587607)"
         id="g4268" /><g
         style="fill:#918a6f;fill-opacity:1"
         id="g4308"
         transform="matrix(-1.25,0,0,-1.25,299.99913,72.856983)" /><g
         style="fill:#918a6f;fill-opacity:1"
         transform="matrix(1.25,0,0,-1.25,299.99913,72.856983)"
         id="g4272" /><g
         style="fill:url(#linearGradient3582);fill-opacity:1.0"
         id="g4312"
         transform="matrix(-1.25,0,0,-1.25,299.99913,72.856983)"><path
           d="m 0,0 c 0,0 -16.982,5.961 -15.422,17.663 1.56,11.701 17.618,4.629 12.742,-6.711 3.7639753,11.551448 -12.729622,14.516888 -10.531,3.07 C -11.72,7.449 -4.944,2.002 0,0 M 0,0 C 0,0 16.982,5.961 15.422,17.663 13.862,29.364 -2.196,22.292 2.68,10.952 -1.0839753,22.503448 15.409622,25.468888 13.211,14.022 11.72,7.449 4.944,2.002 0,0 M 0,0 C -2.546856,-3.7256066 -11.809333,-9.109687 -14.388277,-0.87899553 -15.601114,3.8196126 -11.821243,1.8159812 -9.527,0 c 0,3.837 3.972,-6.437 9.527,0 m 5.04e-4,35.415501 c 0,-4.078 1.609,-10.379 7.68,-10.379 -6.071,0 -7.68,-6.303 -7.68,-10.381 0,4.078 -1.61,10.381 -7.681,10.381 6.071,0 7.681,6.301 7.681,10.379 M 0,0 C 2.546856,-3.7256066 11.809333,-9.109687 14.388277,-0.87899553 15.601114,3.8196126 11.821243,1.8159812 9.527,0 9.527,3.837 5.555,-6.437 0,0 m -120.74775,8.3682008 c 0,0 11.209,-4.294 17.773,4.9920002 -10.113,4.761 -7.72,-6.6960002 -17.773,-4.9920002 M -144.09545,-1.0049 c 0,0 -11.996,0.381 -15.154,-10.543 11.115,-1.182 5.099,8.856 15.154,10.543 m 17.98831,0.8282 c 0,0 -10.475,1.631 -11.424,11.629 9.838,-0.793 2.973,-8.521 11.424,-11.629 m -5.71291,-0.8266992 c 0,0 -17.162,2.673 -18.723,19.0560002 16.123,-1.3 4.875,-13.9620002 18.723,-19.0560002 m 252.35551,9.3716 c 0,0 -11.209,-4.294 -17.773,4.9920002 10.113,4.761 7.72,-6.6960002 17.773,-4.9920002 M 143.88255,-1.0049 c 0,0 11.997,0.381 15.153,-10.543 -11.114,-1.182 -5.097,8.856 -15.153,10.543 m -17.9883,0.8282 c 0,0 10.474,1.631 11.426,11.629 -9.839,-0.793 -2.975,-8.521 -11.426,-11.629 m 5.7129,-0.8266992 c 0,0 17.163,2.673 18.723,19.0560002 -16.122,-1.3 -4.875,-13.9620002 -18.723,-19.0560002 m -292.7514,0.6299 c 0,0 28.117,7.351 45.473,-7.352 -10.758,7.449 -21.653,4.572 -31.797,2.927 6.791,4.153 12.332,3.892 12.332,3.892 0,0 -18.412,1.384 -26.008,0.533 m 81.052706,4.5239 c 0,0 -27.737996,-8.667 -45.767996,5.201 11.096,-6.934 21.844,-3.546 31.898996,-1.426 -6.589996,-4.467 -12.134996,-4.467 -12.134996,-4.467 0,0 18.456996,-0.516 26.003996,0.692 M -75.140352,4.043 c 0,0 45.32,25.072 58.15,-7.174 0.694,20.109 -9.709,24.271 -25.31,21.843 7.974,4.854 1.732,9.708 -10.403,3.12 0,0 -13.076,-8.428 -22.437,-17.789 m 150.280704,0 c 0,0 -45.323,25.072 -58.151,-7.174 -0.693,20.11 9.708,24.271 25.31,21.843 -7.974,4.854 -1.733,9.708 10.402,3.121 0,0 13.078,-8.429 22.439,-17.79 m -95.624504,-9.0209992 c 0,0 -9.775,17.7380002 -31.111,11.62 -21.338,-6.119 -51.536998,-14.196 -68.941998,-5.646 18.088,-15.8889998 30.345998,-11.4439998 40.281998,-5.397 -2.311,-9.0869998 13.82,-5.199 21.238,2.922 1.328,-9.4619998 16.513,19.3620002 38.533,-3.499 m 181.627012,4.6045 c 0,0 -28.115,7.351 -45.471,-7.352 10.756,7.449 21.652,4.572 31.795,2.928 -6.791,4.152 -12.332,3.891 -12.332,3.891 0,0 18.413,1.385 26.008,0.533 m -81.051308,4.5249 c 0,0 27.736998,-8.668 45.766998,5.201 -11.095,-6.935 -21.843,-3.547 -31.897998,-1.427 6.587998,-4.467 12.134998,-4.467 12.134998,-4.467 0,0 -18.456998,-0.516 -26.003998,0.693 m -59.607904,-9.1294 c 0,0 9.774,17.7380002 31.111,11.62 21.337,-6.118 51.536002,-14.196 68.941002,-5.646 -18.087,-15.8889998 -30.347002,-11.4439998 -40.281002,-5.397 2.311,-9.0869998 -13.82,-5.199 -21.24,2.922 -1.326,-9.4619998 -16.51,19.3620002 -38.531,-3.499"
           style="fill:url(#linearGradient3582);fill-opacity:1.0;fill-rule:nonzero;stroke:none"
           id="path4314" /></g></g><g
       id="g3665"><g
         id="g4486"
         transform="matrix(1.25,0,0,1.25,274.39457,320.92052)"
         style="fill:#918a6f;fill-opacity:1" /><g
         id="g4490"
         transform="matrix(1.25,0,0,1.25,199.88469,332.33227)"
         style="fill:#918a6f;fill-opacity:1" /><g
         id="g4494"
         transform="matrix(1.25,0,0,1.25,98.57056,326.67614)"
         style="fill:#918a6f;fill-opacity:1" /><g
         id="g4498"
         transform="matrix(1.25,0,0,1.25,325.60432,320.92052)"
         style="fill:#918a6f;fill-opacity:1" /><g
         id="g4502"
         transform="matrix(1.25,0,0,1.25,206.07369,332.19677)"
         style="fill:#918a6f;fill-opacity:1" /><g
         id="g4506"
         transform="matrix(1.25,0,0,1.25,393.92457,332.19677)"
         style="fill:#918a6f;fill-opacity:1" /><g
         id="g4510"
         transform="matrix(1.25,0,0,1.25,400.11356,332.33102)"
         style="fill:#918a6f;fill-opacity:1" /><g
         id="g4514"
         transform="matrix(1.25,0,0,1.25,501.42944,326.67614)"
         style="fill:#918a6f;fill-opacity:1" /><g
         id="g4518"
         transform="matrix(1.25,0,0,1.25,135.49019,325.88877)"
         style="fill:#918a6f;fill-opacity:1" /><g
         id="g4522"
         transform="matrix(1.25,0,0,1.25,142.63132,326.92214)"
         style="fill:#918a6f;fill-opacity:1" /><g
         id="g4526"
         transform="matrix(1.25,0,0,1.25,120.14594,325.88689)"
         style="fill:#918a6f;fill-opacity:1" /><g
         id="g4530"
         transform="matrix(1.25,0,0,1.25,149.32981,337.60327)"
         style="fill:#918a6f;fill-opacity:1" /><g
         id="g4534"
         transform="matrix(1.25,0,0,1.25,464.77419,325.88877)"
         style="fill:#918a6f;fill-opacity:1" /><g
         id="g4538"
         transform="matrix(1.25,0,0,1.25,457.63306,326.92214)"
         style="fill:#918a6f;fill-opacity:1" /><g
         id="g4542"
         transform="matrix(1.25,0,0,1.25,480.11844,325.88689)"
         style="fill:#918a6f;fill-opacity:1" /><g
         id="g4546"
         transform="matrix(1.25,0,0,1.25,450.93382,337.60327)"
         style="fill:#918a6f;fill-opacity:1" /><g
         id="g4550"
         transform="matrix(1.25,0,0,1.25,299.99913,327.14302)"
         style="fill:#918a6f;fill-opacity:1" /><g
         id="g4554"
         transform="matrix(1.25,0,0,1.25,299.9985,371.41239)"
         style="fill:#918a6f;fill-opacity:1" /><g
         transform="matrix(-1.25,0,0,1.25,299.99913,327.14302)"
         id="g4558"
         style="fill:#918a6f;fill-opacity:1" /><g
         id="g4562"
         transform="matrix(1.25,0,0,1.25,299.99913,327.14302)"
         style="fill:#918a6f;fill-opacity:1" /><g
         transform="matrix(-1.25,0,0,1.25,299.99913,327.14302)"
         id="g4566"
         style="fill:url(#linearGradient3580);fill-opacity:1.0"><path
           d="m 0,0 c 0,0 -16.982,5.961 -15.422,17.663 1.56,11.701 17.618,4.629 12.742,-6.711 3.7639753,11.551448 -12.729622,14.516888 -10.531,3.07 C -11.72,7.449 -4.944,2.002 0,0 M 0,0 C 0,0 16.982,5.961 15.422,17.663 13.862,29.364 -2.196,22.292 2.68,10.952 -1.0839753,22.503448 15.409622,25.468888 13.211,14.022 11.72,7.449 4.944,2.002 0,0 M 0,0 C -2.546856,-3.7256066 -11.809333,-9.109687 -14.388277,-0.87899553 -15.601114,3.8196126 -11.821243,1.8159812 -9.527,0 c 0,3.837 3.972,-6.437 9.527,0 m 5.04e-4,35.415496 c 0,-4.078 1.609,-10.379 7.68,-10.379 -6.071,0 -7.68,-6.303 -7.68,-10.381 0,4.078 -1.61,10.381 -7.681,10.381 6.071,0 7.681,6.301 7.681,10.379 M 0,0 C 2.546856,-3.7256066 11.809333,-9.109687 14.388277,-0.87899553 15.601114,3.8196126 11.821243,1.8159812 9.527,0 9.527,3.837 5.555,-6.437 0,0 m -120.74775,8.3682 c 0,0 11.209,-4.294 17.773,4.992 -10.113,4.761 -7.72,-6.696 -17.773,-4.992 m -23.3477,-9.373104 c 0,0 -11.996,0.381 -15.154,-10.543 11.115,-1.182 5.099,8.856 15.154,10.543 m 17.98831,0.8282 c 0,0 -10.475,1.631 -11.424,11.629 9.838,-0.793 2.973,-8.521 11.424,-11.629 m -5.71291,-0.826696 c 0,0 -17.162,2.673 -18.723,19.056 16.123,-1.3 4.875,-13.962 18.723,-19.056 m 252.35551,9.3716 c 0,0 -11.209,-4.294 -17.773,4.992 10.113,4.761 7.72,-6.696 17.773,-4.992 m 23.34709,-9.373104 c 0,0 11.997,0.381 15.153,-10.543 -11.114,-1.182 -5.097,8.856 -15.153,10.543 m -17.9883,0.8282 c 0,0 10.474,1.631 11.426,11.629 -9.839,-0.793 -2.975,-8.521 -11.426,-11.629 m 5.7129,-0.826696 c 0,0 17.163,2.673 18.723,19.056 -16.122,-1.3 -4.875,-13.962 -18.723,-19.056 m -292.7514,0.629896 c 0,0 28.117,7.351 45.473,-7.352 -10.758,7.449 -21.653,4.572 -31.797,2.927 6.791,4.153 12.332,3.892 12.332,3.892 0,0 -18.412,1.384 -26.008,0.533 M -80.091544,4.1504 c 0,0 -27.737996,-8.667 -45.767996,5.201 11.096,-6.934 21.844,-3.546 31.898996,-1.426 -6.589996,-4.467 -12.134996,-4.467 -12.134996,-4.467 0,0 18.456996,-0.516 26.003996,0.692 m 4.951192,-0.1074 c 0,0 45.32,25.072 58.15,-7.174 0.694,20.109 -9.709,24.271 -25.31,21.843 7.974,4.854 1.732,9.708 -10.403,3.12 0,0 -13.076,-8.428 -22.437,-17.789 m 150.280704,0 c 0,0 -45.323,25.072 -58.151,-7.174 -0.693,20.11 9.708,24.271 25.31,21.843 -7.974,4.854 -1.733,9.708 10.402,3.121 0,0 13.078,-8.429 22.439,-17.79 m -95.624504,-9.021 c 0,0 -9.775,17.738 -31.111,11.62 -21.338,-6.119 -51.536998,-14.196 -68.941998,-5.646 18.088,-15.889 30.345998,-11.444 40.281998,-5.397 -2.311,-9.087 13.82,-5.199 21.238,2.922 1.328,-9.462 16.513,19.362 38.533,-3.499 m 181.627012,4.604496 c 0,0 -28.115,7.351 -45.471,-7.352 10.756,7.449 21.652,4.572 31.795,2.928 -6.791,4.152 -12.332,3.891 -12.332,3.891 0,0 18.413,1.385 26.008,0.533 M 80.091552,4.1514 c 0,0 27.736998,-8.668 45.766998,5.201 -11.095,-6.935 -21.843,-3.547 -31.897998,-1.427 6.587998,-4.467 12.134998,-4.467 12.134998,-4.467 0,0 -18.456998,-0.516 -26.003998,0.693 M 20.483648,-4.978 c 0,0 9.774,17.738 31.111,11.62 21.337,-6.118 51.536002,-14.196 68.941002,-5.646 -18.087,-15.889 -30.347002,-11.444 -40.281002,-5.397 2.311,-9.087 -13.82,-5.199 -21.24,2.922 -1.326,-9.462 -16.51,19.362 -38.531,-3.499"
           style="fill:url(#linearGradient3580);fill-opacity:1.0;fill-rule:nonzero;stroke:none"
           id="path4568" /></g></g></g><g
     id="g8367" /></svg>