<?xml version="1.0" encoding="utf-8"?>
<!DOCTYPE svg PUBLIC "-//W3C//DTD SVG 1.1//EN" "http://www.w3.org/Graphics/SVG/1.1/DTD/svg11.dtd">
<svg version="1.1" id="Layer_1" xmlns="http://www.w3.org/2000/svg" xmlns:xlink="http://www.w3.org/1999/xlink" x="0px" y="0px"
	 viewBox="297.8406 98.7656 1421.0543 1394.014" enable-background="new 297.8406 98.7656 1421.0543 1394.014" xml:space="preserve"
	>
<g>
	<path fill="#2B52DF" stroke="#2B52DF" stroke-width="0.0938" d="M493,130.01c8.24,3.63,14.85,10.16,20.02,17.41
		c-6.85,0.67-13.56-1.63-20.43-1.01h-0.08C492.21,140.94,492.26,135.44,493,130.01z"/>
	<path fill="#B33AE2" stroke="#B33AE2" stroke-width="0.0938" d="M492.59,146.41c6.87-0.62,13.58,1.68,20.43,1.01l0.19-0.01
		c5.46,7.53,11.13,14.96,18.03,21.26c-2.43-0.09-4.88-0.18-7.27-0.61c-9.08-1.8-18.28-3.14-27.52-3.63l-0.16-0.01
		C494.52,158.54,493,152.56,492.59,146.41z"/>
	<path fill="#2B52DF" stroke="#2B52DF" stroke-width="0.0938" d="M539.85,146.71c6.45,0.89,11.32,5.75,14.52,11.12
		c-5.23-1.42-10.33-3.28-15.6-4.54C539.03,151.08,539.39,148.89,539.85,146.71z"/>
	<path fill="#B33AE2" stroke="#B33AE2" stroke-width="0.0938" d="M538.77,153.29c5.27,1.26,10.37,3.12,15.6,4.54
		c4.41,7.48,7.76,15.68,13.89,22.02c-8.87-2.52-17.56-5.6-26.42-8.15C542.88,165.36,539.74,159.44,538.77,153.29z"/>
	<path fill="#93268F" stroke="#93268F" stroke-width="0.0938" d="M496.45,164.43c9.24,0.49,18.44,1.83,27.52,3.63
		c2.39,0.43,4.84,0.52,7.27,0.61c2.94,2,5.97,3.89,9.22,5.35c0.35-0.58,1.04-1.74,1.38-2.32c8.86,2.55,17.55,5.63,26.42,8.15
		c2.59,1.48,5.25,3.14,8.39,2.33c-0.07,0.34-0.2,1.02-0.27,1.36c8.1,1.91,14.95,6.95,22.99,9.01c21.48,8.03,43.97,13.26,66.73,16.02
		c21.8,2.85,43.86,2.35,65.79,1.77c15.09-1.51,30.29-2.24,45.2-5.09c7.66,5.67,14.54,12.47,22.03,18.41
		c-4.78-4.28-11.31-1.6-16.85-0.91c-12.69,1.94-25.45,3.45-38.23,4.68c-10.7,0.02-21.34,1.34-32.05,1.04
		c-29.06,0.56-58.34-2.34-86.38-10.2c-8.77-1.94-17.19-5.09-25.72-7.85c-9.21-3.11-17.85-7.66-27.01-10.91
		c-22.09-8.64-45.32-14.12-68.79-17.3C501.1,176.49,498.49,170.55,496.45,164.43z"/>
	<path fill="#2B52DF" stroke="#2B52DF" stroke-width="0.0938" d="M625.8,166.72c0.76-0.15,1.52-0.14,2.3,0.04
		c10.09,2.77,20.42,4.6,30.77,6.09c3.39,1.01,6.95,0.78,10.44,0.75c3.92,1.6,7.38,4.1,11.15,6c7.53,4.1,15.98,6.74,24.61,6.68
		c12-0.01,23.98-3.5,35.96-1.25c5.09,0.95,10.02,2.68,14.58,5.12c-10.74,2.06-21.74,1.81-32.58,3.03
		c-9.66,0.47-19.34,0.13-29.01,0.18c-14.98-1.2-30.09-1.71-44.82-4.99c-13.84-2.14-27.29-6.14-40.72-10.04
		c-3.74-1.21-7.4-3.07-11.44-2.97C606.45,171.93,615.93,168.56,625.8,166.72z"/>
	<path fill="#02FE02" stroke="#02FE02" stroke-width="0.0938" d="M628.1,166.76c10.56-2.39,21.92-2.03,32.06,1.96
		c3.13,1.46,6.36,2.81,9.15,4.88c-3.49,0.03-7.05,0.26-10.44-0.75C648.52,171.36,638.19,169.53,628.1,166.76z"/>
	<path fill="#B33AE2" stroke="#B33AE2" stroke-width="0.0938" d="M576.65,182.18c6.7599-2.38,13.65-4.37,20.39-6.82
		c4.04-0.1,7.7,1.76,11.44,2.97c13.43,3.9,26.88,7.9,40.72,10.04c14.73,3.28,29.84,3.79,44.82,4.99c9.67-0.05,19.35,0.29,29.01-0.18
		c10.84-1.22,21.84-0.97,32.58-3.03l0.25-0.04c7.52,4.37,14.73,9.36,21.23,15.14c-14.91,2.85-30.11,3.58-45.2,5.09
		c-21.93,0.58-43.99,1.08-65.79-1.77c-22.7599-2.76-45.25-7.99-66.73-16.02c-8.04-2.06-14.89-7.1-22.99-9.01
		C576.45,183.2,576.58,182.52,576.65,182.18z"/>
	<path fill="#FC0101" stroke="#FC0101" stroke-width="0.0938" d="M504.09,182.21c23.47,3.18,46.7,8.66,68.79,17.3
		c9.16,3.25,17.8,7.8,27.01,10.91c8.53,2.76,16.95,5.91,25.72,7.85c28.04,7.86,57.32,10.76,86.38,10.2
		c10.71,0.3,21.35-1.02,32.05-1.04c12.78-1.23,25.54-2.74,38.23-4.68c5.54-0.69,12.07-3.37,16.85,0.91
		c3.49,2.74,7.19,5.18,11.06,7.36c1.6,1.02,3.11,2.15,4.66,3.28c-13.61,3.46-27.61,5.16-41.4901,7.21
		c-47.1,6.57-95.65,7.59-142.11-3.79c-13.92-3.3-27.55-7.76-40.81-13.11c-14.87-6.43-30.03-12.26-45.72-16.34
		c-15.15-4.23-30.7401-6.64-46.32-8.71c1.13-0.92,2.27-1.84,3.46-2.69c2.28-1.22,4.74-2.06,7.16-2.96
		C508.12,189.72,505.73,186.11,504.09,182.21z"/>
	<path fill="#F8931F" stroke="#F8931F" stroke-width="0.0938" d="M489.41,203.46c4.08-2.31,8-5,12.44-6.59
		c-1.19,0.85-2.33,1.77-3.46,2.69c15.58,2.07,31.17,4.48,46.32,8.71c15.69,4.08,30.85,9.91,45.72,16.34
		c13.26,5.35,26.89,9.81,40.81,13.11c46.46,11.38,95.01,10.36,142.11,3.79c13.88-2.05,27.88-3.75,41.4901-7.21
		c-1.55-1.13-3.06-2.26-4.66-3.28c2.98,1.24,6.11,2.26,8.84,4.06c0.52,5.42,1.43,10.81,3.31,15.96
		c-48.41,9.36-97.96,16.27-147.32,11.58c-30.47-2.61-60.5-10.09-88.7-21.91c-35.38-15.81-73.99-23.77-112.65-25.04
		C478.14,210.71,483.81,207.01,489.41,203.46z"/>
	<path fill="#FCEE21" stroke="#FCEE21" stroke-width="0.0938" d="M473.66,215.67c38.66,1.27,77.27,9.23,112.65,25.04
		c28.2,11.82,58.23,19.3,88.7,21.91c49.36,4.69,98.91-2.22,147.32-11.58c2.01,5.86,5.63,10.88,8.58,16.25
		c-13.99,2.09-27.79,5.37-41.81,7.28c-18.6,2.96-37.3,5.48-56.13,6.23c-8.27,1.06-16.6299,0.82-24.9399,0.9
		c-41.5,0.37-83.3-6.95-121.55-23.3c-40.3-17.82-84.66-26.01-128.65-24.88C462.25,226.92,467.54,220.74,473.66,215.67z"/>
	<path fill="#02FE02" stroke="#02FE02" stroke-width="0.0938" d="M457.09,233.55c0.19-0.01,0.56-0.03,0.74-0.03
		c43.99-1.13,88.35,7.06,128.65,24.88c38.25,16.35,80.05,23.67,121.55,23.3c8.31-0.08,16.67,0.16,24.9399-0.9
		c18.83-0.75,37.53-3.27,56.13-6.23c14.02-1.91,27.82-5.19,41.81-7.28l0.38-0.04c3.13,5.35,7.34,9.95,10.7,15.14
		c-14.93,3.24-29.97,6-44.98,8.79c-9.7,1.33-19.33,3.03-29.03,4.31c-10.68,0.81-21.25,2.8-31.98,2.95
		c-5.5-0.05-10.89,1.38-16.4,1.12c-11.5099-0.24-23.1,0.72-34.53-0.91c-7.07-0.47-14.2-0.58-21.17-1.85
		c-13.77-1.74-27.5-4.29-40.87-8.03c-4.41-1.08-8.72-2.51-13.02-3.91c-16.85-5.01-32.49-13.29-49.22-18.66
		c-25.47-8.35-52.04-13.22-78.79-14.64c-5.02-0.18-10.11,0.33-15.04-0.8c-4.69-0.21-9.46-0.6-14.09,0.45
		c-1.87,0.11-3.75,0.18-5.62,0.24c0.46-1.23,0.93-2.46,1.4-3.68C451.22,242.88,454.46,238.4,457.09,233.55z"/>
	<path fill="#2B52DF" stroke="#2B52DF" stroke-width="0.0938" d="M447.25,251.45c1.87-0.06,3.75-0.13,5.62-0.24
		c4.63-1.05,9.4-0.66,14.09-0.45c4.93,1.13,10.02,0.62,15.04,0.8c26.75,1.42,53.32,6.29,78.79,14.64
		c16.73,5.37,32.37,13.65,49.22,18.66c4.3,1.4,8.61,2.83,13.02,3.91c13.37,3.74,27.1,6.29,40.87,8.03
		c6.97,1.27,14.1,1.38,21.17,1.85c11.43,1.63,23.02,0.67,34.53,0.91c5.51,0.26,10.9-1.17,16.4-1.12c10.73-0.15,21.3-2.14,31.98-2.95
		c9.7-1.28,19.33-2.98,29.03-4.31c15.01-2.79,30.05-5.55,44.98-8.79l0.37-0.09c3.5,4.79,7.32,9.34,10.63,14.26
		c-17.69,5.23-36.02,7.6-54.1,11.06c-32,5.41-64.37,9.39-96.88,8.77c-15.29,0.09-30.49-1.85-45.69-3.39
		c-23.19-3.66-46.01-9.87-67.74-18.79c-3.31-1.49-6.46-3.33-9.84-4.65c-16.01-5.56-32.01-11.4-48.72-14.56
		c-15.46-3.74-31.34-5.3-47.16-6.6c-10.31,0.12-20.59-1.25-30.89-0.47c-4.06,0.31-8.14,0.43-12.2,0.36
		c1.79-5.81,4.42-11.31,6.96-16.83L447.25,251.45z"/>
	<path fill="#B33AE2" stroke="#B33AE2" stroke-width="0.0938" d="M439.5,268.29h0.27c4.06,0.07,8.14-0.05,12.2-0.36
		c10.3-0.78,20.58,0.59,30.89,0.47c15.82,1.3,31.7,2.86,47.16,6.6c16.71,3.16,32.71,9,48.72,14.56c3.38,1.32,6.53,3.16,9.84,4.65
		c21.73,8.92,44.55,15.13,67.74,18.79c15.2,1.54,30.4,3.48,45.69,3.39c32.51,0.62,64.88-3.36,96.88-8.77
		c18.08-3.46,36.41-5.83,54.1-11.06l0.14-0.04c3.44,5.13,6.68,10.41,9.33,15.99c-10.46,2.95-21.21,4.64-31.82,6.92
		c-4.84,1.19-9.73,2.19-14.68,2.8c-51.02,10.08-103.61,15.7-155.45,8.99c-15.67-2.42-31.27-5.65-46.42-10.37
		c-5.35-1.67-10.48-3.99-15.9301-5.36c-6.36-1.61-11.81-5.46-17.98-7.56c-7.88-2.8-15.65-5.9-23.59-8.5
		c-30.97-9.31-63.3-14.08-95.65-13.83c-9-0.2-17.99,0.49-26.99,0.68C435.53,280.2,437.54,274.25,439.5,268.29z"/>
	<path fill="#93268F" stroke="#93268F" stroke-width="0.0938" d="M433.95,286.28c9-0.19,17.99-0.88,26.99-0.68
		c32.35-0.25,64.68,4.52,95.65,13.83c7.94,2.6,15.71,5.7,23.59,8.5c6.17,2.1,11.62,5.95,17.98,7.56
		c5.45,1.37,10.58,3.69,15.9301,5.36c15.15,4.72,30.75,7.95,46.42,10.37c51.84,6.71,104.43,1.09,155.45-8.99
		c4.95-0.61,9.84-1.61,14.68-2.8c10.61-2.28,21.36-3.97,31.82-6.92c2.44,5.95,3.2,12.96-0.05,18.77
		c-46.96,9.84-94.2599,19.63-142.3799,21.06c-45.09,1.56-90.86-5.05-132.5601-22.72c-15.11-6.63-30.7-12.21-46.72-16.19
		c-36.19-9.24-73.94-11.14-111.08-8.28C430.9,298.81,432.31,292.52,433.95,286.28z"/>
	<path fill="#FC0101" stroke="#FC0101" stroke-width="0.0938" d="M402.93,356.24c35.12-4.37,70.85-5.57,105.98-0.61
		c25.43,3.53,50.43,10.37,74.04,20.47c38,16.78,79.63,24.9,121.11,24.72c50.52,0.81,100.4-8.9,149.59-19.32
		c4.1-0.78,8.12-2.1,12.31-2.31c5.02,4.09,9.3,9.1,13.93,13.65c-3.64,1.98-7.78,2.46-11.76,3.31
		c-49.47,10.63-99.35,21.21-150.11,22.45c-38.63,1.15-77.64-3.69-114.19-16.54c-11.18-3.72-21.8-8.89-32.84-12.98
		c-35.96-13.62-74.62-19.39-112.99-18.84c-26.86-0.03-53.59,3.21-80.11,7.21c-0.43-0.2-1.31-0.59-1.75-0.78
		c5.84-5.69,11.58-11.48,17.02-17.56C395.44,356.09,399.64,356.86,402.93,356.24z"/>
	<path fill="#F8931F" stroke="#F8931F" stroke-width="0.0938" d="M377.89,377.45c26.52-4,53.25-7.24,80.11-7.21
		c38.37-0.55,77.03,5.22,112.99,18.84c11.04,4.09,21.66,9.26,32.84,12.98c36.55,12.85,75.56,17.69,114.19,16.54
		c50.76-1.24,100.64-11.82,150.11-22.45c3.98-0.85,8.12-1.33,11.76-3.31c4.54,4.92,8.85,10.12,12.39,15.82
		c-39.29,8.46-78.55,17.42-118.4,22.92c-42.65,5.89-86.39,7.41-128.86-0.75c-21-3.9-41.49-10.34-61.11-18.77
		c-35.52-15.51-74.21-23.09-112.87-24.05c-36.91-1.04-73.7,3.65-109.95,10.17c-3.52,0.69-7.06,1.36-10.65,1.5
		c7.88-8.36,17.62-14.72,25.47-23.12l0.23,0.11C376.58,376.86,377.46,377.25,377.89,377.45z"/>
	<path fill="#FCEE21" stroke="#FCEE21" stroke-width="0.0938" d="M361.09,398.18c36.25-6.52,73.04-11.21,109.95-10.17
		c38.66,0.96,77.35,8.54,112.87,24.05c19.6201,8.43,40.11,14.87,61.11,18.77c42.47,8.16,86.21,6.64,128.86,0.75
		c39.85-5.5,79.11-14.46,118.4-22.92c3.23,5.03,5.65,10.61,6.6299,16.54c-16.5099,2.94-32.8,6.98-49.23,10.35
		c-36.7,7.63-73.64,14.81-111.09,17.43c-46.26,3.68-93.67-0.55-137.5-16.46c-6.83-2.54-13.75-4.94-20.14-8.49
		c0.67,0.63,1.36,1.26,2.06,1.9c-1.68-1.01-3.37-2.02-5.16-2.8c-37.62-15.09-78.34-22.07-118.82-21.51
		c-42.03,0.02-83.6,7.28-124.75,15.21c2.58-8.59,9.86-14.45,15.42-21.1c0.18-0.01,0.55-0.04,0.74-0.05
		C354.03,399.54,357.57,398.87,361.09,398.18z"/>
	<path fill="#02FE02" stroke="#02FE02" stroke-width="0.0938" d="M334.28,420.83c41.15-7.93,82.72-15.19,124.75-15.21
		c40.48-0.56,81.2,6.42,118.82,21.51c1.79,0.78,3.48,1.79,5.16,2.8c-0.7-0.64-1.39-1.27-2.06-1.9c6.39,3.55,13.31,5.95,20.14,8.49
		c43.83,15.91,91.24,20.14,137.5,16.46c37.45-2.62,74.39-9.8,111.09-17.43c16.43-3.37,32.72-7.41,49.23-10.35
		c0.91,3.63,0.6,7.4,0.35,11.09c-0.78,2.33-1.5,4.67-2.15,7.04c-0.13,0.02-0.38,0.06-0.51,0.08c-9.28,1.51-18.45,3.71-27.61,5.8
		c-2.69,0.53-5.37,1.04-8.04,1.59c-6.5,2.07-13.39,2.46-19.91,4.41c-9.73,1.49-19.29,3.8-28.95,5.62
		c-24.88,4.35-49.8701,8.59-75.1201,9.93c-6.92,1.13-13.95,0.76-20.92,0.91c-11.3-0.1-22.63,0.29-33.91-0.46
		c-4.64-1.16-9.46-0.64-14.15-1.41c-24.89-2.96-49.53-8.6-72.88-17.79c-5.63-2.09-11.01-4.79-16.68-6.78
		c-0.25-3.77-0.82-7.5-1.22-11.26c-0.44-1.59-0.78-3.19-1.1-4.79c-3.07,0.33-6.09,1.01-9,2.04c-8.48,1.85-17.16,2.68-25.83,2.44
		c-2.5601-1.42-5.41-2.17-8.22-2.9c-13.55-2.79-27.24-4.91-41-6.26c-19.67-1.37-39.46-1.44-59.12-0.14
		c-6.02-0.27-11.92,1.13-17.91,1.43c-13.46,0.97-26.78,3.27-40.08,5.45c-7.34,0.71-14.54,3.35-21.98,2.15
		c1.29,0.18,2.58,0.35,3.88,0.53l-0.02,0.42c-8.25,1.79-16.65,2.82-24.85,4.87c-0.45,0.11-1.35,0.32-1.8,0.43
		c-0.55-6.07,1.18-11.9,2.81-17.66C333.32,421.69,333.96,421.11,334.28,420.83z"/>
	<path fill="#2B52DF" stroke="#2B52DF" stroke-width="0.0938" d="M415.03,425.79c5.99-0.3,11.89-1.7,17.91-1.43
		c19.66-1.3,39.45-1.23,59.12,0.14c13.76,1.35,27.45,3.47,41,6.26c2.81,0.73,5.66,1.48,8.22,2.9c-12.53,0.94-25.44,0.07-37.55,4.06
		c-3.56,1.08-6.77,3.03-10.29,4.18c-13.35-2.23-26.93-1.36-40.41-1.56c-8.74-0.32-17.37,1.32-26.11,1.32
		c-32.19,2.4-64,8.24-95.61,14.63c-1.05-5.45-1.44-10.99-1.64-16.53l0.51-0.12c0.45-0.11,1.35-0.32,1.8-0.43
		c8.2-2.05,16.6-3.08,24.85-4.87l0.02-0.42c-1.3-0.18-2.59-0.35-3.88-0.53c7.44,1.2,14.64-1.44,21.98-2.15
		C388.25,429.06,401.57,426.76,415.03,425.79z"/>
	<path fill="#B33AE2" stroke="#B33AE2" stroke-width="0.0938" d="M426.92,441.66c8.74,0,17.37-1.64,26.11-1.32
		c13.48,0.2,27.06-0.67,40.41,1.56c-11.93,6.88-24.31,13.94-38.2,15.69c-32.81,1.02-65.47,5.15-97.73,11.17
		c-6.87,1.59-13.82,2.81-20.78,3.92c-2.45-5.23-4.21-10.75-5.42-16.39C362.92,449.9,394.73,444.06,426.92,441.66z"/>
	<path fill="#2B52DF" stroke="#2B52DF" stroke-width="0.0938" d="M868.99,449.21c9.16-2.09,18.33-4.29,27.61-5.8
		c-4.5099,7.73-13.63,11.83-16.7599,20.55c-10.32,1.66-20.44,4.37-30.72,6.27c-29.18,7.04-58.93,11.52-88.69,15.43
		c-12.21,0.98-24.38,2.78-36.65,2.78c-12.04,0.19-24.08,0.17-36.1201-0.04c-24.1-1.46-48.14-5.25-71.21-12.47
		c-13.13-3.64-25.63-9.04-38.36-13.81c0.42-5.62,0.44-11.26,0.34-16.89c5.67,1.99,11.05,4.69,16.68,6.78
		c23.35,9.19,47.99,14.83,72.88,17.79c4.69,0.77,9.51,0.25,14.15,1.41c11.28,0.75,22.61,0.36,33.91,0.46
		c6.97-0.15,14,0.22,20.92-0.91c25.25-1.34,50.2401-5.58,75.1201-9.93c9.66-1.82,19.22-4.13,28.95-5.62
		c6.52-1.95,13.41-2.34,19.91-4.41C863.62,450.25,866.3,449.74,868.99,449.21z"/>
	<path fill="#93268F" stroke="#93268F" stroke-width="0.0938" d="M357.51,468.76c32.26-6.02,64.92-10.15,97.73-11.17
		c-9.89,2.64-20.75,4.09-28.76,11.05c-4.72,3.74-8.1,8.78-12.17,13.16c0.63-1.22,1.26-2.42,1.9-3.62
		c-22.62,2.4-45.17,5.72-67.45,10.34c1.79,2.06,3.59,4.16,5.76,5.85c-7.94-5.25-13.57-13.3-17.79-21.69
		C343.69,471.57,350.64,470.35,357.51,468.76z"/>
	<path fill="#B33AE2" stroke="#B33AE2" stroke-width="0.0938" d="M578.09,462.12c12.73,4.77,25.23,10.17,38.36,13.81
		c23.07,7.22,47.11,11.01,71.21,12.47c12.04,0.21,24.08,0.23,36.1201,0.04c12.27,0,24.4399-1.8,36.65-2.78
		c29.76-3.91,59.51-8.39,88.69-15.43c10.28-1.9,20.4-4.61,30.72-6.27c1.46,5.24,3.14,10.43,5.33,15.43c-1.31,0.6-2.6,1.22-3.96,1.65
		c-17.39,3.86-34.82,7.54-52.29,11.03c-16.76,3.65-33.75,6.1-50.63,9.06c-30.19,4.27-60.8,6.48-91.27,4.8
		c-26.56-0.99-52.7-6.64-78.14-14.07c-10.95-4.44-22.43-7.57-32.92-13.11C576.87,473.23,577.52,467.68,578.09,462.12z"/>
	<path fill="#FC0101" stroke="#FC0101" stroke-width="0.0938" d="M348.76,488.52c22.28-4.62,44.83-7.94,67.45-10.34
		c-0.64,1.2-1.27,2.4-1.9,3.62c-4.47,5.94-8.85,13.13-15.97,16.05c-5.13,0.62-10.27,1.22-15.36,2.15c-4.29,0.74-8.63,1.86-13.01,1.2
		c-5.49-1.37-10.83-3.54-15.45-6.83C352.35,492.68,350.55,490.58,348.76,488.52z"/>
	<path fill="#93268F" stroke="#93268F" stroke-width="0.0938" d="M575.96,478.75c10.49,5.54,21.97,8.67,32.92,13.11
		c25.44,7.43,51.58,13.08,78.14,14.07c30.47,1.68,61.08-0.53,91.27-4.8c16.88-2.96,33.87-5.41,50.63-9.06
		c17.47-3.49,34.9-7.17,52.29-11.03c1.36-0.43,2.65-1.05,3.96-1.65c2.52,5.5,5.73,10.65,8.2,16.18c-5.68,1.93-11.63,2.7-17.45,4
		c-8.38,2.05-16.82,3.8-25.22,5.72c-8.05,0.87-15.71,3.68-23.76,4.58c-16.58,3.44-33.26,6.25-50.02,8.69
		c-7,1.44-14.21,1.21-21.19,2.75c-17.88,1.31-35.75,3.33-53.7,2.99c-36.46-0.17-72.9901-6.64-107.04-19.79
		c-7.56-2.53-14.48-6.73-22.26-8.62c-0.59,2.06-1.18,4.14-1.81,6.19C572.56,494.29,574.62,486.6,575.96,478.75z"/>
	<path fill="#FC0101" stroke="#FC0101" stroke-width="0.0938" d="M875.92,499.57c5.82-1.3,11.77-2.07,17.45-4l0.26-0.08
		c2.94,5.45,5.81,10.95,8.27,16.65c-38.28,8.06-76.39,17-115.05,23.07c-45.58,7.07-92.43,9.94-138.06,1.81
		c-18.37-3.2-36.4-8.27-53.79-14.96c-8.71-3.34-17.14-7.37-25.96-10.42c-0.2,0.31-0.6,0.95-0.81,1.26
		c0.66-3.66,1.62-7.26,2.69-10.82c0.63-2.05,1.22-4.13,1.81-6.19c7.78,1.89,14.7,6.09,22.26,8.62
		c34.05,13.15,70.58,19.62,107.04,19.79c17.95,0.34,35.8199-1.68,53.7-2.99c6.98-1.54,14.19-1.31,21.19-2.75
		c16.76-2.44,33.44-5.25,50.02-8.69c8.05-0.9,15.71-3.71,23.76-4.58C859.1,503.37,867.54,501.62,875.92,499.57z"/>
	<path fill="#F8931F" stroke="#F8931F" stroke-width="0.0938" d="M382.98,500c5.09-0.93,10.23-1.53,15.36-2.15
		c-8.42,5.11-18.95,4.28-28.37,3.35C374.35,501.86,378.69,500.74,382.98,500z"/>
	<path fill="#F8931F" stroke="#F8931F" stroke-width="0.0938" d="M569.04,511.64c8.82,3.05,17.25,7.08,25.96,10.42
		c17.39,6.69,35.42,11.76,53.79,14.96c45.63,8.13,92.48,5.26,138.06-1.81c38.66-6.07,76.77-15.01,115.05-23.07
		c2.2599,5.39,4.12,10.95,5.3,16.69c-32.73,6.63-65.23,14.34-98.1,20.29c-40.53,7.41-81.81,12.38-123.0699,10.04
		c-23.69-1.48-47.26-5.35-70.02-12.16c-17.79-5.11-34.53-13.09-51.79-19.62c0.21-0.84,0.64-2.53,0.85-3.37
		c1.04-3.71,1.66-7.55,3.16-11.11C568.44,512.59,568.84,511.95,569.04,511.64z"/>
	<path fill="#FCEE21" stroke="#FCEE21" stroke-width="0.0938" d="M560.17,544.17c1.08-6.84,3.2-13.46,4.9-20.16
		c-0.21,0.84-0.64,2.53-0.85,3.37c17.26,6.53,34,14.51,51.79,19.62c22.76,6.81,46.33,10.68,70.02,12.16
		C727.29,561.5,768.57,556.53,809.1,549.12c32.87-5.95,65.37-13.66,98.1-20.29c1.05,5.75,1.75,11.66,0.63,17.46
		c-59.88,12.41-119.61,27.76-180.95,30.61c-10.56,1.0099-21.21,0.45-31.8,0.49c-15.19-1.05-30.44-1.97-45.42-4.8
		c-20.71-3.55-40.99-9.46-60.42-17.41C579.67,551.21,570.2,546.84,560.17,544.17z"/>
	<path fill="#02FE02" stroke="#02FE02" stroke-width="0.0938" d="M559.85,544.09l0.32,0.08c10.03,2.67,19.5,7.04,29.07,11.01
		c19.43,7.95,39.71,13.86,60.42,17.41c14.98,2.83,30.23,3.75,45.42,4.8c10.59-0.04,21.24,0.52,31.8-0.49
		c61.34-2.85,121.07-18.2,180.95-30.61c-1.07,3.77-2.28,7.64-4.87,10.67c-4.23,5.33-11.07,7.21-16.34,11.23
		c-6.36,2.17-13.11,2.89-19.59,4.64c-3.69,0.88-7.4301,1.44-11.1,2.33c-3.05,0.59-6.09,1.19-9.09,1.97
		c-16.88,3.42-33.72,7.03-50.7401,9.68c-20.27,3.21-40.63,6.22-61.12,7.54c-5.37,0.32-10.82-0.37-16.1,0.89
		c-6.93,0.28-13.88,0.32-20.81,0.03c-5.92-1.42-12.05-0.33-18.03-1.18c-15.49-1.04-30.86-3.48-45.99-6.89
		c-1.37-0.38-2.74-0.74-4.1-1.08l-0.9-0.29c-8.26-1.54-16.12-4.59-24.16-6.92c-15.37-5.3199-29.91-12.8199-45.55-17.37
		c-2.5-0.13-1.92-2.96-1.9901-4.7c0.3-3,1.01-5.95,1.86-8.84C559.43,546.69,559.64,545.39,559.85,544.09z"/>
	<path fill="#2B52DF" stroke="#2B52DF" stroke-width="0.0938" d="M557.35,556.84c0.07,1.74-0.5099,4.5699,1.9901,4.7
		c15.64,4.55,30.18,12.05,45.55,17.37c8.04,2.33,15.9,5.38,24.16,6.92l0.9,0.29c1.36,0.34,2.73,0.7,4.1,1.08
		c15.13,3.41,30.5,5.85,45.99,6.89c5.98,0.85,12.11-0.2401,18.03,1.18c6.93,0.29,13.88,0.25,20.81-0.03
		c5.28-1.26,10.73-0.57,16.1-0.89c20.49-1.3199,40.85-4.33,61.12-7.54c17.02-2.65,33.86-6.26,50.7401-9.68
		c3-0.78,6.04-1.38,9.09-1.97c3.67-0.89,7.41-1.45,11.1-2.33c6.48-1.75,13.23-2.47,19.59-4.64c-4.6,5.56-4.15,13.02-2.97,19.69
		c-0.3-0.39-0.88-1.16-1.17-1.55c-19.45,4.38-38.98,8.46-58.57,12.19c-30.61,6.43-61.66,10.84-92.86,12.99
		c-13.03,0.39-26.05,0.33-39.08,0.23c-5.35-0.02-10.61-1.16-15.95-1.24c-10.13-0.21-20.03-2.48-30-4.02
		c-19.51-2.99-38.29-9.4-56.55-16.74c-11.59-4.6-23.16-9.44-35.21-12.71C554.89,570.25,555.94,563.51,557.35,556.84z"/>
	<path fill="#2B52DF" stroke="#2B52DF" stroke-width="0.0938" d="M1514.62,575.63c20.72-9.35,44.05-12.29,66.5601-9.89
		c-9.25,2.01-18.75,2.11-28.05,3.79c-9.76,1.4399-19.5699,2.78-29.15,5.16C1520.91,575.43,1517.74,575.43,1514.62,575.63z"/>
	<path fill="#FCEE21" stroke="#FCEE21" stroke-width="0.0938" d="M1217.25,569.32c16.27-3.67,33.13-2.69,49.7-2.74
		c19.91,1.33,39.87,3.89,59.1101,9.37c-11.3601,0.52-22.6901,1.82-34.0801,1.52c-13.72,0.29-27.39-1.1-41.0599-2.15
		C1239.63,573.76,1228.3199,572.08,1217.25,569.32z"/>
	<path fill="#B33AE2" stroke="#B33AE2" stroke-width="0.0938" d="M1553.13,569.53c9.3-1.6801,18.8-1.78,28.05-3.79
		c14.3899,0.94,28.4399,5.43,41.2799,11.92c0.5901,1.14,1.2001,2.29,1.8301,3.45c-6.11,0.41-12.24,0.28-18.3401,0.49
		c-22.2799,1.7-44.59,3.7401-66.5599,7.88c-17.73,2.47-35.14,6.68-52.7001,10.01c-7.6399,2-15.46,3.13-23.12,5.01
		c-6.2799,1.24-12.48,3.29-18.9399,3.05c20.4301-7.89,39.91-17.99,59.65-27.43c3.46-1.45,6.73-3.42,10.34-4.49
		c3.12-0.2,6.29-0.2,9.36-0.94C1533.5601,572.31,1543.37,570.97,1553.13,569.53z"/>
	<path fill="#02FE02" stroke="#02FE02" stroke-width="0.0938" d="M1200.9,570.85c5.4299-0.63,10.85-1.81,16.35-1.53
		c11.0699,2.76,22.38,4.44,33.67,6c13.6699,1.05,27.34,2.44,41.0599,2.15c11.39,0.3,22.72-1,34.0801-1.52
		c4.45,0.98,8.7899,2.45,13.1499,3.82c2.28,0.72,4.5701,1.5,6.8401,2.32c0.9399,0.33,1.8999,0.69,2.86,1.06
		c1.4099,0.55,2.83,1.09,4.2799,1.64c1.5701,0.82,3.1801,1.57,4.77,2.39c1.65,0.75,3.3101,1.51,4.9601,2.32
		c-4.3501,0.38-8.6901,0.89-12.9601,1.73c-14.49,1.56-28.99,3.46-43.59,3.28c-10.09,1.17-20.33,1.46-30.41,0.08
		c-17.1499-0.1-34.21-2.58-51.0299-5.7401c-7.7401-1.63-15.39-3.62-23.02-5.65c-7.7101-2.52-15.5601-4.68-22.9301-8.12
		c2.96-0.91,6.01-1.49,9.09-1.9C1192.27,572,1196.64,571.78,1200.9,570.85z"/>
	<path fill="#2B52DF" stroke="#2B52DF" stroke-width="0.0938" d="M1151.11,581.47c9.23-2.36,18.46-4.91,27.87-6.39
		c7.37,3.44,15.22,5.6,22.9301,8.12c7.63,2.03,15.2799,4.02,23.02,5.65c16.8199,3.16,33.88,5.64,51.0299,5.7401
		c10.0801,1.3799,20.3201,1.09,30.41-0.08c14.6,0.18,29.1-1.72,43.59-3.28c4.27-0.84,8.61-1.35,12.9601-1.73
		c7.9299,4.14,15.7,8.63,23.6899,12.69c-13.96,3.35-28.35,4.69-42.5699,6.61c-9.4301,1.38-18.98,1.53-28.4301,2.66
		c-27.38,1.03-54.97,0.77-82.02-4.07c-17.23-3.19-34.1799-7.85-50.7999-13.37C1172.39,589.46,1161.74,585.45,1151.11,581.47z"/>
	<path fill="#B33AE2" stroke="#B33AE2" stroke-width="0.0938" d="M553.62,583.97c0.05-2.33,0.33-4.64,0.64-6.9399
		c12.05,3.27,23.62,8.11,35.21,12.71c18.26,7.34,37.04,13.75,56.55,16.74c9.97,1.54,19.87,3.81,30,4.02
		c5.34,0.08,10.6,1.22,15.95,1.24c13.03,0.1,26.05,0.16,39.08-0.23c31.2-2.15,62.25-6.56,92.86-12.99
		c19.59-3.73,39.1201-7.81,58.57-12.19c0.29,0.39,0.87,1.16,1.17,1.55c2.42,5.38,6.43,9.67,10.99,13.34
		c-29.1,6.64-58.29,12.95-87.67,18.23c-23.06,4.42-46.37,7.48-69.77,9.22c-13.35,1.5-26.81,0.89-40.21,0.94
		c-11.31,0.05-22.61-0.94-33.76-2.78c-8.16-1.13-16.42-1.86-24.38-4.08c-7.7599-2.12-15.75-3.24-23.5-5.31
		c-9.71-4.04-19.87-6.95-29.44-11.34c-10.06-4.84-20.8799-7.86-31.25-11.86C553.28,591.03,553.73,587.38,553.62,583.97z"/>
	<path fill="#93268F" stroke="#93268F" stroke-width="0.0938" d="M1622.46,577.66c11.9601,6,23.12,13.63,32.91,22.79
		c-48.1-3.43-96.22,3.06-143.33,12.36c-48.37,9.39-96.1901,21.64-144.9401,29.02c-42.97,6.54-86.99,9.2-130.08,2.21
		c-23.49-3.75-46.52-10.35-68.38-19.72c-27.8101-12.25-57.6-19.73-87.79-22.99c13.3301-4.29,26.89-7.91,40.38-11.71
		c10.52,3.04,21.15,5.85,31.41,9.76c6.2,2.15,12.03,5.21,18.12,7.64c13.09,5.6,26.73,9.79,40.4399,13.58
		c9.7101,2.02,19.4301,4.02,29.2301,5.61c9.5099,1.75,19.21,1.91,28.7899,3.08c25.97,1.01,52.0701,0.46,77.8201-3.2
		c22.85-2.7,45.5-6.76,68.0499-11.25c6.8101-1.07,13.4701-2.88,20.0701-4.8701c3.15-0.8,6.25-1.86,9.47-2.42
		c6.46,0.24,12.66-1.81,18.9399-3.05c7.66-1.88,15.4801-3.01,23.12-5.01c17.5601-3.33,34.9701-7.54,52.7001-10.01
		c21.97-4.14,44.28-6.18,66.5599-7.88c6.1001-0.21,12.2301-0.08,18.3401-0.49C1623.66,579.95,1623.05,578.8,1622.46,577.66z"/>
	<path fill="#B33AE2" stroke="#B33AE2" stroke-width="0.0938" d="M1121.23,589.62c9.88-2.98,19.84-5.75,29.88-8.15
		c10.63,3.98,21.28,7.9901,31.6801,12.55c16.62,5.52,33.5699,10.18,50.7999,13.37c27.05,4.84,54.64,5.1,82.02,4.07
		c9.4501-1.13,19-1.28,28.4301-2.66c14.22-1.92,28.61-3.26,42.5699-6.61c8.4301,3.83,17.12,7.52,26.4301,8.43
		c7.36,0.61,14.7799,0.19,22.12-0.65c-6.6,1.9901-13.26,3.8-20.0701,4.8701c-22.5499,4.49-45.2,8.55-68.0499,11.25
		c-25.75,3.66-51.8501,4.21-77.8201,3.2c-9.58-1.17-19.28-1.33-28.7899-3.08c-9.8-1.59-19.52-3.59-29.2301-5.61
		c-13.71-3.79-27.35-7.98-40.4399-13.58c-6.09-2.43-11.92-5.49-18.12-7.64C1142.38,595.47,1131.75,592.66,1121.23,589.62z"/>
	<path fill="#93268F" stroke="#93268F" stroke-width="0.0938" d="M553.37,612.55c-0.4-9.53-0.26-19.07,0.25-28.58
		c0.11,3.41-0.34,7.0601,1.04,10.27c10.3701,4,21.19,7.02,31.25,11.86c9.57,4.39,19.73,7.3,29.44,11.34
		c7.75,2.07,15.7401,3.19,23.5,5.31c7.96,2.22,16.22,2.95,24.38,4.08c11.15,1.84,22.45,2.83,33.76,2.78
		c13.4-0.05,26.86,0.56,40.21-0.94c23.4-1.74,46.71-4.8,69.77-9.22c29.38-5.28,58.57-11.59,87.67-18.23
		c2.12,0.75,3.93,2.17,5.94,3.19c7.85,4.26,16.58,6.39,25.07,8.94c-62.28,12.48-124.07,29.01-187.63,33.7
		c-42.65,3.18-86.18-0.02-127.05-13.16C591.37,627.87,573.15,618.1,553.37,612.55z"/>
	<path fill="#FC0101" stroke="#FC0101" stroke-width="0.0938" d="M1534,657.18c50.1899-8.92,101.9399-12.98,152.47-4.37
		c1.03,5.92,0.49,11.88,0.13,17.83c-24.62-4.12-49.6799-5.75-74.63-4.57c-27.1699,0.69-54.11,4.84-80.87,9.35
		c-4.99,0.69-9.9,2.45-14.98,1.99c-12.5599-7.66-28.78-7.21-41.75-0.84c-0.5599,3.31,1.16,6.56,1.64,9.83
		c-47.28,10.13-94.53,21.11-142.73,25.81c-44.51,4.33-90.15,2.53-133.1801-10.44c-19.97-5.49-38.4-15.18-58.09-21.47
		c-41.47-13.52-85.73-16.68-129.04-13.41c-75.58,5.65-148.42,28.19-223.02,40.09c-37.3,5.94-75.28,9.42-113.02,6.01
		c-20.76-1.74-41.37-5.53-61.32-11.55c-20.51-5.87-39.5-15.87-59.85-22.18c0.3-5.67,0.35-11.34,0.49-17
		c1.89,0.48,3.79,0.96,5.68,1.48c11.73,3.55,22.76,8.96,34.19,13.32c38.07,14.66,79.17,20.38,119.84,19.41
		c58.95-1.3199,116.63-14.91,174.02-27.24c51.97-11.08,104.61-21.86,158.01-21.09c34.6-0.06,69.3,5.5,101.92,17.14
		c11.6599,3.95,22.6799,9.5099,34.3099,13.55c21.47,7.75,43.87,12.9,66.54,15.49c47.14,5.49,94.76,0.21,141.21-8.27
		C1439.52,677.43,1486.38,665.44,1534,657.18z"/>
	<path fill="#F8931F" stroke="#F8931F" stroke-width="0.0938" d="M555.65,662.19c2.1-1.04,4.25,0.99,6.28,1.55
		c-1.89-0.52-3.79-1-5.68-1.48c-0.14,5.66-0.19,11.33-0.49,17c20.35,6.31,39.34,16.31,59.85,22.18
		c19.95,6.02,40.56,9.81,61.32,11.55c37.74,3.41,75.72-0.07,113.02-6.01c74.6-11.9,147.44-34.44,223.02-40.09
		c43.3101-3.27,87.5701-0.11,129.04,13.41c19.6899,6.29,38.12,15.98,58.09,21.47c43.03,12.97,88.67,14.77,133.1801,10.44
		c48.2-4.7,95.45-15.68,142.73-25.81c0.7,3.97,1.6799,7.88,2.33,11.86c-0.4,2.22,1.11,6.06-2.38,5.88
		c-45.35,9.81-90.71,20.22-136.8999,25.21c-42.53,4.63-86.05,3.83-127.6801-6.72c-16.28-4.13-32.15-9.79-47.54-16.51
		c-38.4199-16.01-80.24-23.24-121.7999-22.58c-50.9301,0.18-101.15,10.27-150.76,20.89C830.54,717.38,769.43,732.06,706.97,732.02
		c-36.6299,0.07-73.43-5.6-107.84-18.34c-10.59-3.82-20.73-8.77-31.36-12.5c-5.05-1.97-10.46-3.02-15.22-5.69
		C555.28,684.61,555.19,673.32,555.65,662.19z"/>
	<path fill="#F8931F" stroke="#F8931F" stroke-width="0.0938" d="M1531.1,675.42c26.76-4.51,53.7001-8.66,80.87-9.35
		c24.9501-1.18,50.01,0.45,74.63,4.57c-0.53,5.76-1.1799,11.52-2.16,17.24l-0.0699-0.01c-50.8099-8.26-102.7-3.84-153.0699,5.23
		c-3.8-6.28-8.8601-11.89-15.1801-15.69C1521.2,677.87,1526.11,676.11,1531.1,675.42z"/>
	<path fill="#FCEE21" stroke="#FCEE21" stroke-width="0.0938" d="M891.28,704.43c49.61-10.62,99.83-20.71,150.76-20.89
		c41.5599-0.66,83.38,6.57,121.7999,22.58c15.39,6.72,31.26,12.38,47.54,16.51c41.63,10.55,85.15,11.35,127.6801,6.72
		c46.1899-4.99,91.5499-15.4,136.8999-25.21c3.49,0.18,1.98-3.66,2.38-5.88c1.3301,7.56,2.0701,15.34,2.3101,23.05
		c-8.36,0.86-16.47,3.18-24.6801,4.85c-46.1699,9.94-92.58,19.9-139.8199,22.81c-49.53,3.1201-100.29-2.85-146.15-22.5699
		c-30.35-13.42-62.97-21.46-96.02-24.14c-14.3199-1.26-28.72-0.89-43.0699-0.79c-46.82,1.3101-92.9,10.72-138.58,20.42
		c-54.1,11.55-108.31,24.47-163.75,27.21c-45.86,2.69-92.62-3.02-135.48-20.05c-15.49-6.42-31-13.17-47.4-16.92
		c-0.22,0.33-0.67,0.99-0.9,1.33c3.01-5.8,5.9-11.69,7.75-17.97c4.76,2.67,10.17,3.72,15.22,5.69c10.63,3.73,20.77,8.68,31.36,12.5
		c34.41,12.74,71.21,18.41,107.84,18.34C769.43,732.06,830.54,717.38,891.28,704.43z"/>
	<path fill="#FCEE21" stroke="#FCEE21" stroke-width="0.0938" d="M1531.3,693.1c50.37-9.0699,102.26-13.49,153.0699-5.23
		c-0.77,5.64-1.9,11.22-2.74,16.86c-9.92-0.43-19.7-2.34-29.62-2.81c-28.17-1.37-56.49-0.56-84.4401,3.33
		c-10.2899,1.27-20.5699,2.72-30.7599,4.63C1536.3199,703.92,1533.77,698.45,1531.3,693.1z"/>
	<path fill="#02FE02" stroke="#02FE02" stroke-width="0.0938" d="M1030.91,701.47c14.35-0.1,28.75-0.47,43.0699,0.79
		c33.05,2.68,65.67,10.72,96.02,24.14c45.86,19.72,96.62,25.69,146.15,22.5699c47.24-2.91,93.65-12.87,139.8199-22.81
		c8.2101-1.67,16.3201-3.99,24.6801-4.85l0.65-0.07c0.13,5.73,0.59,11.45,0.4099,17.18c-16.9399,3.34-33.75,7.39-50.6799,10.8
		c-6.3201,1.65-12.8101,2.41-19.14,3.95c-7,1.37-14.02,2.61-20.99,4.04c-7.3301,0.92-14.49,2.84-21.85,3.58
		c-9.9501,1.6-19.9601,3.03-30.02,3.84c-10.6,1.67-21.39,1.4-32.01,2.78c-7.01,0.2401-14.02,0.09-21.02,0.13
		c-4.35-0.06-8.78,0.35-13.03-0.7599c-12.74-0.54-25.5399-1.4-38.0399-3.95c-18.8401-2.73-37.2001-8.12-55.04-14.67
		c-9.76-3.7599-19.25-8.18-29.08-11.74c-10.7001-3.96-21.7301-6.89-32.78-9.62c-2.67-0.53-5.3201-1.08-7.9601-1.66
		c-3.63-0.88-7.33-1.4-11.0099-1.93c-8.8701-1.68-17.89-2.45-26.8601-3.36c-6.09-0.67-12.2899,0.26-18.2999-1.08
		c-7-0.1-14.1-0.84-21.02,0.45c-10.26,0.28-20.5,0.6-30.73,1.5601c-5.6,1.1899-11.36,1.16-17.01,2.0099
		c-13.09,1.56-26.07,3.95-39.09,6.01c-7.02,1.49-14.15,2.39-21.12,4.09c-3.22,0.91-6.53,1.48-9.83,1.93
		c-16.05,3.48-32.22,6.38-48.15,10.37c-12.31,2.5-24.56,5.27-36.91,7.61c-14.9,3.07-29.87,5.85-44.92,8.04
		c-11.12,1.5-22.23,3.59-33.47,3.73c1.56,0.33,3.14,0.67,4.71,1.02c-4.49-0.22-8.99-0.1801-13.44,0.43
		c-4.96,0.67-9.98,0.16-14.94,0.73c-7.91,1.37-15.97,0.6-23.94,0.8c-5.69-0.24-11.49,0.52-17.08-0.8c-25.78-1.17-51.4-5.78-76-13.58
		c-2.05-0.69-4.1-1.35-6.15-1.99c-7.74-2.74-15.37-5.78-22.89-9.08c-8.08-3.55-16.55-6.04-24.69-9.4c-2.53-0.56-5.06-1.08-7.6-1.52
		c1.1-0.19,2.21-0.37,3.32-0.53c-3.79-0.03-7.46-0.97-11.09-1.94c-1.59-1.13-2.55,0.7-3.64,1.43c0.16-0.9,0.3701-1.79,0.61-2.65
		c0.68-1.88,1.3-3.77,1.91-5.66c1.41-2.76,2.54-5.67,4.06-8.37c0.23-0.34,0.68-1,0.9-1.33c16.4,3.75,31.91,10.5,47.4,16.92
		c42.86,17.03,89.62,22.74,135.48,20.05c55.44-2.74,109.65-15.66,163.75-27.21C938.01,712.19,984.09,702.78,1030.91,701.47z"/>
	<path fill="#02FE02" stroke="#02FE02" stroke-width="0.0938" d="M1567.5699,705.25c27.9501-3.89,56.27-4.7,84.4401-3.33
		c9.92,0.47,19.7,2.38,29.62,2.81c-0.15,2.42-0.1901,4.88-0.88,7.23c-0.33,3.28-0.36,6.59-0.95,9.84
		c-12.3301,0.19-24.4601-2.68-36.8-2.34c-8.59-1.03-17.25-1.17-25.88-0.68c-6.29,1.3799-12.79,0.27-19.12,1.28
		c-10.73,0.48-21.42,1.74-32.0601,3.12c-10.61,1.03-21.0199,3.42-31.59,4.58c0.4301-6.02,2.3-11.84,2.4601-17.88
		C1547,707.97,1557.28,706.52,1567.5699,705.25z"/>
	<path fill="#2B52DF" stroke="#2B52DF" stroke-width="0.0938" d="M1002.15,720.78c10.23-0.96,20.47-1.28,30.73-1.5601
		c6.92-1.29,14.02-0.55,21.02-0.45c6.01,1.34,12.21,0.41,18.2999,1.08c8.9701,0.91,17.99,1.6801,26.8601,3.36
		c3.6799,0.53,7.3799,1.05,11.0099,1.93c2.64,0.58,5.29,1.13,7.9601,1.66c11.0499,2.73,22.08,5.66,32.78,9.62
		c9.83,3.56,19.3199,7.98,29.08,11.74c17.84,6.55,36.2,11.94,55.04,14.67c12.5,2.55,25.2999,3.41,38.0399,3.95
		c4.25,1.11,8.6801,0.7,13.03,0.7599c7-0.04,14.01,0.11,21.02-0.13c10.62-1.3799,21.41-1.11,32.01-2.78
		c10.0599-0.81,20.0699-2.24,30.02-3.84c7.36-0.74,14.5199-2.66,21.85-3.58c6.97-1.43,13.99-2.67,20.99-4.04
		c6.33-1.54,12.8199-2.3,19.14-3.95c16.9299-3.41,33.74-7.46,50.6799-10.8l0.53-0.09c-0.11,5.72,0.22,11.43,0.08,17.15l-0.8099,0.13
		c-26.72,4.89-53.17,11.09-79.77,16.61c-49.5599,9.04-100.35,16.03-150.71,9.8701c-8.77-0.6-17.49-1.85-25.99-4.13
		c-11.65-2.34-23.0701-5.65-34.4601-9.01c-18.1799-6.85-35.84-15.14-54.5-20.7c-11.0599-3-22.14-5.93-33.39-8.12
		c-14.24-1.27-28.3899-3.9-42.73-3.89c-14.63-1.28-29.2899-0.08-43.92,0.41c-9.97,1.21-20.06,1.2599-29.94,3.16
		c-10.95,1.11-21.86,2.66-32.68,4.72c-5.5,1.11-11.15,1.4399-16.53,3.1c-5.51,1.71-11.32,1.88-16.93,3.14
		c-33.32,7.02-66.61,14.18-99.98,20.99c-8.73,0.87-17.15,3.44-25.82,4.66c-23.27,3.64-46.66,6.77-70.2,7.68
		c-20.32,0.64-40.79,0.54-60.89-2.88c-9.13-0.86-18.25-2.0699-27.06-4.68c-18.85-4.38-37.74-9.43-55.15-18.08
		c-14.03-6.02-28.63-10.66-43.49-14.13c-0.08-3.73,0.04-7.47,0.39-11.18c0.11-0.75,0.34-2.26,0.46-3.01
		c1.09-0.73,2.05-2.56,3.64-1.43c3.63,0.97,7.3,1.91,11.09,1.94c-1.11,0.16-2.22,0.34-3.32,0.53c2.54,0.44,5.07,0.96,7.6,1.52
		c8.14,3.36,16.61,5.85,24.69,9.4c7.52,3.3,15.15,6.34,22.89,9.08c2.05,0.64,4.1,1.3,6.15,1.99c24.6,7.8,50.22,12.41,76,13.58
		c5.59,1.32,11.39,0.56,17.08,0.8c7.97-0.2,16.03,0.57,23.94-0.8c4.96-0.57,9.98-0.06,14.94-0.73c4.45-0.61,8.95-0.65,13.44-0.43
		c-1.57-0.35-3.15-0.69-4.71-1.02c11.24-0.14,22.35-2.23,33.47-3.73c15.05-2.19,30.02-4.97,44.92-8.04
		c12.35-2.34,24.6-5.11,36.91-7.61c15.93-3.99,32.1-6.89,48.15-10.37c3.3-0.45,6.61-1.02,9.83-1.93c6.97-1.7,14.1-2.6,21.12-4.09
		c13.02-2.06,26-4.45,39.09-6.01C990.79,721.94,996.55,721.97,1002.15,720.78z"/>
	<path fill="#2B52DF" stroke="#2B52DF" stroke-width="0.0938" d="M1598,720.06c6.33-1.01,12.83,0.1,19.12-1.28
		c8.63-0.4901,17.29-0.35,25.88,0.68c12.34-0.34,24.47,2.53,36.8,2.34c-0.3201,5.93-0.7201,11.85-1.2101,17.76
		c-12.4099-2.08-24.98-3.07-37.5399-3.51c-12.6901-1.04-25.38,0.23-38.0601,0.4c-23.84,1.55-47.55,4.78-71.09,8.83
		c0.75-5.85,1.61-11.6801,2.45-17.52c10.5701-1.16,20.98-3.55,31.59-4.58C1576.58,721.8,1587.27,720.54,1598,720.06z"/>
	<path fill="#B33AE2" stroke="#B33AE2" stroke-width="0.0938" d="M536.79,733.87c0.2401-0.18,0.73-0.54,0.97-0.72
		c-0.35,3.71-0.47,7.45-0.39,11.18c14.86,3.47,29.46,8.11,43.49,14.13c17.41,8.65,36.3,13.7,55.15,18.08
		c8.81,2.61,17.93,3.82,27.06,4.68c20.1,3.42,40.57,3.52,60.89,2.88c23.54-0.91,46.93-4.04,70.2-7.68
		c8.67-1.22,17.09-3.79,25.82-4.66c33.37-6.81,66.66-13.97,99.98-20.99c5.61-1.26,11.42-1.43,16.93-3.14
		c5.38-1.66,11.03-1.99,16.53-3.1c10.82-2.0601,21.73-3.61,32.68-4.72c9.88-1.9,19.97-1.95,29.94-3.16
		c14.6301-0.4901,29.29-1.69,43.92-0.41c14.3401-0.01,28.49,2.62,42.73,3.89c11.25,2.19,22.3301,5.12,33.39,8.12
		c18.66,5.56,36.3201,13.85,54.5,20.7c11.39,3.36,22.8101,6.67,34.4601,9.01c8.5,2.28,17.22,3.53,25.99,4.13
		c50.36,6.16,101.15-0.83,150.71-9.8701c26.6-5.52,53.05-11.72,79.77-16.61c0.05,5.41,0.67,10.92-0.4301,16.27
		c-0.5499,1.75-2.7,1.68-4.11,2.19c-11.71,2.28-23.35,4.87-34.9299,7.67c-11.5901,2.74-23.4501,4.19-34.98,7.15
		c-44.38,8.19-89.4601,15.22-134.7201,12.71c-22.73-1.13-45.4299-4.36-67.33-10.63c-20.98-4.56-39.7-15.65-60.11-21.98
		c-20.29-7.11-41.55-10.91-62.8301-13.67c-37.35-3.79-75.0499-1.27-112.1,4.16c-10.3,2.09-20.8,3-31.0699,5.28
		c-24.01,4.52-47.85,9.76-71.75,14.81c-8.35,2.21-16.84,3.77-25.31,5.35c-6.61,1.74-13.34,2.9-20.06,4.04
		c-13.46,3.16-27.23,4.61-40.8101,7.11c-46.48,6.91-94.3799,9.31-140.61-0.59c-9.02-1.71-17.89-4.12-26.6-6.99
		c-8.55-2.78-17.3-5.05-25.45-8.9c-9.1-3.54-17.91-7.82-27.25-10.69c-7.12-2.37-14.5-3.9-21.55-6.5
		c-0.77-7.48-2.38-14.89-2.29-22.4301C537.22,737.93,537.09,735.87,536.79,733.87z"/>
	<path fill="#B33AE2" stroke="#B33AE2" stroke-width="0.0938" d="M1602.99,736.45c12.6801-0.17,25.37-1.44,38.0601-0.4
		c12.5599,0.44,25.13,1.43,37.5399,3.51c-0.25,5.65-0.6699,11.29-1.21,16.93c-4.54-0.03-9.05-0.57-13.52-1.21
		c-24.5499-2.46-49.2999-2.03-73.88-0.28c-20.3199,2.13-40.6,4.71-60.6899,8.47c0.88-6.06,1.64-12.14,2.61-18.1899
		C1555.4399,741.23,1579.15,738,1602.99,736.45z"/>
	<path fill="#93268F" stroke="#93268F" stroke-width="0.0938" d="M969.97,759.48c37.05-5.43,74.75-7.95,112.1-4.16
		c21.28,2.76,42.54,6.56,62.8301,13.67c20.41,6.33,39.13,17.42,60.11,21.98c21.9,6.27,44.6,9.5,67.33,10.63
		c45.26,2.51,90.3401-4.52,134.7201-12.71c11.5299-2.96,23.3899-4.41,34.98-7.15c11.58-2.8,23.22-5.39,34.9299-7.67
		c1.41-0.51,3.5601-0.44,4.11-2.19c1.1001-5.35,0.4801-10.86,0.4301-16.27l0.8099-0.13c-0.24,11.73-0.58,23.47-1.7999,35.15
		l-0.63,0.14c-24.59,5.34-49.1801,10.65-73.83,15.71c-7.3101,1.71-14.7301,2.81-22.14,3.89c-13.86,3.03-27.9801,4.39-42,6.37
		c-7.9301,1.14-15.9301,1.69-23.9301,1.87c-12.92,1.63-25.96,0.86-38.9399,1.04c-7.03-0.41-14.01-1.29-21.04-1.48
		c-10.5-0.75-20.71-3.54-31.15-4.66c-20.49-3.75-40.5499-9.88-59.58-18.36c-25.37-10.39-52.0601-17.77-79.3101-20.9901
		c-10.01-0.68-19.9099-2.74-29.98-2.62c-16.35-0.06-32.73-0.4-49.03,0.98c-15.39,1.53-30.78,3.25-46.01,5.97
		c-11.15,1.13-21.96,4.18-33.01,5.9c-33.24,5.47-65.85,14.08-98.93,20.3c-5.36,0.93-10.55,2.74-16,3.12
		c-13.98,2.34-27.86,5.27-41.9,7.25c-12.35,1.45-24.68,3.15-37.13,3.58c-10.93,1.47-21.99,0.89-32.99,0.98
		c-7.33-0.21-14.72,0.39-22-0.76c-6.32-0.83-12.72-0.97-19.04-1.72c-7.98-1.27-15.89-2.9-23.86-4.12
		c-9.4301-2.11-18.78-4.6-27.94-7.66c-9.64-2.27-18.44-6.94-27.61-10.52c-7.5099-3.3701-15.3-6.04-23.06-8.72
		c-6.83-1.95-13.58-4.65-20.75-4.9c-0.17,0.69-0.5,2.07-0.67,2.76c1.83-7.04,2.12-14.36,1.45-21.58c7.05,2.6,14.43,4.13,21.55,6.5
		c9.34,2.87,18.15,7.15,27.25,10.69c8.15,3.85,16.9,6.12,25.45,8.9c8.71,2.87,17.58,5.28,26.6,6.99c46.23,9.9,94.13,7.5,140.61,0.59
		c13.58-2.5,27.35-3.95,40.8101-7.11c6.72-1.14,13.45-2.3,20.06-4.04c8.47-1.58,16.96-3.14,25.31-5.35
		c23.9-5.05,47.74-10.29,71.75-14.81C949.17,762.48,959.67,761.57,969.97,759.48z"/>
	<path fill="#93268F" stroke="#93268F" stroke-width="0.0938" d="M1589.98,755c24.5801-1.75,49.3301-2.18,73.88,0.28
		c4.47,0.64,8.98,1.18,13.52,1.21c-0.38,6-1.17,11.97-1.91,17.95c-6.8199-0.76-13.51-2.65-20.39-2.69
		c-11.36-0.16-22.71-0.33-34.0599-0.28c-12.13,0.25-24.34-0.3799-36.3301,1.84c-12.72,0.43-25.1699,3.24-37.7899,4.64
		c-6.66,1.37-13.5,1.77-20.01,3.75c0.51-6.12,1.63-12.15,2.4-18.23C1549.38,759.71,1569.66,757.13,1589.98,755z"/>
	<path fill="#FC0101" stroke="#FC0101" stroke-width="0.0938" d="M1584.6899,773.31c11.9901-2.22,24.2001-1.59,36.3301-1.84
		c11.35-0.05,22.7,0.1201,34.0599,0.28c6.88,0.04,13.5701,1.93,20.39,2.69c-0.9399,5.76-1.83,11.54-3.13,17.24l-0.35-0.04
		c-11.3-1.34-22.64-2.32-34.02-2.47c-11.3199-1.04-22.64,0.26-33.96,0.44c-22.8,1.4-45.5,4.24-67.99,8.13
		c-5.04,0.93-10.0601,2-15.15,2.57c2.37-6.05,5.6901-11.91,5.86-18.57l0.16-0.04c6.51-1.98,13.35-2.38,20.01-3.75
		C1559.52,776.55,1571.97,773.74,1584.6899,773.31z"/>
	<path fill="#FC0101" stroke="#FC0101" stroke-width="0.0938" d="M962.95,778.49c15.23-2.72,30.62-4.44,46.01-5.97
		c16.3-1.38,32.68-1.04,49.03-0.98c10.0701-0.12,19.97,1.94,29.98,2.62c27.25,3.22,53.9401,10.6,79.3101,20.9901
		c19.03,8.48,39.09,14.61,59.58,18.36c10.4401,1.12,20.65,3.91,31.15,4.66c7.03,0.19,14.01,1.07,21.04,1.48
		c12.98-0.1801,26.0199,0.59,38.9399-1.04c8-0.18,16-0.73,23.9301-1.87c14.0199-1.98,28.14-3.34,42-6.37
		c7.4099-1.08,14.83-2.18,22.14-3.89c24.6499-5.06,49.24-10.37,73.83-15.71c0.1,6.31-1.58,12.44-2.87,18.57
		c-46.35,10.08-92.71,20.77-139.9501,25.77c-22.3099,2.04-44.7799,3.34-67.1599,1.78c-33.85-1.71-67.4701-9.11-98.75-22.18
		c-18.37-8.09-37.5-14.48-57.14-18.68c-21.02-4.61-42.5-6.53-63.97-7.21C1002.85,788.54,956.04,796.26,909.99,806
		c-48.52,10-96.73,21.93-145.98,27.93c-27.5,3.18-55.3,4.83-82.94,2.62c-33.38-2.32-66.44-10.11-97.13-23.49
		c-11.23-4.86-22.79-8.97-34.54-12.36c-5.02-1.33-10-3.12-15.22-3.4c1.06-4.51,2.76-8.83,3.88-13.32c0.17-0.69,0.5-2.07,0.67-2.76
		c7.17,0.25,13.92,2.95,20.75,4.9c7.76,2.68,15.55,5.35,23.06,8.72c9.17,3.58,17.97,8.25,27.61,10.52
		c9.16,3.06,18.5099,5.55,27.94,7.66c7.97,1.22,15.8799,2.85,23.86,4.12c6.32,0.75,12.72,0.89,19.04,1.72
		c7.28,1.15,14.67,0.55,22,0.76c11-0.09,22.06,0.49,32.99-0.98c12.45-0.43,24.78-2.13,37.13-3.58c14.04-1.98,27.92-4.91,41.9-7.25
		c5.45-0.38,10.64-2.19,16-3.12c33.08-6.22,65.69-14.83,98.93-20.3C940.99,782.67,951.8,779.62,962.95,778.49z"/>
	<path fill="#F8931F" stroke="#F8931F" stroke-width="0.0938" d="M909.99,806c46.05-9.74,92.86-17.46,140.0601-17.18
		c21.47,0.68,42.95,2.6,63.97,7.21c19.64,4.2,38.77,10.59,57.14,18.68c31.2799,13.07,64.9,20.47,98.75,22.18
		c22.38,1.56,44.85,0.26,67.1599-1.78c47.2401-5,93.6001-15.69,139.9501-25.77c-1.71,6.59-3.92,13.04-6.6801,19.27l-0.5399,0.11
		c-44.3101,9.48-88.63,19.6201-133.78,24.16c-43.25,4.41-87.55,3.24-129.65-8.37c-13.64-3.7-27.01-8.38-39.96-14.02
		c-15.27-6.56-31.11-11.74-47.26-15.61c-43.36-10.18-88.5-10.01-132.5-4.41c-8.31,1.17-16.72,1.8701-24.89,3.91
		c-4.19,1.04-8.52,1.1-12.77,1.73c-45.55,8.11-90.48,19.31-135.96,27.84c-49.98,9.25-101.38,15.33-152.0601,8.23
		c-18.83-2.42-37.33-6.97-55.34-12.91c-16.07-5.58-31.37-13.21-47.65-18.2c-8.75-2.77-17.57-5.33-26.6-7
		c0.11-5.68,0.68-11.46,2.8-16.77c5.22,0.28,10.2,2.07,15.22,3.4c11.75,3.39,23.31,7.5,34.54,12.36
		c30.69,13.38,63.75,21.17,97.13,23.49c27.64,2.21,55.44,0.56,82.94-2.62C813.26,827.93,861.47,816,909.99,806z"/>
	<path fill="#F8931F" stroke="#F8931F" stroke-width="0.0938" d="M1604.01,789.61c11.3199-0.18,22.64-1.48,33.96-0.44
		c11.38,0.15,22.72,1.13,34.02,2.47c-0.75,5.9-2.95,11.48-4.9399,17.05c-9.3601-0.89-18.75-1.35-28.13-1.94
		c-29.7301-0.79-59.4401,2-88.8,6.48c-13.1,1.8-26,4.76-39.08,6.58c3.1699-6.5,6.84-12.76,9.5699-19.47l0.26-0.03
		c5.09-0.57,10.11-1.64,15.15-2.57C1558.51,793.85,1581.21,791.01,1604.01,789.61z"/>
	<path fill="#FCEE21" stroke="#FCEE21" stroke-width="0.0938" d="M986.65,810.47c44-5.6,89.14-5.77,132.5,4.41
		c16.15,3.87,31.99,9.05,47.26,15.61c12.95,5.64,26.3199,10.32,39.96,14.02c42.1,11.61,86.4,12.78,129.65,8.37
		c45.15-4.54,89.47-14.68,133.78-24.16c-2.3101,6.9901-7.2101,12.79-9.87,19.64c-0.2401,0.08-0.7201,0.22-0.9601,0.29
		c-47.7999,10.53-95.95,20.75-144.9299,23.7c-8.3501,0.23-16.7001,0.39-25.04,0.34c-40.23,0.43-80.63-7-117.79-22.52
		c0.36-0.14,1.0701-0.41,1.4301-0.55c-2.33-1.54-5.13-1.86-7.79-2.31c1.73,0.8,3.59,1.47,5.14,2.65
		c-18.6799-8.94-38.6799-14.84-58.9-19.13c-25.0299-5.08-50.64-7.04-76.1599-6.38c-44.2101,1.15-87.91,9.12-131.09,18.24
		c-57.2,12-114.32,26.18-172.86,29.62c-14.99,0.55-30,0.47-44.98,0.07c-32.89-2.1-65.61-8.85-96.16-21.38
		c-18.6-8.05-37.76-15.35-57.78-18.94c-0.88-5.96-0.61-11.99-0.68-17.99c9.03,1.67,17.85,4.23,26.6,7
		c16.28,4.99,31.58,12.62,47.65,18.2c18.01,5.94,36.51,10.49,55.34,12.91c50.6801,7.1,102.08,1.02,152.0601-8.23
		c45.48-8.53,90.41-19.73,135.96-27.84c4.25-0.63,8.58-0.69,12.77-1.73C969.93,812.34,978.34,811.64,986.65,810.47z"/>
	<path fill="#FCEE21" stroke="#FCEE21" stroke-width="0.0938" d="M1550.12,813.23c29.36-4.48,59.0699-7.27,88.8-6.48
		c9.38,0.59,18.7699,1.05,28.13,1.94c-2.4301,5.98-4.9701,12.08-9.1901,17.07c-16.23-2.02-32.62-1.33-48.92-1.16
		c-37.1699,2.27-74.12,7.89-110.46,15.96c4.0801-6.9,8.4501-13.64,12.23-20.71l0.3301-0.04
		C1524.12,817.99,1537.02,815.03,1550.12,813.23z"/>
	<path fill="#02FE02" stroke="#02FE02" stroke-width="0.0938" d="M903.84,842.69c43.18-9.12,86.8799-17.09,131.09-18.24
		c25.5199-0.66,51.13,1.3,76.1599,6.38c20.2201,4.29,40.2201,10.19,58.9,19.13c-1.55-1.18-3.41-1.85-5.14-2.65
		c2.66,0.45,5.4601,0.77,7.79,2.31c-0.36,0.14-1.0701,0.41-1.4301,0.55c37.16,15.52,77.5601,22.95,117.79,22.52
		c8.34,0.05,16.6899-0.11,25.04-0.34c48.98-2.95,97.13-13.17,144.9299-23.7c-3.62,7.28-8.4299,13.9-12.77,20.7599
		c-16.09,3.11-32.1,6.61-48.1699,9.8c-3.3301,0.45-6.65,0.98-9.9401,1.6c-9.0499,1.77-18.1699,3.54-27.4099,3.87
		c1.5099,0.24,3.0399,0.49,4.58,0.75c-11.8201-0.02-23.39,2.76-35.17,3.38c-5.25,1.26-10.71,0.42-16.02,1.27
		c-11.0099,0.69-22.0599,0.29-33.08,0.39c-11.04,0.15-22-1.25-32.96-2.28c-23.0801-2.98-45.88-8.4-67.65-16.66
		c-7.92-2.9301-15.5699-6.4901-23.45-9.5c-23.8401-9.42-49.03-15.09-74.4701-17.92c-7.5-0.46-14.9099-1.88-22.4399-1.72
		c-17.36-0.38-34.72,0.3-52.08,0.03c5.42,0.34,10.86,0.58,16.28,1.16c-9.7599-0.36-19.54-0.04-29.2,1.42
		c-14.03,1.46-28,3.51-41.92,5.81c-7.71,1.41-15.47,2.63-23.1,4.39c-5.04,0.76-10.01,1.85-14.99,2.89
		c-1.7,0.3199-3.38,0.67-5.04,1.08c-32.02,6.52-63.83,14.05-95.97,20.03c-13.94,2.6-27.94,4.87-41.98,6.9
		c-12.68,1.07-25.24,3.63-38,3.61c-12.29,1.27-24.68,0.59-37.02,0.73c-7.99,0.22-15.92-0.9-23.89-1.2c-9-1.44-18.12-2.2-27.08-3.98
		c-8.76-1.81-17.5-3.74-26.14-6.08c-11.74-3.55-23.32-7.58-34.59-12.42c-8.56-3.73-17.39-6.81-26.17-9.99
		c-7.31-2.26-14.68-4.29-22.11-6.09c-1.8-4.08-2.86-8.42-3.89-12.74c-0.49-1.94-0.76-3.92-1.07-5.88
		c20.02,3.59,39.18,10.89,57.78,18.94c30.55,12.53,63.27,19.28,96.16,21.38c14.98,0.4,29.99,0.48,44.98-0.07
		C789.52,868.87,846.64,854.69,903.84,842.69z"/>
	<path fill="#02FE02" stroke="#02FE02" stroke-width="0.0938" d="M1498.48,840.56c36.34-8.07,73.29-13.69,110.46-15.96
		c16.3-0.17,32.6901-0.86,48.92,1.16c-0.14,0.36-0.42,1.08-0.5599,1.44c-4.29,5.21-8.7001,10.31-13.3,15.26
		c-11.15-0.17-22.3101-0.29-33.46-0.01c-12.11,1.51-24.4,0.98-36.4501,3c-9.09,1.01-18.1899,2.07-27.1699,3.74
		c-13.2001,2.21-26.49,4.08-39.53,7.13c-6.46,1.01-12.72,3.13-19.27,3.46C1491.14,853.15,1495.04,846.97,1498.48,840.56z"/>
	<path fill="#2B52DF" stroke="#2B52DF" stroke-width="0.0938" d="M1007.94,842.42c17.36,0.27,34.72-0.41,52.08-0.03
		c7.53-0.16,14.9399,1.26,22.4399,1.72c25.4401,2.83,50.63,8.5,74.4701,17.92c7.88,3.0099,15.5299,6.5699,23.45,9.5
		c21.77,8.2599,44.5699,13.68,67.65,16.66c10.96,1.03,21.9199,2.43,32.96,2.28c11.02-0.1,22.0701,0.3,33.08-0.39
		c5.3101-0.85,10.77-0.01,16.02-1.27c11.78-0.62,23.35-3.4,35.17-3.38c-1.54-0.26-3.0701-0.51-4.58-0.75
		c9.24-0.33,18.36-2.1,27.4099-3.87c3.29-0.62,6.61-1.15,9.9401-1.6c16.0699-3.19,32.08-6.69,48.1699-9.8
		c-4.24,6.71-8.4399,13.45-13.0299,19.92c-8.16,0.82-16.03,3.33-24.12,4.6c-7.77,1.01-15.3501,3.04-23.0901,4.22
		c-17.5299,3.38-35.2799,5.25-53.02,7.13c-8.8999,1.45-17.96,1.1299-26.8999,2.15c-12.67,0.04-25.4,0.71-38.01-0.75
		c-10.4301-0.11-20.6901-2.07-30.99-3.44c-23.8101-4.09-47.4501-10.01-69.5801-19.85c-16.77-7.65-34.4199-13.51-52.5699-16.78
		c-10.1801-2.42-20.53-4.14-30.87-5.72c-25.39-2.03-50.98-2.23-76.39-0.35c-22,2.25-44.02,4.62-65.69,9.16
		c-21.97,4.56-44.18,8.06-65.93,13.65c-20.84,4.55-41.68,9.09-62.71,12.66c-6.79,1.2-13.6,2.28-20.34,3.74
		c-12.68,1.4-25.2401,3.92-37.98,4.9c-10.6,1.64-21.32,1.7599-31.97,2.8c-29.48,0.8-59.26-0.72-88.01-7.73
		c-10.78-2.6899-21.65-5.25-32.04-9.24c-7.7-2.85-15.37-5.77-22.98-8.81c-7.03-3.56-14.58-5.83-21.99-8.39
		c-3.82-1.29-7.73-2.32-11.71-2.91l-0.28-0.05c-3.13-6.48-6.63-12.82-8.98-19.64c7.43,1.8,14.8,3.83,22.11,6.09
		c8.78,3.18,17.61,6.26,26.17,9.99c11.27,4.84,22.85,8.87,34.59,12.42c8.64,2.34,17.38,4.27,26.14,6.08
		c8.96,1.78,18.08,2.54,27.08,3.98c7.97,0.3,15.9,1.42,23.89,1.2c12.34-0.14,24.73,0.54,37.02-0.73c12.76,0.02,25.32-2.54,38-3.61
		c14.04-2.03,28.04-4.3,41.98-6.9c32.14-5.98,63.95-13.51,95.97-20.03c1.66-0.41,3.34-0.76,5.04-1.08
		c4.98-1.04,9.95-2.13,14.99-2.89c7.63-1.76,15.39-2.98,23.1-4.39c13.92-2.3,27.89-4.35,41.92-5.81c9.66-1.46,19.44-1.78,29.2-1.42
		C1018.8,843,1013.36,842.76,1007.94,842.42z"/>
	<path fill="#2B52DF" stroke="#2B52DF" stroke-width="0.0938" d="M1610.54,842.45c11.1499-0.28,22.3099-0.16,33.46,0.01
		c-4.8,5.34-9.5,10.82-13.36,16.9c-6.6801-0.74-13.36,0.24-20.04,0.15c-12.84-0.03-25.5499,1.84-38.2999,3
		c-11.5701,1.58-23.2001,2.91-34.62,5.36c-9.4301,1.15-18.75,3-27.9901,5.13c-9.86,1.44-19.5199,3.88-29.34,5.51
		c1.98-6.48,4.72-12.69,7.77-18.73c6.55-0.33,12.8101-2.45,19.27-3.46c13.04-3.05,26.33-4.92,39.53-7.13
		c8.98-1.67,18.08-2.73,27.1699-3.74C1586.14,843.43,1598.4301,843.96,1610.54,842.45z"/>
	<path fill="#B33AE2" stroke="#B33AE2" stroke-width="0.0938" d="M1007.63,860.54c25.41-1.88,51-1.68,76.39,0.35
		c10.34,1.58,20.6899,3.3,30.87,5.72c18.15,3.27,35.7999,9.13,52.5699,16.78c22.13,9.84,45.77,15.76,69.5801,19.85
		c10.2999,1.37,20.5599,3.33,30.99,3.44c12.61,1.46,25.34,0.79,38.01,0.75c8.9399-1.02,18-0.7,26.8999-2.15
		c17.7401-1.88,35.4901-3.75,53.02-7.13c7.74-1.1801,15.3201-3.21,23.0901-4.22c8.09-1.27,15.96-3.78,24.12-4.6
		c-4.6901,7.04-9.7101,13.85-14.52,20.81c-4.36-0.07-8.53,1.19-12.75,2.02c-11.97,2.03-23.79,4.92-35.85,6.36
		c-21.88,3.55-43.9801,5.41-66.1001,6.7c-27.7799,0.78-55.72-1.17-82.9099-7.12c-18.51-3.8-36.4601-9.95-53.8501-17.27
		c-21.3199-9.64-44.11-15.56-67.0599-19.84c-21.5601-3.22-43.4-4.76-65.2-4.24c-10.9501,0.73-21.9301,0.93-32.85,2.04
		c-23.53,2.37-46.92,6-70.13,10.47c-22.26,4.71-44.63,8.91-66.8,14.04c-21.01,4.53-42.06,8.96-63.2401,12.61
		c-20.14,3.69-40.44,6.64-60.8799,7.97c-28.97,2.54-58.23,1.82-86.97-2.71c-17.86-2.23-35.07-7.66-52.14-13.15
		c-7.87-3.09-15.97-5.64-23.47-9.6c-8.19-3.32-16.87-5.28-24.98-8.83c-1.16-6.82-4.87-12.79-7.1899-19.22
		c3.98,0.59,7.89,1.62,11.71,2.91c7.41,2.56,14.96,4.83,21.99,8.39c7.61,3.04,15.28,5.96,22.98,8.81
		c10.39,3.99,21.2599,6.55,32.04,9.24c28.75,7.01,58.53,8.53,88.01,7.73c10.65-1.04,21.37-1.16,31.97-2.8
		c12.74-0.98,25.3-3.5,37.98-4.9c6.74-1.46,13.55-2.54,20.34-3.74c21.03-3.57,41.87-8.11,62.71-12.66
		c21.75-5.59,43.96-9.09,65.93-13.65C963.61,865.16,985.63,862.79,1007.63,860.54z"/>
	<path fill="#B33AE2" stroke="#B33AE2" stroke-width="0.0938" d="M1610.6,859.51c6.6801,0.09,13.36-0.89,20.04-0.15
		c-3.27,5.17-5.29,10.98-6.6,16.92c-9.3401,1.0099-18.74,0.89-28.0801,1.68c-27.99,1.85-55.6799,6.6-83.21,11.8
		c-11.66,2.06-23.1,5.24-34.8,6.95c-0.5299-0.38-1.58-1.15-2.11-1.53c1.01-5.65,2.65-11.15,4.29-16.64l0.22-0.03
		c9.8201-1.63,19.48-4.07,29.34-5.51c9.2401-2.13,18.5601-3.98,27.9901-5.13c11.4199-2.45,23.0499-3.78,34.62-5.36
		C1585.05,861.35,1597.76,859.48,1610.6,859.51z"/>
	<path fill="#93268F" stroke="#93268F" stroke-width="0.0938" d="M1595.96,877.96c9.3401-0.79,18.74-0.67,28.0801-1.68
		c-1.2101,6.17-0.65,12.72-1.88,18.75c-50.37,0.98-99.9501,10.91-149.0701,21.33c0.49-7.11,1.3-14.2,2.75-21.18
		c0.53,0.38,1.5801,1.15,2.11,1.53c11.7001-1.71,23.14-4.89,34.8-6.95C1540.28,884.56,1567.97,879.81,1595.96,877.96z"/>
	<path fill="#93268F" stroke="#93268F" stroke-width="0.0938" d="M1002.08,878.79c10.92-1.11,21.9-1.31,32.85-2.04
		c21.7999-0.52,43.6399,1.02,65.2,4.24c22.95,4.28,45.74,10.2,67.0599,19.84c17.39,7.32,35.3401,13.47,53.8501,17.27
		c27.1899,5.95,55.13,7.9,82.9099,7.12c22.12-1.29,44.2201-3.15,66.1001-6.7c12.0599-1.44,23.88-4.33,35.85-6.36
		c4.22-0.83,8.39-2.09,12.75-2.02c-4.4301,6.59-8.62,13.35-12.36,20.36c-45.79,8.94-92.51,15.49-139.27,12.44
		c-21.3-1.47-42.53-4.76-63.0601-10.68c-5.7799-6.91-12.6699-12.8-20.1-17.86c-3.89,2.35-7.7,4.8-11.67,7
		c-38.86-17.73-81.6299-26.07-124.24-26.28c-48.9199-0.41-97.2999,8.44-144.9899,18.5c-46.72,9.82-93.26,21.06-140.75,26.65
		c-50.77,6.16-103.34,4.9-152.26-11.2c-10.37-3.25-20.42-7.35-30.38-11.65c-14.04-5.83-28.56-10.39-43.32-14
		c6.25-3.96,12.22-8.34,17.22-13.83c8.11,3.55,16.79,5.5099,24.98,8.83c7.5,3.96,15.6,6.51,23.47,9.6
		c17.07,5.49,34.28,10.92,52.14,13.15c28.74,4.53,58,5.25,86.97,2.71c20.4399-1.33,40.74-4.28,60.8799-7.97
		c21.1801-3.65,42.23-8.08,63.2401-12.61c22.17-5.13,44.54-9.33,66.8-14.04C955.16,884.79,978.55,881.16,1002.08,878.79z"/>
	<path fill="#FC0101" stroke="#FC0101" stroke-width="0.0938" d="M433.38,944.61c51.09-3.9,103.59,2.63,150.79,23.24
		c38.85,17.02,81.41,24.4901,123.7,24.41c-1.89,5.94-3.93,11.82-6.31,17.58c-31.45-0.2401-62.86-5.1801-92.8-14.82
		c-0.08-1.16-0.16-2.31-0.24-3.43c-3.26,0.7599-6.61,1.05-9.95,1.04c0.03-0.34,0.08-1.01,0.11-1.35
		c-8.55-2.77-16.58-6.85-24.97-10.01c-34.56-13.45-71.71-19.67-108.72-19.88c-23.32-0.33-46.63,1.54-69.71,4.76
		c-7.33,0.8199-14.56,2.68-21.98,2.56c8.87-7.98,20.69-11.01,31.78-14.51C414.65,951.42,424.09,948.2,433.38,944.61z"/>
	<path fill="#FC0101" stroke="#FC0101" stroke-width="0.0938" d="M1010.89,944.93c34.49-2.6,69.51-1.68,103.36,5.9
		c-9.34,4.55-19.22,7.87-28.97,11.41c-1.5601,0.44-3.0801,1.29-4.72,1.17c-11.41-1.74-23.01-1.89-34.53-1.99
		c-50.32-0.41-99.95,9.36-148.97,19.68c-6.62,1.28-13.27,3.52-20.09,2.62c-10.48-1.5-20.85-3.73-31.08-6.45
		c-0.75-0.39-2.26-1.17-3.02-1.56c9.24-2.81,18.92-3.81,28.16-6.63C917.22,958.84,963.65,948.78,1010.89,944.93z"/>
	<path fill="#FC0101" stroke="#FC0101" stroke-width="0.0938" d="M1535.63,952.46c23.71-3.93,47.58-7.41,71.63-8.22
		c-3.08,6.19-6.83,12.03-9.83,18.27L1597,962.53c-40.98,2.74-81.29,11.15-121.4301,19.41c-0.21-5.77-0.0299-11.57-0.9099-17.29
		C1494.87,960.03,1515.22,956.09,1535.63,952.46z"/>
	<path fill="#F8931F" stroke="#F8931F" stroke-width="0.0938" d="M395.28,966.15c23.08-3.22,46.39-5.09,69.71-4.76
		c37.01,0.21,74.16,6.43,108.72,19.88c8.39,3.16,16.42,7.24,24.97,10.01c-0.03,0.34-0.08,1.0099-0.11,1.35l-0.06,0.78
		c-7.63,1.07-15.11,2.97-22.58,4.84c-2.15,0.27-4.32-0.01-6.33-0.77c-27.44-10.17-56.45-15.88-85.62-17.71
		c-33.55-1.96-67.22,0.59-100.38,5.76c-6.54,0.84-12.98,2.35-19.54,3.04c0.51-2.55,1.02-5.1,1.71-7.6
		c1.42-4.67,4.3-8.68,7.53-12.2599C380.72,968.83,387.95,966.97,395.28,966.15z"/>
	<path fill="#F8931F" stroke="#F8931F" stroke-width="0.0938" d="M897.06,981.1c49.02-10.3199,98.65-20.09,148.97-19.68
		c11.52,0.1,23.12,0.25,34.53,1.99c-8.0601,3.6201-16.77,5.47-25.2201,7.95c-9.11,2.44-18.2799,4.62-27.5399,6.38
		c-0.17,0.11-0.51,0.31-0.6801,0.42c-11.52,1.54-22.98,4.26-34.63,4.45c0.05,0.24,0.14,0.73,0.19,0.98
		c-5.92-0.08-11.84,0.73-17.67,1.6299c-23.93,2.03-48.03,3.05-72.02,1.3701c-13.77-0.4301-27.51-2.02-40.97-5.02
		c-7.74-1.75-15.63-3.04-23.08-5.81c10.67-2.33,21.32-4.87,32.09-6.68c-9.2401,2.82-18.92,3.82-28.16,6.63
		c0.76,0.39,2.27,1.17,3.02,1.56c10.23,2.72,20.6,4.95,31.08,6.45C883.79,984.62,890.44,982.38,897.06,981.1z"/>
	<path fill="#F8931F" stroke="#F8931F" stroke-width="0.0938" d="M1475.5699,981.94c40.14-8.26,80.4501-16.67,121.4301-19.41
		c-2.01,6-4.78,11.73-6.3199,17.89c-21.12,2.4-42.2401,4.98-63.12,8.96c-11.5,2.22-23.04,4.2-34.4701,6.78
		c-5.8099,1.33-11.7899,2.03-17.4199,4.04l-1.2201,0.43C1475.9,994.5,1475.41,988.17,1475.5699,981.94z"/>
	<path fill="#FC0101" stroke="#FC0101" stroke-width="0.0938" d="M1384.02,983.12c13.36-2.31,26.6699-4.95,39.96-7.64
		c1.55,0.01,3.88-1.23,4.91,0.53c2.96,4.54,5.61,9.29,8.86,13.65c-7.61,2.9301-15.8101,3.71-23.6899,5.6
		c-27.52,5.37-55.1901,10.21-83.1201,12.81c-30.0099,2.53-60.4399,2.93-90.2599-1.8c-2.02-6.28-5.75-12.12-6.53-18.72
		C1283.8101,996.22,1334.67,991.69,1384.02,983.12z"/>
	<path fill="#FCEE21" stroke="#FCEE21" stroke-width="0.0938" d="M383.6,985.53c33.16-5.17,66.83-7.72,100.38-5.76
		c29.17,1.83,58.18,7.54,85.62,17.71c2.01,0.76,4.1801,1.04,6.33,0.77c-11.86,2.82-23.59,6.8-35.74,7.96
		c-27.1-7.13-55.24-9.58-83.19-9.62c-7.7-0.2-15.33,1.12-23.03,1.03c-23.69,1.4-47.21,4.87-70.57,9c-0.05,1.1-0.09,2.21-0.14,3.34
		l-0.18,1.06c-1.15-10.06-0.88-20.46,2.69-30.05c-0.69,2.5-1.2,5.05-1.71,7.6C370.62,987.88,377.06,986.37,383.6,985.53z"/>
	<path fill="#FCEE21" stroke="#FCEE21" stroke-width="0.0938" d="M1527.5601,989.38c20.8799-3.98,42-6.56,63.12-8.96
		c-0.8301,6-0.8401,12.04-0.1101,18.05c-33.1499,2.6201-65.9199,8.79-98.45,15.53c-6.64,1.35-13.22,3.07-19.95,3.89
		c-0.2001-4.45,1.72-8.54,2.09-12.91c0.25-1.64,0.04-3.56,1.41-4.78c5.63-2.01,11.61-2.71,17.4199-4.04
		C1504.52,993.58,1516.0601,991.6,1527.5601,989.38z"/>
	<path fill="#F8931F" stroke="#F8931F" stroke-width="0.0938" d="M1437.75,989.66c3.61,5.55,8.41,10.26,12.53,15.33l-0.26,0.54
		c-44.26,9.22-88.72,18.76-133.99,21.34c-22.02,1.6901-44.14,0.7-66.1-1.3099c-0.25-0.1001-0.7401-0.28-0.9801-0.38
		c-3.08-6.15-5.6499-12.55-8.2699-18.91c29.8199,4.73,60.25,4.33,90.2599,1.8c27.9301-2.6,55.6001-7.44,83.1201-12.81
		C1421.9399,993.37,1430.14,992.59,1437.75,989.66z"/>
	<path fill="#F8931F" stroke="#F8931F" stroke-width="0.0938" d="M606.43,1011.53c1.02-5.48,1.11-11.07,2.33-16.51
		c29.94,9.64,61.35,14.58,92.8,14.82c-2.79,6.12-5.71,12.27-9.95,17.54c-23.72-1.0699-47.35-4.54-70.25-10.86
		C616.33,1015.03,611.17,1013.85,606.43,1011.53z"/>
	<path fill="#02FE02" stroke="#02FE02" stroke-width="0.0938" d="M363.4,1006.62c23.36-4.13,46.88-7.6,70.57-9
		c7.7,0.09,15.33-1.23,23.03-1.03c27.95,0.04,56.09,2.49,83.19,9.62c-15.19,3.2-30.8,2.11-46.21,2.6c-3.27,0.67-6.61,0.46-9.92,0.55
		c-11.77,0.17-23.68,1.59-34.7,5.89c-5.35-1.9-10.88,0.23-16.31,0.27c-12.83,0.05-25.43,3.35-38.28,2.97
		c1.82,0.32,3.65,0.63,5.48,0.96c-11.62-0.2-22.94,2.87-34.4,4.31l-0.09,0.01c-1.04-4.56-2.15-9.13-2.5-13.81
		C363.31,1008.83,363.35,1007.72,363.4,1006.62z"/>
	<path fill="#02FE02" stroke="#02FE02" stroke-width="0.0938" d="M1492.12,1014c32.53-6.74,65.3-12.91,98.45-15.53l0.67-0.0099
		c0.14,1.17,0.3,2.36,0.48,3.56c1.7101,4.48,4,8.75,5.37,13.37c-11.2799,1.18-22.6,2.05-33.8199,3.74
		c-4.78,0.81-9.59,1.36-14.4301,1.48c0.61,0.21,1.8201,0.63,2.42,0.83c-4.11-0.01-8.2,0.48-12.2,1.36
		c-21.14,3.47-42.16,7.66-63.0601,12.39c-1.6801,0.3201-3.36,0.64-5.01,1c-1,0.1801-1.97,0.38-2.9299,0.5901
		c-26.26,5.95-52.63,11.51-79.1101,16.4099c-22.85,3.8501-45.7999,7.5-68.95,8.8401c-7.01,0.98-14.17-0.3-21.11,1.2
		c-5.6,0.3-11.21,0.29-16.8,0c-3.52-0.91-7.1599-0.72-10.74-0.76c-4.38-5.65-8.1699-12.0699-12-18.21
		c6.88-0.0601,13.73,0.72,20.59,1.14c12.6801,0.01,25.4,0.4399,38.04-0.91c50.67-3.25,100.3101-14.64,149.8301-25.26
		c-0.3501-0.51-1.03-1.53-1.38-2.04c0.2999,0.38,0.8899,1.13,1.1799,1.5c1.41-0.21,2.84-0.46,4.27-0.76
		c0.0699-0.01,0.22-0.03,0.29-0.04C1478.9,1017.07,1485.48,1015.35,1492.12,1014z"/>
	<path fill="#FCEE21" stroke="#FCEE21" stroke-width="0.0938" d="M1316.03,1026.87c45.27-2.58,89.73-12.12,133.99-21.34l1,0.1899
		c4.91,4,10.0699,7.95,15.41,11.47c0.35,0.51,1.0299,1.53,1.38,2.04c-49.52,10.62-99.16,22.01-149.8301,25.26
		c-12.64,1.35-25.36,0.92-38.04,0.91c-6.86-0.42-13.71-1.2001-20.59-1.14c-3.27-6.15-7.89-11.8101-9.4199-18.7
		C1271.89,1027.5699,1294.01,1028.5601,1316.03,1026.87z"/>
	<path fill="#FCEE21" stroke="#FCEE21" stroke-width="0.0938" d="M605.33,1029.39c-0.22-5.99,0.52-11.93,1.1-17.86
		c4.74,2.3199,9.9,3.5,14.93,4.99c22.9,6.32,46.53,9.79,70.25,10.86c-1.1,1.65-2.47,3.46-1.71,5.5699
		c1.02,4.6801-0.12,9.42-1.48,13.91c-0.28-0.5699-0.84-1.7-1.12-2.26c-10.16,0.03-20.2-1.61-30.25-2.8099
		c-10.09-1.3501-19.95-3.99-29.98-5.64c0.94-0.1,1.9-0.1901,2.86-0.25c-4.79-0.73-9.26-2.77-14.06-3.4601
		c3.43,1.02,6.91,1.9,10.29,3.1101c-4.3799-0.8-8.6-2.2101-12.85-3.5c0.48-0.0601,0.97-0.1001,1.46-0.13
		C611.6,1031.13,608.47,1030.24,605.33,1029.39z"/>
	<path fill="#2B52DF" stroke="#2B52DF" stroke-width="0.0938" d="M433.05,1015.52c5.43-0.04,10.96-2.17,16.31-0.27
		c-6.58,3.78-14.13,9.49-14.17,17.8101c-4.72-1.17-9.47,0.36-14.21,0.5299c-16.49,1.63-33.1,2.85-49.23,6.91
		c-2.29-5.46-4.35-11.02-5.9-16.74c11.46-1.44,22.78-4.51,34.4-4.31c-1.83-0.33-3.66-0.64-5.48-0.96
		C407.62,1018.87,420.22,1015.57,433.05,1015.52z"/>
	<path fill="#2B52DF" stroke="#2B52DF" stroke-width="0.0938" d="M1563.27,1019.13c11.22-1.69,22.54-2.56,33.8199-3.74l0.5601-0.07
		c2.37,5.46,4.62,11.0099,5.7899,16.89c-41.2899,2.3-82.0699,10.02-122.4099,18.8401c-6.5701,1.59-13.4501,1.71-19.76,4.36
		c-10.66,2.5299-21.37,4.88-32.16,6.8199c-10.03,1.84-19.91,4.47-30.01,5.9401c-2,0.3099-3.78,1.2699-5.5599,2.1499
		c-4.4701-3.97-8.9301-7.9399-13.51-11.7599c-0.04,3.3099-0.61,6.75,0.28,10c1.11,1.0199,2.3999,1.8799,3.62,2.83
		c-12.6801,1.14-25.15,3.9399-37.8201,5.1c-20.88,2.61-41.89,3.7-62.91,3.8c-3.9199-5.9601-8.21-11.6901-11.85-17.8201
		c3.5801,0.04,7.22-0.15,10.74,0.76c5.5901,0.29,11.2001,0.3,16.8,0c6.9399-1.5,14.1-0.22,21.11-1.2
		c23.15-1.3401,46.1-4.99,68.95-8.8401c26.4801-4.8999,52.8501-10.46,79.1101-16.4099c0.96-0.2101,1.9299-0.41,2.9299-0.5901
		c1.65-0.36,3.33-0.6799,5.01-1c20.9-4.73,41.92-8.9199,63.0601-12.39c4-0.88,8.09-1.37,12.2-1.36c-0.6-0.2-1.8101-0.62-2.42-0.83
		C1553.6801,1020.49,1558.49,1019.94,1563.27,1019.13z"/>
	<path fill="#02FE02" stroke="#02FE02" stroke-width="0.0938" d="M604.55,1029.17c0.2,0.0599,0.59,0.1599,0.78,0.22
		c3.14,0.85,6.27,1.74,9.44,2.53c-0.49,0.0299-0.98,0.0699-1.46,0.13c4.25,1.2899,8.47,2.7,12.85,3.5
		c-3.3799-1.2101-6.86-2.0901-10.29-3.1101c4.8,0.6901,9.27,2.7301,14.06,3.4601c-0.96,0.0599-1.92,0.15-2.86,0.25
		c10.03,1.65,19.89,4.2899,29.98,5.64c10.05,1.2,20.09,2.84,30.25,2.8099c0.28,0.5601,0.84,1.6901,1.12,2.26
		c-0.29,0.59-0.88,1.79-1.17,2.38c-1.47,2.87-2.95,5.74-4.5,8.58c-0.56,1.29-1.13,2.5901-1.67,3.91
		c-6.09,0.28-12.05-1.14-18.09-1.47c-3.39-0.3101-6.76-0.67-10.08-1.39c-9.02-1.74-18.05-3.4-26.96-5.67
		c-6.9-1.8099-13.61-4.2999-20.55-5.9099c-0.75-0.6801-1.48-1.3301-2.21-1.98C603.49,1039.91,604.04,1034.55,604.55,1029.17z"/>
	<path fill="#B33AE2" stroke="#B33AE2" stroke-width="0.0938" d="M1481.03,1051.05c40.34-8.8201,81.12-16.54,122.4099-18.8401
		c0.9401,5.65,1.67,11.3401,2.04,17.0801c-11.78,1.4399-23.66,1.9199-35.4299,3.4299c-13.4301,2.0701-26.89,3.92-40.29,6.15
		c-18.9,3.77-37.83,7.37-56.65,11.54c-22.1899,4.25-44.04,10.15-66.35,13.75c-3.97-5.01-8.5601-9.49-13.22-13.8401
		c1.7799-0.88,3.5599-1.84,5.5599-2.1499c10.1-1.4701,19.98-4.1001,30.01-5.9401c10.79-1.9399,21.5-4.29,32.16-6.8199
		C1467.58,1052.76,1474.46,1052.64,1481.03,1051.05z"/>
	<path fill="#B33AE2" stroke="#B33AE2" stroke-width="0.0938" d="M420.98,1033.59c4.74-0.1699,9.49-1.7,14.21-0.5299
		c0.46,2.9299,1.01,5.86,1.17,8.84c-0.08,2.53,0.38,5.27-0.65,7.6699c-3.83,0.9601-7.81,0.7201-11.71,1.03
		c-15.23,1.29-30.31,3.8-45.5,5.47c-2.4-5.13-4.71-10.2899-6.75-15.5699C387.88,1036.4399,404.49,1035.22,420.98,1033.59z"/>
	<path fill="#93268F" stroke="#93268F" stroke-width="0.0938" d="M436.36,1041.9c0.85,8.6,2.5,17.1,3.99,25.62
		c-17.6-0.1-34.86,3.78-52.37,4.97c0.34,2.55,0.7,5.15,1.67,7.5701c-3.73-7.9901-7.36-16.03-11.15-23.9901
		c15.19-1.6699,30.27-4.1799,45.5-5.47c3.9-0.3099,7.88-0.0699,11.71-1.03C436.74,1047.17,436.28,1044.4301,436.36,1041.9z"/>
	<path fill="#2B52DF" stroke="#2B52DF" stroke-width="0.0938" d="M603.19,1045.3101c0.73,0.6499,1.46,1.2999,2.21,1.98
		c6.94,1.61,13.65,4.1,20.55,5.9099c8.91,2.27,17.94,3.9301,26.96,5.67c3.32,0.72,6.69,1.08,10.08,1.39
		c6.04,0.33,12,1.75,18.09,1.47c-2.5,5.38-3.79,11.2001-4.88,17c-20.22-2.15-40.46-5.1799-59.91-11.26
		c-4.92-1.5-9.77-3.22-14.78-4.4C601.91,1057.14,602.39,1051.2,603.19,1045.3101z"/>
	<path fill="#93268F" stroke="#93268F" stroke-width="0.0938" d="M1570.05,1052.72c11.7699-1.51,23.6499-1.99,35.4299-3.4299
		c0.49,6.0699,0.88,12.1699,0.9401,18.2799c-12.9-0.2-25.5601,2.4301-38.3501,3.63c-10.7799,0.5901-21.37,2.78-31.98,4.5901
		c-23.2799,3.21-45.99,9.36-69.0399,13.7799c-8.3201,2.2301-16.8601,3.39-25.1801,5.5801c-7.8099,1.99-15.91,2.71-23.61,5.0699
		c-0.49,4.02,0.95,7.9401,1.63,11.88c-2.22-10.15-6.62-19.8199-13.13-27.9399c22.3099-3.6,44.16-9.5,66.35-13.75
		c18.8201-4.17,37.75-7.77,56.65-11.54C1543.16,1056.64,1556.62,1054.79,1570.05,1052.72z"/>
	<path fill="#B33AE2" stroke="#B33AE2" stroke-width="0.0938" d="M601.51,1063.0699c5.01,1.1801,9.86,2.9,14.78,4.4
		c19.45,6.0801,39.69,9.11,59.91,11.26c-0.86,7.0701-1.31,14.1901-2,21.29c0.02-1.35,0.05-2.6901,0.07-4.01
		c-6.48-0.23-12.83-1.58-19.26-2.23c-6.72-0.5601-13.16-2.66-19.74-3.9401c-11.99-2.4199-23.67-6.14-35.21-10.15
		C600.46,1074.14,600.92,1068.6,601.51,1063.0699z"/>
	<path fill="#FC0101" stroke="#FC0101" stroke-width="0.0938" d="M440.35,1067.52h0.11c1.14,6.5,3.22,12.79,4.44,19.27
		c-0.2-0.4301-0.61-1.29-0.82-1.7201c-16.87,0.3601-33.67,2.27-50.38,4.54c-1.28-3.22-2.69-6.38-4.05-9.5499
		c-0.97-2.42-1.33-5.02-1.67-7.5701C405.49,1071.3,422.75,1067.42,440.35,1067.52z"/>
	<path fill="#FC0101" stroke="#FC0101" stroke-width="0.0938" d="M1568.0699,1071.2c12.79-1.2,25.4501-3.83,38.3501-3.63
		c-0.0901,6.1001,0.1499,12.2401-0.7001,18.3101c-8.01-1.04-16.0399,0.55-24.02,1.1801c-47.5,4.7599-94.0299,15.7799-140.63,25.7
		c-6.73,1.61-13.6,2.6-20.23,4.5699c-0.3199-1.76-0.6-3.51-0.95-5.23c-0.6801-3.9399-2.12-7.86-1.63-11.88
		c7.7-2.36,15.8-3.08,23.61-5.0699c8.3199-2.1901,16.86-3.35,25.1801-5.5801c23.0499-4.4199,45.76-10.5699,69.0399-13.7799
		C1546.7,1073.98,1557.29,1071.79,1568.0699,1071.2z"/>
	<path fill="#B33AE2" stroke="#B33AE2" stroke-width="0.0938" d="M1346.11,1076.49c12.67-1.16,25.14-3.96,37.8201-5.1
		c4.46,3.88,7.1599,9.3199,9.2799,14.75c-6.3999,3.23-13.77,2.76-20.63,4.28c-19,3.6499-38.2999,5.11-57.5599,6.63
		c-7.1,0.33-14.3101,1.1799-21.34-0.26l-0.3101-0.0601c-3.0599-5.6799-6.6899-11.02-10.17-16.4399
		C1304.22,1080.1899,1325.23,1079.1,1346.11,1076.49z"/>
	<path fill="#93268F" stroke="#93268F" stroke-width="0.0938" d="M600.06,1079.6899c11.54,4.01,23.22,7.7301,35.21,10.15
		c6.58,1.28,13.02,3.38,19.74,3.9401c6.43,0.65,12.78,2,19.26,2.23c-0.02,1.3199-0.05,2.66-0.07,4.01
		c-0.22,4.85-1.06,9.64-1.66,14.46l-0.15-0.03c-7-1.71-14.28-1.6799-21.29-3.34c-12.99-2.33-25.9-5.22-38.47-9.27
		c-4.65-1.3199-9.05-3.8099-14-3.75c-0.11,0.49-0.31,1.4601-0.42,1.9401C598.76,1093.24,599.41,1086.47,600.06,1079.6899z"/>
	<path fill="#F8931F" stroke="#F8931F" stroke-width="0.0938" d="M393.7,1089.61c16.71-2.27,33.51-4.1799,50.38-4.54
		c0.21,0.4301,0.62,1.29,0.82,1.7201c2.1,5.14,3.6,10.51,5.28,15.7999c-16.74-0.09-33.4,2.02-50.02,3.8101
		C397.92,1100.83,395.81,1095.22,393.7,1089.61z"/>
	<path fill="#93268F" stroke="#93268F" stroke-width="0.0938" d="M1372.58,1090.42c6.86-1.52,14.2301-1.05,20.63-4.28
		c2.3301,5.77,4.15,11.77,6.92,17.37c-23.55,4.33-47.21,8.15-71.08,10.24c-5.6901,0.51-11.4,0.88-17.1101,0.78
		c-2.9299-0.0901-5.85,0.1699-8.6299,1.0599c-2.89-6.4399-6.29-12.61-9.63-18.7999c7.0299,1.4399,14.24,0.59,21.34,0.26
		C1334.28,1095.53,1353.58,1094.0699,1372.58,1090.42z"/>
	<path fill="#F8931F" stroke="#F8931F" stroke-width="0.0938" d="M1581.7,1087.0601c7.9801-0.63,16.01-2.2201,24.02-1.1801
		c0.03,5.8099-1.0699,11.53-1.77,17.29c-23.1599,0.8099-46.13,4.34-68.97,8.08c-74.51,12.99-147.65,35.13-223.53,39.23
		c-0.83-5.9399-1.5299-11.88-2.3099-17.8199c25.83-0.9701,51.52-4.4401,76.96-8.9301c9.87-1.9299,19.9301-3.15,29.59-6.0599
		c1.7101,0.0299,3.42-0.0801,5.15-0.3401c6.63-1.97,13.5-2.96,20.23-4.5699C1487.67,1102.84,1534.2,1091.8199,1581.7,1087.0601z"/>
	<path fill="#FC0101" stroke="#FC0101" stroke-width="0.0938" d="M598.63,1098.09c4.95-0.0599,9.35,2.4301,14,3.75
		c12.57,4.05,25.48,6.9401,38.47,9.27c7.01,1.66,14.29,1.63,21.29,3.34c-0.96,5.64-2.96,11.01-5.11,16.29l-0.26-0.02
		c-24.05-2.36-47.71-8.35-70.32-16.83c0.83-4.59,0.76-9.27,1.51-13.86C598.32,1099.55,598.52,1098.58,598.63,1098.09z"/>
	<path fill="#FCEE21" stroke="#FCEE21" stroke-width="0.0938" d="M400.16,1106.4c16.62-1.79,33.28-3.9,50.02-3.8101
		c2.09,5.75,5.09,11.2201,6.51,17.1901c-8.87,0.96-17.83,0.15-26.67,1.4099c-7.61,0.42-15.18,1.51-22.82,1.5801
		C404.15,1117.66,402.53,1111.84,400.16,1106.4z"/>
	<path fill="#FCEE21" stroke="#FCEE21" stroke-width="0.0938" d="M1534.98,1111.25c22.84-3.74,45.8101-7.27,68.97-8.08
		c-0.62,6.5299-2.3099,12.88-3.7699,19.26c-0.89-1.6901-3.02-0.9701-4.53-1.1001c-15.3101,0.7301-30.48,3.0701-45.65,5.14
		c-9.58,1.67-19.25,2.86-28.71,5.12c-1.3501-2.96-3.5901-5.33-6-7.4399c-10.0701,0.26-18.5801,6.6799-25.0801,13.83l-0.36,0.04
		c-7.9199,0.91-15.61,3.1699-23.4299,4.6799c-48.36,10.55-96.9301,21.25-146.41,24.88c-2.86,0.12-5.71,0.15-8.55,0.2101
		c-0.0599-5.77,0.1801-11.55-0.01-17.3101C1387.33,1146.38,1460.47,1124.24,1534.98,1111.25z"/>
	<path fill="#FC0101" stroke="#FC0101" stroke-width="0.0938" d="M1329.05,1113.75c23.87-2.09,47.5299-5.91,71.08-10.24
		c3.04,6.5699,8.46,12.12,15.5599,14.16c-9.6599,2.9099-19.72,4.13-29.59,6.0599c-25.4399,4.49-51.13,7.96-76.96,8.9301l-0.4,0.02
		c-1.12-5.9-3.22-11.54-5.4299-17.0901c2.7799-0.89,5.7-1.15,8.6299-1.0599C1317.65,1114.63,1323.36,1114.26,1329.05,1113.75z"/>
	<path fill="#F8931F" stroke="#F8931F" stroke-width="0.0938" d="M596.7,1113.89c22.61,8.48,46.27,14.47,70.32,16.83
		c-2.66,6.1801-7.01,11.38-10.87,16.8401l-0.54-0.13c-12.58-2.6801-25.27-4.9701-37.63-8.62c-7.37-1.9-14.31-5.2001-21.73-6.91
		c-0.4-0.16-1.18-0.48-1.57-0.64C595.57,1125.49,596.21,1119.6899,596.7,1113.89z"/>
	<path fill="#02FE02" stroke="#02FE02" stroke-width="0.0938" d="M430.02,1121.1899c8.84-1.2599,17.8-0.45,26.67-1.4099l0.64-0.0601
		c0.5,1.1,1.01,2.2101,1.52,3.3401c1.35,2.6499,2.65,5.33,3.97,8.0099c0.67,1.3301,1.32,2.6801,1.95,4.0601
		c0.44,0.79,0.89,1.59,1.34,2.4c-6.72,0.3099-13.46-0.16-20.17,0.38c-6.77,0.7-13.58,0.59-20.37,0.62
		c0,0.26,0.01,0.7899,0.01,1.0499c-4.24-0.11-8.48,0.13-12.65,0.87c-1.51-6.0299-4.34-11.6399-5.73-17.6799
		C414.84,1122.7,422.41,1121.61,430.02,1121.1899z"/>
	<path fill="#02FE02" stroke="#02FE02" stroke-width="0.0938" d="M1595.65,1121.33c1.51,0.13,3.64-0.59,4.53,1.1001
		c-0.3401,1.21-0.67,2.4399-0.9901,3.6799c-1.3799,4.46-2.8199,8.9-4.4099,13.3c-12.02-0.03-23.8401,2.4-35.79,3.37
		c-8.29,1.48-16.64,2.6599-24.96,3.99c-4.11,0.98-8.29,1.58-12.49,1.9199c0.6699-4.2,1-8.45,0.6499-12.6899
		c-0.37-1.46-0.6599-2.9399-0.8999-4.41c9.46-2.26,19.13-3.45,28.71-5.12C1565.17,1124.4,1580.34,1122.0601,1595.65,1121.33z"/>
	<path fill="#FCEE21" stroke="#FCEE21" stroke-width="0.0938" d="M596.25,1131.9c7.42,1.71,14.36,5.01,21.73,6.91
		c12.36,3.6499,25.05,5.9399,37.63,8.62c-2.25,3.99-5.18,7.5699-7.18,11.72c-0.82,1.1799-1.13,2.9399-2.58,3.5599
		c-18.27-2.73-35.95-8.48-53.2599-14.7899c1.0099-5.14,1.58-10.36,1.89-15.5801C594.92,1132.23,595.81,1132.01,596.25,1131.9z"/>
	<path fill="#02FE02" stroke="#02FE02" stroke-width="0.0938" d="M1466.42,1142.7c7.8199-1.51,15.51-3.7699,23.4299-4.6799
		c-6.09,7.0699-11.63,14.61-17.9,21.53l-0.3999,0.0499c-2.87,0.38-5.7101,0.85-8.5,1.5701
		c-27.9601,6.0199-55.92,12.08-84.1001,16.95c-6,0.6801-11.8899,2.12-17.8999,2.6901c-11.63,1.73-23.29,3.2899-35.04,3.83
		c-6.1901,1.0599-12.46,1.0599-18.7,1.03c1.35-5.5901,3.1599-11.13,3.37-16.92c0.2-0.24,0.59-0.72,0.7799-0.96
		c2.8401-0.0601,5.6901-0.0901,8.55-0.2101C1369.49,1163.95,1418.0601,1153.25,1466.42,1142.7z"/>
	<path fill="#2B52DF" stroke="#2B52DF" stroke-width="0.0938" d="M425.57,1138.53c6.79-0.03,13.6,0.08,20.37-0.62
		c6.71-0.54,13.45-0.0701,20.17-0.38c3.13,5.45,6.15,10.97,9.55,16.26c-5.11,1.37-10.42,0.5699-15.62,0.73
		c-14.4-0.38-28.71,1.54-43.08,2.16c-1.19-5.4501-2.34-10.92-4.03-16.2301c4.17-0.74,8.41-0.98,12.65-0.87
		C425.58,1139.3199,425.57,1138.79,425.57,1138.53z"/>
	<path fill="#2B52DF" stroke="#2B52DF" stroke-width="0.0938" d="M1558.99,1142.78c11.95-0.97,23.77-3.4,35.79-3.37
		c-2.29,5.8099-4.86,11.52-7.87,17.01c-12.74,0.8099-25.3201,3.0599-37.9501,4.7899c-6.6599,0.86-13.21,2.9301-19.98,2.3501
		c1.62,0.2,3.27,0.4199,4.9301,0.6599c-4.86,0.65-9.6901,1.4501-14.5,2.3301c-0.28,0.0499-0.8301,0.1399-1.1,0.1899
		c-1.28-6.2,2.48-11.98,3.23-18.05c4.2-0.34,8.38-0.9399,12.49-1.9199C1542.35,1145.4399,1550.7,1144.26,1558.99,1142.78z"/>
	<path fill="#02FE02" stroke="#02FE02" stroke-width="0.0938" d="M591.13,1158.03c0.49-3.37,1.05-6.73,1.46-10.11
		c17.31,6.3099,34.99,12.0599,53.2599,14.7899c-0.18,0.8101-0.35,1.63-0.5099,2.48c-0.79,1.6101-1.51,3.26-2.21,4.9401
		c-1.23,3.1801-2.42,6.38-3.54,9.61c-16.82-3.95-33.47-8.76-49.5-15.27C590.37,1162.3,590.6,1160.14,591.13,1158.03z"/>
	<path fill="#B33AE2" stroke="#B33AE2" stroke-width="0.0938" d="M475.66,1153.79c4.02,6.5,8.16,12.9399,12.66,19.13
		c-5.11,0.38-10.18-0.53-15.27-0.52c-12.03-0.02-24.07-0.25-36.07,0.6799c-5.35,0.42-10.72,0.63-16.08,0.53
		c-0.42-2.39-0.8-4.78-1.71-7.02c-1.24-3.1799-1.59-6.6-2.23-9.9099c14.37-0.62,28.68-2.54,43.08-2.16
		C465.24,1154.36,470.55,1155.16,475.66,1153.79z"/>
	<path fill="#B33AE2" stroke="#B33AE2" stroke-width="0.0938" d="M1548.96,1161.21c12.63-1.73,25.2101-3.98,37.9501-4.7899
		c-3.9301,7.1599-8.66,13.9099-14.28,19.86c-3.22-0.05-6.4401,0.13-9.6,0.72c-8.66,1.45-17.4401,2.22-26.04,4.04
		c-3.5699,0.7799-7.21,1.13-10.84,1.26c-1.88-5.39-3.53-10.9701-6.74-15.75c4.8099-0.88,9.64-1.6801,14.5-2.3301
		c-1.66-0.24-3.3101-0.46-4.9301-0.6599C1535.75,1164.14,1542.3,1162.0699,1548.96,1161.21z"/>
	<path fill="#2B52DF" stroke="#2B52DF" stroke-width="0.0938" d="M1463.05,1161.17c2.7899-0.7201,5.63-1.1901,8.5-1.5701
		c-5.65,6.9401-11.25,13.9601-17.0901,20.7101c-9.0499,0.8099-17.7799,3.47-26.6499,5.25c-14.8,3.11-29.7401,5.5499-44.53,8.7
		c-7.6801,1.73-15.5701,2.0699-23.3101,3.4299c-17.26,2.3601-34.62,3.9-52,4.9901c-2.47-0.01-5.34,0.46-7.28-1.4
		c2.29-5.17,4.8301-10.23,6.6201-15.61c6.24,0.0299,12.5099,0.0299,18.7-1.03c11.75-0.54,23.41-2.1,35.04-3.83
		c6.01-0.5701,11.8999-2.01,17.8999-2.6901C1407.13,1173.25,1435.09,1167.1899,1463.05,1161.17z"/>
	<path fill="#2B52DF" stroke="#2B52DF" stroke-width="0.0938" d="M590.09,1164.47c16.03,6.51,32.68,11.3201,49.5,15.27
		c-1.58,5.34-3.26,10.65-4.83,15.99c-15.94-4.1-31.91-8.54-46.87-15.51c-0.05-0.73-0.13-2.2-0.17-2.9299l-0.03-0.41
		C588.51,1172.74,589.21,1168.59,590.09,1164.47z"/>
	<path fill="#93268F" stroke="#93268F" stroke-width="0.0938" d="M419.19,1166.59c0.91,2.24,1.29,4.63,1.71,7.02
		c5.36,0.1,10.73-0.11,16.08-0.53c12-0.9299,24.04-0.7,36.07-0.6799c5.09-0.01,10.16,0.9,15.27,0.52
		c1.01,1.5399,2.46,3.09,2.18,5.11c-0.38,4.61-0.28,9.25,0.33,13.85c-21.97-1.8199-44.05-1.28-66.01,0.27
		C421.85,1183.9301,420.33,1175.23,419.19,1166.59z"/>
	<path fill="#93268F" stroke="#93268F" stroke-width="0.0938" d="M1563.03,1177c3.1599-0.59,6.38-0.77,9.6-0.72
		c-9.39,10.1-21.39,17.6899-34.42,22.1599c-2.11,0.76-3.96-1.08-5.39-2.35c-3.59-3.7899-5.0399-8.97-6.6699-13.7899
		c3.63-0.13,7.27-0.4801,10.84-1.26C1545.59,1179.22,1554.37,1178.45,1563.03,1177z"/>
	<path fill="#B33AE2" stroke="#B33AE2" stroke-width="0.0938" d="M586.66,1180.99c0.34-1.2-0.27-3.21,1.06-3.7
		c0.04,0.73,0.1201,2.2,0.17,2.9299c14.96,6.97,30.93,11.41,46.87,15.51c-1.19,4.17-2.11,8.4301-3.56,12.52
		c-1.08,1.3199-1.97,3.73-4.11,2.9301c-7.59-1.62-14.92-4.28-22.28-6.7201c-6.92-2.48-13.94-4.7899-20.48-8.1799
		c0.08-1.79,0.16-3.5601,0.31-5.3101C585.08,1187.59,586.3,1184.37,586.66,1180.99z"/>
	<path fill="#B33AE2" stroke="#B33AE2" stroke-width="0.0938" d="M1427.8101,1185.5601c8.87-1.78,17.6-4.4401,26.6499-5.25
		c-4.8999,6.73-9.97,13.3899-15.27,19.7999c-9.7799,3.3-20,5.22-30.1599,6.96c-39.22,7.6901-79,14.4701-119.11,13.38
		c0.14-1.24,0.3199-2.4199,0.5399-3.62c3.37-5.1599,7.03-10.3199,10.23-15.5499c1.9401,1.86,4.8101,1.39,7.28,1.4
		c17.38-1.0901,34.74-2.63,52-4.9901c7.74-1.36,15.63-1.7,23.3101-3.4299C1398.0699,1191.11,1413.01,1188.67,1427.8101,1185.5601z"
		/>
	<path fill="#93268F" stroke="#93268F" stroke-width="0.0938" d="M578.44,1212.46c2.39-7.0699,4.34-14.27,6.2-21.49
		c-0.15,1.75-0.23,3.52-0.31,5.3101c6.54,3.39,13.56,5.7,20.48,8.1799c7.36,2.4401,14.69,5.1001,22.28,6.7201
		c2.14,0.7999,3.03-1.6101,4.11-2.9301c-1.78,7.01-3.59,14.01-5.53,20.98C609.44,1225.17,593.7,1219.29,578.44,1212.46z"/>
	<path fill="#93268F" stroke="#93268F" stroke-width="0.0938" d="M1409.03,1207.0699c10.1599-1.74,20.38-3.6599,30.1599-6.96
		c-5.34,7.58-10.84,15.09-16.47,22.4401c-6.39,1.9299-13.08,2.7699-19.6,4.1599c-43.72,8.4-88.27,14.5601-132.87,12
		c6.89-7.1499,13.78-14.3099,20.21-21.88c-0.22,1.2001-0.3999,2.38-0.5399,3.62
		C1330.03,1221.54,1369.8101,1214.76,1409.03,1207.0699z"/>
	<path fill="#FC0101" stroke="#FC0101" stroke-width="0.0938" d="M474.27,1239.49c37.6,0.97,75.11,8.87,109.68,23.79
		c9.76,4.22,19.73,7.98,29.92,11.02c-0.44,2.9399-1.13,5.84-1.98,8.7c-0.82,2.54-1.71,5.0601-2.56,7.61
		c-15.85-4.76-30.58-12.5-46.29-17.64c-22.05-7.5599-45.06-12.4199-68.29-14.4099c-0.23-0.02-0.7-0.04-0.94-0.0601
		C488.65,1250.88,481.66,1244.85,474.27,1239.49z"/>
	<path fill="#F8931F" stroke="#F8931F" stroke-width="0.0938" d="M494.75,1258.5601c23.23,1.99,46.24,6.85,68.29,14.4099
		c15.71,5.14,30.44,12.88,46.29,17.64c0.85-2.5499,1.74-5.0699,2.56-7.61c-1.47,8.1-4.53,15.83-7.23,23.59
		c-11.34-3.15-21.77-8.74-32.81-12.7c-8.05-3.16-16.34-5.67-24.61-8.15c-2.46-0.74-4.99-1.16-7.52-1.37l-1.0699-0.11
		c-6.77-5.51-15.91-4.03-23.8-6.36c-5.56-1.09-9.86-5.13-13.36-9.34C498.97,1265.42,496.08,1262.4399,494.75,1258.5601z"/>
	<path fill="#FC0101" stroke="#FC0101" stroke-width="0.0938" d="M1208.84,1295.26c4.9601-4.73,9.67-9.9401,15.28-13.83
		c22.02,4.08,44.4,6.5199,66.83,6.2899c26,0.22,51.87-2.88,77.5901-6.33c-3.88,3.75-9.25,5.71-12.92,9.83
		c-0.21,0.2101-0.63,0.63-0.84,0.8401c-0.14,2.87,0.02,5.74,0.14,8.62C1306.52,1307.6801,1256.33,1308.1,1208.84,1295.26z"/>
	<path fill="#FCEE21" stroke="#FCEE21" stroke-width="0.0938" d="M539.72,1284.37c2.53,0.21,5.0601,0.63,7.52,1.37
		c8.27,2.48,16.56,4.99,24.61,8.15c11.04,3.96,21.47,9.5499,32.81,12.7c-2.14,5.8401-5.03,11.4-8.86,16.3201l-0.11-0.76
		c-0.04-0.3-0.12-0.92-0.16-1.23c-8.11-2.53-15.67-6.51-23.66-9.39c-13.94-5.11-28.19-9.64-42.82-12.24
		C532.54,1294.33,539.24,1290.96,539.72,1284.37z"/>
	<path fill="#F8931F" stroke="#F8931F" stroke-width="0.0938" d="M1354.78,1292.0601c0.21-0.2101,0.63-0.63,0.84-0.8401
		c-0.71,3.92,0.34,7.8401,0.4,11.78c0.45,5.23,0.03,10.47-0.53,15.6899c-22.71,2.6801-45.54,4.8201-68.4299,4.5801
		c-30.0601-0.6-60.3401-4.0601-89.03-13.36c0.61-1.25,1.22-2.5,1.9-3.7001c2.61-3.9299,5.84-7.39,8.9099-10.95
		c47.49,12.84,97.6801,12.42,146.0801,5.42C1354.8,1297.8,1354.64,1294.9301,1354.78,1292.0601z"/>
	<path fill="#02FE02" stroke="#02FE02" stroke-width="0.0938" d="M528.49,1299.22c0.14,0.02,0.42,0.05,0.56,0.0701
		c14.63,2.6,28.88,7.13,42.82,12.24c7.99,2.88,15.55,6.86,23.66,9.39c0.04,0.3099,0.12,0.9299,0.16,1.23
		c-2.03,4.0599-6.8,6.0599-10.85,7.76c-2.57,0.64-5.14,1.3199-7.75,1.7799c-9.6201-4.5599-19.88-7.7799-30.17-10.48
		c-5.58-1.58-11.16-3.1599-16.88-4.13c-3.4-1.0399-6.93-1.5399-10.45-1.8999c1.48-0.27,2.96-0.51,4.46-0.7301
		c-4.99,0.42-9.95-0.37-14.86-1.09C515.99,1309.1899,522.51,1304.5,528.49,1299.22z"/>
	<path fill="#FCEE21" stroke="#FCEE21" stroke-width="0.0938" d="M1190.2,1325.41c2.29-6.79,5.5701-13.37,9.7301-19.2001
		c-0.6801,1.2001-1.29,2.4501-1.9,3.7001c28.6899,9.2999,58.97,12.76,89.03,13.36c22.8899,0.24,45.72-1.9,68.4299-4.5801
		c-1.37,6.64-2.53,13.7301-6.95,19.16c-0.0601-0.26-0.1801-0.76-0.23-1.01c-24.42,3.91-49.25,4.2201-73.92,3.63
		c-0.29-1.97-0.64-3.9-0.99-5.8099c-1.8301,1.71-3.4301,3.71-5.51,5.13c-8.99,0.2799-17.87-1.3301-26.75-2.4
		C1223.8101,1335.05,1206.87,1330.59,1190.2,1325.41z"/>
	<path fill="#2B52DF" stroke="#2B52DF" stroke-width="0.0938" d="M487.39,1327.54c7.03-5.0901,14.5-9.5,21.8-14.1801
		c4.91,0.72,9.87,1.51,14.86,1.09c-1.5,0.2201-2.98,0.4601-4.46,0.7301c3.52,0.36,7.05,0.86,10.45,1.8999
		c5.72,0.9701,11.3,2.55,16.88,4.13c10.29,2.7001,20.55,5.92,30.17,10.48c-8.61,1.4701-17.79,2.3201-25.02,7.76
		c-10.62-2.36-21.05-5.5199-31.8-7.2799C509.42,1329.9,498.36,1328.9301,487.39,1327.54z"/>
	<path fill="#02FE02" stroke="#02FE02" stroke-width="0.0938" d="M1189.11,1327.04c0.27-0.41,0.8201-1.2201,1.09-1.63
		c16.67,5.1799,33.6101,9.64,50.9401,11.98c8.88,1.0699,17.76,2.6799,26.75,2.4c-4.53,5.5-8.5601,11.39-13.16,16.83
		c-14.85-0.88-29.38-4.2-43.85-7.4301c-8.92-2.4099-17.7-5.25-26.51-7.99C1185.92,1336.47,1187.49,1331.74,1189.11,1327.04z"/>
	<path fill="#B33AE2" stroke="#B33AE2" stroke-width="0.0938" d="M472.74,1339.7c4.21-4.73,9.43-8.59,14.65-12.1599
		c10.97,1.39,22.03,2.36,32.88,4.63c10.75,1.76,21.18,4.9199,31.8,7.2799c-4.41,3.6801-7.9,8.27-10.76,13.2301
		c-1.98,0.21-4,0.5299-5.97,0.13c-9.06-2.0701-18.26-3.4501-27.41-5.0601c-12.33-1.86-24.78-2.48-37.19-3.4
		C471.38,1342.77,472.02,1341.22,472.74,1339.7z"/>
	<path fill="#02FE02" stroke="#02FE02" stroke-width="0.0938" d="M1274.39,1340.47c24.67,0.5901,49.5,0.28,73.92-3.63
		c0.0499,0.25,0.1699,0.75,0.23,1.01l0.11,0.47c-6.63,9.9901-17.98,15.62-29.49,17.8501c-12.9701,2.48-26.24,1.24-39.28,0.1
		C1276.23,1351.88,1273.85,1346.24,1274.39,1340.47z"/>
	<path fill="#93268F" stroke="#93268F" stroke-width="0.0938" d="M457.53,1362.42c3.14-8.6901,8.55-16.37,15.21-22.7201
		c-0.72,1.52-1.36,3.0701-2,4.65c12.41,0.92,24.86,1.54,37.19,3.4c9.15,1.61,18.35,2.99,27.41,5.0601
		c1.97,0.3999,3.99,0.08,5.97-0.13c-3.11,5.5199-5.6,11.36-8.47,17.0099c-17.23-4.6-35.13-5.1299-52.77-7.09
		C472.56,1362.27,465.04,1362.5,457.53,1362.42z"/>
	<path fill="#2B52DF" stroke="#2B52DF" stroke-width="0.0938" d="M1184.37,1341.2c8.8101,2.74,17.59,5.5801,26.51,7.99
		c14.47,3.2301,29,6.55,43.85,7.4301c-5.15,6.0601-11.85,10.46-18.53,14.63c-13.36-2.45-26.72-5.12-39.71-9.15
		c-5.77-1.5599-11.2-4.33-17.1899-4.99C1181.01,1351.8101,1182.61,1346.48,1184.37,1341.2z"/>
	<path fill="#B33AE2" stroke="#B33AE2" stroke-width="0.0938" d="M1179.3,1357.11c5.99,0.66,11.4199,3.4301,17.1899,4.99
		c12.99,4.03,26.35,6.7001,39.71,9.15c-6.2699,4.1-12.6399,8.3199-17.3899,14.22l-0.2101-0.0399
		c-15.27-2.8601-29.97-8.14-44.39-13.8201C1175.72,1366.71,1177.64,1361.95,1179.3,1357.11z"/>
	<path fill="#FC0101" stroke="#FC0101" stroke-width="0.0938" d="M457.53,1362.42c7.51,0.08,15.03-0.15,22.54,0.1799
		c17.64,1.9601,35.54,2.49,52.77,7.09c-2.85,5.6801-6.23,11.1201-10.53,15.8201c-16.24-3.17-32.77-4.4-49.26-5.2
		c-5.17-0.28-10.44,0.4099-15.51-0.7301c-3.59-2.7799-2.32-7.7699-1.82-11.6C456.22,1366.08,456.89,1364.25,457.53,1362.42z"/>
	<path fill="#F8931F" stroke="#F8931F" stroke-width="0.0938" d="M455.71,1378.33c-2.51-2.98-1.05-7.1,0.01-10.35
		c-0.5,3.8301-1.77,8.8201,1.82,11.6c5.07,1.14,10.34,0.4501,15.51,0.7301c16.49,0.7999,33.02,2.0299,49.26,5.2
		c-2.08,2.46-5.02,4.1-8.34,3.76c-13.99-0.09-28.12,1.04-41.95-1.62C465.82,1386.29,459.77,1383.3199,455.71,1378.33z"/>
	<path fill="#93268F" stroke="#93268F" stroke-width="0.0938" d="M1174.21,1371.61c14.42,5.6801,29.12,10.96,44.39,13.8201
		c-2.52,3.63-4.96,7.3899-6.37,11.61c-1.52,4.24-1.75,8.77-2.48,13.1799c0.02-2.98,0.04-5.97,0.0699-8.9299
		c-11.6899-2.5801-22.84-7.03-34.0499-11.14c-4.79-1.64-9.16-4.79-14.38-4.8301C1165.5,1380.6,1171.67,1377.54,1174.21,1371.61z"/>
	<path fill="#FC0101" stroke="#FC0101" stroke-width="0.0938" d="M1151.11,1397.4301c3.25-4.1901,6.71-8.1901,10.28-12.1101
		c5.22,0.04,9.59,3.1901,14.38,4.8301c11.21,4.11,22.36,8.5599,34.0499,11.14c-0.0299,2.96-0.0499,5.95-0.0699,8.9299
		c-0.03,3.04-0.1,6.0801-0.29,9.13l-0.0699-0.41C1189.35,1413.55,1170.0699,1405.78,1151.11,1397.4301z"/>
	<path fill="#F8931F" stroke="#F8931F" stroke-width="0.0938" d="M1150.96,1397.36l0.15,0.0701
		c18.96,8.35,38.24,16.12,58.28,21.5099c0.29,5.7301,0.1899,11.4801-0.24,17.2101c-17.01-3.6901-33.1901-10.36-49.13-17.2001
		c-6.09-2.63-12.5701-4.21-18.55-7.09C1144.27,1406.78,1147.9399,1402.28,1150.96,1397.36z"/>
	<path fill="#FCEE21" stroke="#FCEE21" stroke-width="0.0938" d="M1141.11,1411.6899l0.36,0.17c5.98,2.88,12.4601,4.46,18.55,7.09
		c15.9399,6.8401,32.12,13.51,49.13,17.2001c0.4299-5.73,0.53-11.48,0.24-17.2101l0.0699,0.41c0.3201,11.62,0.89,24.0601-5.12,34.51
		l-0.7-0.76c-0.09-0.1-0.29-0.3099-0.39-0.41c-3.9301-1.5299-8.02-2.5399-12.09-3.5599c0.49-0.11,1.01-0.21,1.5399-0.28
		c-7.2999-1.47-14.0399-4.73-20.97-7.3199c-12.59-5.28-25.28-10.49-38.51-13.97
		C1135.64,1422.16,1138.8101,1417.14,1141.11,1411.6899z"/>
	<path fill="#02FE02" stroke="#02FE02" stroke-width="0.0938" d="M1133.22,1427.5601c13.23,3.48,25.92,8.6899,38.51,13.97
		c6.9301,2.59,13.67,5.85,20.97,7.3199c-0.5299,0.0701-1.0499,0.17-1.5399,0.28c4.0699,1.02,8.1599,2.03,12.09,3.5599
		c0.1,0.1001,0.3,0.3101,0.39,0.41c-0.03,0.47-0.09,1.4-0.12,1.87c-1.7001,1.1801-3.2001,2.61-4.5601,4.17
		c-1.87,0.86-3.8199,1.77-5.9299,1.58c-6.86-0.25-13.72-0.2999-20.5701-0.0599c-2.85-2.77-6.74-3.85-10.2799-5.37
		c-11.4501-4.9-23.41-8.42-35.3-12.0701c0.67-1.8099,1.25-3.65,1.88-5.45c0.6799-1.5801,1.34-3.15,2.02-4.71
		C1131.55,1431.2,1132.27,1429.3199,1133.22,1427.5601z"/>
	<path fill="#2B52DF" stroke="#2B52DF" stroke-width="0.0938" d="M1122.51,1455.46c1.4299-4.09,2.64-8.27,4.37-12.24
		c11.89,3.65,23.85,7.17,35.3,12.0701c3.5399,1.52,7.4299,2.6,10.2799,5.37c-9.48,0.88-19.0299,1.13-28.5399,0.6699
		C1136.52,1460.77,1128.87,1459.53,1122.51,1455.46z"/>
</g>
</svg>
