<?xml version="1.0" encoding="utf-8"?>
<!-- Generator: Adobe Illustrator 19.0.0, SVG Export Plug-In . SVG Version: 6.00 Build 0)  -->
<svg version="1.1" xmlns="http://www.w3.org/2000/svg" xmlns:xlink="http://www.w3.org/1999/xlink" x="0px" y="0px"
	 viewBox="812 -473.8 2235.9 1738.8" style="enable-background:new 812 -473.8 2235.9 1738.8;" xml:space="preserve">
<style type="text/css">
	.st0{fill:#7CC1EF;stroke:#7CC1EF;}
	.st1{fill:#AA67BA;stroke:#AA67BA;}
	.st2{fill:#F7BAD9;stroke:#F7BAD9;}
	.st3{fill:#F098B6;stroke:#F098B6;}
	.st4{fill:#F9D5E1;stroke:#F9D5E1;}
	.st5{fill:#694377;stroke:#694377;}
	.st6{fill:#EAA7C1;stroke:#EAA7C1;}
	.st7{fill:#AB89AD;stroke:#AB89AD;}
	.st8{fill:#E96893;stroke:#E96893;}
	.st9{fill:#614E89;stroke:#614E89;}
	.st10{fill:#7D669B;stroke:#7D669B;}
	.st11{fill:#614E89;}
	.st12{fill:#F9D5E1;}
	.st13{fill:none;stroke:#614E89;}
	.st14{display:none;}
	.st15{display:inline;fill:#82CEBB;stroke:#82CEBB;}
	.st16{display:inline;fill:#7DAB9F;stroke:#7DAB9F;}
	.st17{display:inline;fill:#CCD5B5;stroke:#CCD5B5;}
	.st18{display:inline;fill:#BBB78A;stroke:#BBB78A;}
	.st19{display:inline;fill:#E4E3BF;stroke:#E4E3BF;}
	.st20{display:inline;fill:#746F5D;stroke:#746F5D;}
	.st21{display:inline;fill:#CDDEBC;stroke:#CDDEBC;}
	.st22{display:inline;fill:#AAD5B8;stroke:#AAD5B8;}
	.st23{display:inline;fill:#929278;stroke:#929278;}
	.st24{display:inline;fill:#373435;stroke:#373435;}
	.st25{display:inline;fill:#6E736B;stroke:#6E736B;}
	.st26{display:inline;fill:#373435;}
	.st27{display:inline;fill:#E4E3BF;}
	.st28{display:inline;}
	.st29{fill:none;stroke:#373435;}
	.st30{fill:#373435;}
</style>
<g id="Layer_1_copy">
	<path class="st0" d="M1687.8-297.9c41.1-1.5,82.6,3.3,122.3,14.2c8,2.3,16.1,4.4,23.8,7.9c27.5,12.2,51,32.5,68.4,57.1
		c18.6,26.4,30,57.5,35.4,89.3c3.4,18.6,4.4,37.6,4.6,56.6c0.4,72.8,0.4,145.7,0.3,218.5c-0.1,20.7,0.4,41.5,2.4,62.2
		c1.9,19.8,5.1,39.5,11.3,58.3c4.7,14.4,11.1,28.3,20.1,40.4c2.3,3.2,5.1,6.1,7.4,9.3c-29.8-6.8-58.7-19.2-82.5-38.7
		c-21-17.1-37.1-40.2-45.6-65.9c-6.1-18.3-8.8-37.7-8.6-56.9c0-67.8,0.1-135.7,0-203.6c-0.3-36.7-7.3-73.6-21.9-107.3
		c-11.6-26.9-28-51.7-47.8-73.3c-24.7-27.1-54.7-49.4-87.2-66.4C1689.2-296.9,1688.5-297.4,1687.8-297.9z"/>
	<path class="st1" d="M1638.3-292.9c5.7-0.7,11.4-2.2,17.2-2.1c11.9,4.1,23.2,9.8,34.2,15.8c25.9,14.3,49.7,32.2,70.4,53.4
		c22.3,23,40.6,50,52.7,79.8c13.4,32.5,19.3,67.8,18.8,102.9c0,67.8-0.1,135.7,0.1,203.5c0.4,21.2,4,42.4,11.6,62.2
		c3.2,8.9,7.8,17.1,12.1,25.4c-16.1-3.1-31.9-9-45.6-18.3c-20.3-13.4-35.5-33.7-45-55.9c-7.6-17.4-12.5-35.9-15.6-54.6
		c-3.8-23.2-5.2-46.7-5.2-70.3c-0.6-13.7-0.6-27.5-0.8-41.2c-0.9-23.4-0.8-46.9-1.5-70.3c-1.3-33-9.8-65.8-25.4-95
		c-12.5-23.7-29.5-45-49-63.2c-23-21.5-49.6-39.1-77.8-53c-3.2-1.7-6.7-2.7-9.6-5.1C1598.9-284.8,1618.5-289.6,1638.3-292.9z"/>
	<path class="st0" d="M1555.7-270.3c2.1-1.2,4.3,0.3,6.4,1c29.6,12.3,57.8,28.6,82.6,49c21.3,17.6,40.1,38.7,54,62.7
		c17.3,29.5,26.8,63.5,27.8,97.6c0.9,41.9,1.7,83.6,2.6,125.5c0.9,28.6,3.9,57.4,11.4,85.1c-26-5.6-49-21.6-65.7-42
		c-20.3-24.9-31.9-55.9-37.2-87.2c-1.9-10.9-3-21.9-3.5-33c0-23.4,0.2-46.8-2-70.1c-2.6-31.2-9.4-63-26.4-89.6
		c-16.6-26.3-41.8-45.9-68.3-61.6c-9.3-5.7-19.2-10.4-28.6-15.6C1523.7-257,1539.7-263.8,1555.7-270.3z"/>
	<path class="st1" d="M1899.3-246.9c5.6,2.4,10.6,5.9,15.9,8.9c28.6,17.6,55.1,38.7,78.4,62.9c1.7,1.8,1.5,4.4,2,6.7
		c7.8,64.2-3.7,131-34.1,188.2c-1,2-2.1,4.1-3.7,5.7c-0.1-24.9-0.1-49.8-0.2-74.7c-0.2-20.5,0.3-41-1.9-61.4
		c-3.7-37.3-14.3-74.4-34-106.5C1915.2-227.8,1907.3-237.4,1899.3-246.9z"/>
	<path class="st1" d="M1491.6-239.4c27.8,12.9,55.2,27.9,77.9,48.9c17.8,16.4,31.4,37.5,38.2,60.8c-6.7,0-13.1-1.8-19.6-3.1
		c-30.7-7.4-59.8-20.8-85.4-39.2c-17.3-12.7-33.3-27.8-44.3-46.3C1469.2-225.7,1480.2-232.8,1491.6-239.4z"/>
	<path class="st0" d="M1407.4-178.1c12.2-10.9,25-21.4,38.3-30.9c16.5,25.4,39.7,45.7,65.5,61.1c27.7,16.5,58.3,28.4,90.1,33.3
		c3.4,0.7,7.2,0.2,10.4,1.3c2,6.2,2.5,12.9,3.5,19.2c0.7,5.8,1.5,11.5,1.7,17.4c-37.3-0.4-74.5-8.2-109-22.3
		C1468-115.5,1431.4-142,1407.4-178.1z"/>
	<path class="st1" d="M1376.4-148.5c6.2-6.7,12.7-13,19.2-19.2c10.4,14.7,22.4,28.2,36,40.1c-13,0.2-26.2-2.1-38.3-7
		c-6.3-2.7-12.6-5.9-17.7-10.4C1373.9-146,1375.5-147.5,1376.4-148.5z"/>
	<path class="st2" d="M2012.6-153.8c42.4,50.2,71.3,112.1,80.3,177.3c2.5,17.1,3.3,34.5,3.1,51.8c-0.1,176.4,0.1,352.9-0.1,529.3
		c-20.5,0.3-41.1,0-61.5,0.1c-3.5,0.1-6.9-1.1-10.4-1.6v-0.6c0.2-78.4,0-156.8,0.1-235.1c-0.3-11.4,0.6-22.9-0.4-34.3
		c-0.1-1.3-0.2-2.7,0-4.1c1.1-8.5,0.3-17.1,0.5-25.6c0-70.8,0-141.5,0-212.4c0.2-16.1-1.8-32.3-4.6-48.1c-3.5-17.4-8.3-35-18.7-49.7
		c-2-3-4.4-5.7-7.3-7.8c11.7-33.3,18.4-68.2,19.5-103.5C2013.5-130,2013.1-142,2012.6-153.8z"/>
	<path class="st0" d="M1364.4-134.2c20,16.2,46.4,23.1,71.8,21.7c4.3-0.1,8.5-1.2,12.8-1.3c4.3,2.3,8,5.4,12.1,7.9
		c6.7,4.3,13.7,7.9,20.5,12c-18.3,7.3-38.3,9.1-57.8,8.3c-26.2-1.6-53-9.3-73.2-27C1354.2-120.4,1359.2-127.4,1364.4-134.2z"/>
	<path class="st3" d="M1344.2-97.5c10.3,7.4,21.3,13.9,33.3,18.2c20,7.3,41.7,10.1,63,9.1c20-1.1,40-5.2,58.1-14
		c1.2-0.5,2.5-1.2,3.7-0.4c36.5,15.1,76,23.1,115.4,23.4c1.2,14.2,0.7,28.5,0.8,42.6c-73.1,0-146.1,0.1-219.2,0
		c-15-25.2-34-48.5-58.6-64.9C1341.7-88.3,1342.8-92.9,1344.2-97.5z"/>
	<path class="st4" d="M1217.1-78c26.2-10,55.6-13.8,83-6.2c25.4,6.8,47.3,23,64.1,42.8c6.1,7.2,11.8,14.7,16.8,22.8
		c-14.1,0.1-28.2,0-42.3,0.1c-2.5,0-5,0.1-7.4-0.4c-40.6-10-81.2-20-121.7-29.9c-10.9-2.7-21.9-5.1-32.6-8.2
		C1189.2-65.8,1203-72.5,1217.1-78z"/>
	<path class="st5" d="M1240-11.3c4.9-3.7,9.9-7.5,15.6-10.1c3.8-0.4,7.4,1.3,11,2c19.3,4.7,38.6,9.6,58,14.1
		c0.4,6.8,0.3,13.7,0.1,20.5c-11.3,4.7-22.3,10.1-33.6,14.5c-3.9-4.5-8.4-8.6-13.7-11.6c-7.8-4.9-17-6.7-25.7-9.4
		c-8.2-2.6-16.5-4.7-24.5-7.5C1230.4-3.8,1235.4-7.4,1240-11.3z"/>
	<path class="st4" d="M1993.5-14.6c2.8,2.1,5.3,4.8,7.3,7.8c10.4,14.7,15.3,32.4,18.7,49.7c2.9,15.9,4.9,32,4.6,48.1
		c0,70.8,0,141.5,0,212.4c-0.2,8.5,0.5,17.1-0.5,25.6c-5.2-6.9-13.3-10.6-19.9-16c-11-8.9-19.4-20.5-25.6-33.2
		c-7.5-15.4-11.9-32.2-14.9-49c-6.7-38.4-5.2-77.4-5.4-116.2c0-19.1,0-38,0-57.1c-0.2-1.8,0.6-3.4,1.6-4.8
		C1973.6,31.9,1984.8,9,1993.5-14.6z"/>
	<path class="st4" d="M1339.9-2.9c21.8-0.5,43.6-0.1,65.5-0.2c19.6,0,39.2,0,58.8,0c-0.4,17.5,2,34.8,6.5,51.7
		c4.1,14.5,9.4,28.6,17.4,41.5c12.1,20.3,29.4,37.3,49.7,49.4c5.3,3.3,11.5,5.1,16.4,9.1c-14.1,24.1-33.3,45.2-55.8,61.6
		c-13.7,10.2-28.8,18.4-44,26.2c-3.1,1.3-5.3,4.5-5.1,8.1c0,24.9,0,49.8,0,74.7c0.1,12.5,6,24.6,15.7,32.5c2.7,2.2,5.6,4.1,8.5,5.9
		c-7.3,13.8-18.1,25.8-31.3,34.3c-19.4,12.4-42.9,17.6-65.8,16.4c-1.6,0.1-2.7-1.2-3.7-2.1c-11.3-11.3-18.6-26.2-23.6-41.2
		c-7.2-22.7-9.8-46.6-9.1-70.4C1339.9,195.4,1340.1,96.3,1339.9-2.9 M1424.2,98.5c-2.8,1.3-4.5,4.3-4.4,7.4c0,12.3,0,24.6,0,36.9
		c0.4,7.4-4.3,16-12.1,17.3c-5,1.2-6.9,7.7-4,11.7c2.3,3.5,6.9,3.9,10.6,2.7c12.9-4,21.1-17.6,21.1-30.7
		c-0.1-12.9,0.1-25.8-0.1-38.7C1435.3,99.7,1428.8,96,1424.2,98.5z"/>
	<path class="st6" d="M1464.1-3.1c19.6-0.1,39.1-0.1,58.7,0c0.7,16.1,5.2,32.1,12.7,46.5c6.8,13.5,17.2,24.9,28.9,34.3
		c4.5,3.8,10.1,6.2,14.3,10.5c-5.7,21-13.6,41.6-24.6,60.5c-4.9-4-11.1-5.9-16.4-9.1c-20.3-12.1-37.7-29-49.7-49.4
		c-8-12.8-13.3-27-17.4-41.5C1466.1,31.8,1463.9,14.4,1464.1-3.1z"/>
	<path class="st7" d="M1522.8-3.1c22-0.1,44.1-0.2,66.1,0c0.4,30.7-2.7,61.4-10.3,91.2c-4.2-4.3-9.8-6.7-14.3-10.5
		c-11.7-9.4-22.1-20.8-28.9-34.3C1528.1,29,1523.5,13.1,1522.8-3.1z"/>
	<path class="st8" d="M1199.3,48.1c6.5-17,15.3-33.4,27.8-46.8c8.1,2.9,16.3,5.1,24.5,7.5c8.7,2.7,17.9,4.4,25.7,9.4
		c5.2,3,9.8,7,13.7,11.6c-26.2,11.8-52.6,23.1-78.8,34.7c-6.7,2.7-13.2,6.1-20,8.4C1193.4,64.4,1196.4,56.2,1199.3,48.1z"/>
	<path class="st4" d="M2453.9,36.7c17.6-5.1,36-7.6,54.4-8.1c14.4-0.4,28.7,0.7,43.1,1.7c61.8,5.1,123.5,18.4,179.7,45
		c37.7,17.6,72.4,41.7,101.7,71.1c21.5,21.5,40.2,46,52.6,73.9c15.2,33.7,22.1,70.7,23.9,107.5c-46.8-0.1-93.5,0-140.4,0
		c-25.4-0.1-50.6,2.8-75.5,7.2c-47.2,8.4-93.2,23.2-136.1,44.7c-41.1,20.5-79.1,47.2-111.7,79.4c-8.4,8.2-16.3,16.8-24,25.6
		c-7-8-12.5-17.2-18.3-26.1c-33.1-51.5-58.3-107.8-77-166c-21.9-69.2-35.2-141.2-39-213.7c-0.1-2.8-0.1-5.7,0-8.5
		c2.7-0.3,5.4-0.6,8.1-0.9c45-1.5,90.2-8.2,132.8-23.3C2436.8,43.1,2445.1,39.2,2453.9,36.7z"/>
	<path class="st3" d="M2111,46.4c34.3,9.4,69.4,15.9,104.9,19.6c2.8,44.6,7.3,89.1,15.1,133.1c11.5,66.2,29.8,131.6,56.8,193.2
		c19.5,44.4,43.5,86.9,72.4,125.9c1.7,2.3,3.5,4.6,5.1,7c-41.9,0.2-83.6,0-125.5,0.1c-25.6,0.5-50.4,9.7-72.3,22.6
		c-20.6,12-39,27.5-55.9,44.2c-0.4-36-0.1-72-0.2-108c0-138.6,0-277.3,0-415.9C2111.6,60.9,2111,53.6,2111,46.4z"/>
	<path class="st2" d="M2231.5,67.6c21.2,1.6,42.5,2.1,63.7,1.8c-2.7,0.3-5.4,0.6-8.1,0.9c-0.1,2.8-0.2,5.7,0,8.5
		c3.8,72.5,17,144.5,39,213.7c18.7,58.2,43.8,114.6,77,166c5.8,8.9,11.3,18.1,18.3,26.1c-10.9,13-21.5,26.5-30.9,40.6
		c-1.9,0-3.8,0-5.7-0.1c-29.9-37.8-55.2-79.1-75.6-122.6c-27.1-57.5-45.9-118.8-58.5-181.1C2240.6,170.7,2234.2,119.3,2231.5,67.6z"
		/>
	<path class="st4" d="M1635.3,71.6c10.6,25.6,26.2,49.7,47.7,67.4c17.8,14.9,39.6,25.1,62.6,28.7c9.4,25.4,23.9,49.7,45,67.1
		c20.1,16.8,45.4,26.5,71.3,29.8c2.7,0.4,5.9,0.3,7.5,2.8c18.2,21.8,42.1,38.3,68.1,49.5c18.4,8,37.9,13.5,57.5,17.1
		c7.2,1.3,14.5,2.6,21.8,1.7c2.4-0.2,4.6-1.4,6.7-2.6c1.1,11.4,0.2,22.9,0.4,34.3c0,78.4,0.1,156.8-0.1,235.1
		c-5.1-0.9-9.6-3.2-14.3-5.1c-28.1-12.3-54-29.3-77.5-48.9c-43.3-36.4-77.7-83.3-99.7-135.4c-17.6-41.1-27.5-85.4-31.4-129.9
		c0.1-4.6-4.3-8.7-8.9-7.9c-4.1,0.4-7.3,4.6-6.7,8.7c5.6,67.1,25.4,133.6,61.7,190.6c13,20.7,28.4,39.9,45.1,57.7
		c-41.3,0.1-82.7-3.6-123.2-12.1c-33.2-7.3-66.2-17.2-95.9-34c0.1-8.8,0.4-18-3.8-25.9c-6.9-14.3-22.5-21.6-37.4-24.2
		c-4.7-0.7-10.8-2.8-14.4,1.5c-3.9,4.2-1.2,11.9,4.4,12.6c8.1,1.1,16.2,2.7,23.3,6.8c6.6,3.7,12,10.4,12.3,18.2c0,27,0,53.8,0,80.8
		c-0.4,5.1,4.3,8,7.4,11.2c22.4,21.1,50.1,36.3,79.5,45.1c19.4,5.9,39.5,9.1,59.9,10.5c2.4,0.2,5.1-0.2,6.8-2
		c3.2-3.3,5.6-7.3,8.8-10.5c3.5,19.3,8.7,38.8,19.2,55.7c-14.5,5.5-29.9,8-45.2,9.2c-35.7,2.6-71.7-4-105-17
		c-25.9-10-50.7-23.3-72.5-40.6c-22.3-17.6-41.2-39.3-55.5-63.8c-14.5-24.6-24.4-51.8-30.9-79.5c-8-34.1-11.2-69.3-11.6-104.4
		c65.4,0,130.9-0.1,196.4,0c10.9,12.8,23.1,24.6,36.5,34.7c3.5,2.4,6.7,5.1,10.5,7.1c5,2.3,11.2-2.1,10.6-7.5c0-3.9-3.5-6.2-6.4-8.1
		c-24.2-16.7-44.1-39.1-59.9-63.8c-17.3-26.7-30.1-56.1-40-86.3c-14.9-45.5-23.4-92.7-28.3-140.3
		C1636.9,94.5,1635.5,83.1,1635.3,71.6z"/>
	<path class="st9" d="M1424.2,98.5c4.7-2.5,11.1,1.2,11.1,6.6c0.2,12.9,0,25.8,0.1,38.7c0.1,13.1-8.2,26.8-21.1,30.7
		c-3.6,1.2-8.3,0.8-10.6-2.7c-2.9-4-1-10.6,4-11.7c7.9-1.3,12.5-9.8,12.1-17.3c0-12.3,0-24.6,0-36.9
		C1419.7,102.9,1421.4,99.8,1424.2,98.5z"/>
	<path class="st0" d="M2871.4,166.5c15.9,6.1,31,14,45.2,23.3c9.6,6.4,19,13.2,27.1,21.4c-15.3,0.2-30.4,0.2-45.7-0.1
		c-6.6-14.2-14.6-27.7-23.9-40.3C2873.1,169.4,2872.2,167.9,2871.4,166.5z"/>
	<path class="st1" d="M2904.9,226.8c17.3-0.4,34.5,0,51.8-0.1c1.5-0.2,2.9,0.4,3.8,1.8c6.8,8.3,12.9,17.2,18.3,26.6
		c2.5,4.8,5.4,9.4,7,14.6c-22.8,0-45.5,0-68.3,0C2914.3,255.1,2910,240.8,2904.9,226.8z"/>
	<path class="st0" d="M2920.4,285.1c23.9,0.1,47.9-0.1,71.8,0.1c3.2,9.2,5.9,18.5,7.9,28c0.6,2-1.1,3.7-2.2,5.1
		c-5.9,6.6-15.1,9.3-23.8,9.3c-16.4,0-32.8,0-49.1,0c-0.9-8.4-1.2-16.8-2.3-25.2C2922,296.7,2920.9,290.9,2920.4,285.1z"/>
	<path class="st1" d="M2988.9,341c5.3-1.4,10.1-4.2,14.8-6.9c2.4,17.7,3,35.6,2.7,53.6c-0.1,2.4,0.2,5.1-1.3,7.3
		c-8.1,13-21.1,22-34.8,28.5c-20.2,9.3-42.5,14.3-64.6,14.8c-49.7-0.8-99.4-0.6-149.1-0.4c-49.4,0.1-98.9,0.4-148.3,0.4
		c-11.1,0-22.3-0.1-33.3,0.1c-29.6,0.7-59.1,5.7-87.2,14.8c-7.1,2.1-13.8,5.1-20.8,7.4c6.6-6.7,13.9-12.6,21.2-18.4
		c37.4-30,80-53.3,124.9-69.7c46.3-16.8,95.1-27,144.4-29.1c68.2-0.2,136.3,0,204.5-0.1C2970.9,343,2980.2,343.9,2988.9,341z"/>
	<path class="st0" d="M2962.9,443c14.9-5.1,28.9-12.9,41.1-23c-3.2,28.6-10.1,56.7-19.8,83.7c-3.6,11.9-13,21-23.1,27.8
		c-14.2,9.3-30.7,14.5-47.1,18.4c-42.9,9.8-87.2,9.1-131.1,9.8c-70.8,0.7-141.5,1.5-212.4,1.9c-20.4-0.2-40.9,1.9-60.7,6.6
		c-46.8,10.8-89.8,35.6-124.8,68.3c-16.8,15.5-31.7,32.8-45.2,51.3c-2,2.7-3.8,5.6-6.1,8.1c5.1-21.9,12.1-43.4,19.9-64.6
		c17.1-45.1,40.5-88,70.8-125.6c3-3.6,5.8-7.8,9.9-10.3c20.7-13.8,43.8-23.7,67.7-30.5c26.8-7.7,54.7-11.3,82.6-11.2
		c95.7-0.1,191.3-0.7,286.9-0.4c12,0,23.9,0.4,35.9,0.4C2926.3,453,2945.1,449.3,2962.9,443z"/>
	<path class="st1" d="M2947.2,555.5c6.3-2.3,12.1-5.7,18.1-8.4c-6.6,13.8-14.5,27-22.7,39.7c-10.2,15.6-21.3,30.6-33.3,44.8
		c-9.4,10-20.9,17.7-33.1,23.9c-31.6,16-66.9,22.7-102.1,24.9c-25.2,0.8-50.4,0.3-75.5,0.4c-22.5,0.1-45-0.2-67.6,0.1
		c-40.6,0.6-81.1,8.2-119.3,22.5c-57.3,21.4-108.5,57.2-151,100.8c-11.7,12.1-22.8,24.6-33.2,37.9c-5.2,6.3-9.7,13.3-15,19.6
		c-0.2-21.5,1.6-43,3.5-64.5c1.8-17.8,4.1-35.6,7.1-53.3c0.6-3.7,2.9-6.8,4.7-10.1c22.7-39.1,51.4-75.3,87.2-103.1
		c40.3-31.7,90.5-51.8,142-53.6c41.2-0.3,82.5-0.9,123.7-1c48.2-0.9,96.6-0.7,144.8-1.7c21.4-0.6,42.7-1.7,63.8-4.7
		C2909.3,567.1,2928.8,562.9,2947.2,555.5z"/>
	<path class="st10" d="M1839,586.1c18.9,6.5,37.6,13.7,56.4,20.4c4.6,1.9,9.6,3,13.9,5.5c-8.3,14.5-20.1,26.7-33.7,36.4
		c-6.8,4.7-14,9.2-21.7,12.2c-12.7-19-17.4-41.9-20.3-64.1C1832.7,592,1836.9,589.3,1839,586.1z"/>
	<path class="st3" d="M2032.7,620.1c21-0.1,42.1,0,63.1,0c2.7,0,5.6-0.3,8.2,0.6c23.8,9,43.9,25.9,59.5,45.8
		c8,10.1,15,21.1,20.9,32.5c2,3.9,4.2,7.8,5.5,12c-21.5,9.8-40.2,25.6-54.2,44.6c-16,21.5-26.8,46.4-34.2,72
		c-10.9,38.3-15,78.2-14.5,117.9c-13.1,4.3-25.2,11.4-35.3,20.9c-14.3-15.9-31.4-29.5-51.1-38.1c-2.4-1-4.8-2-7.1-3.1
		c8.8-6.8,18.9-11.7,28-18c9.4-6.7,13.4-18.4,15.5-29.3c3.1-15.6,3-31.6,3-47.4c-0.1-29.5-3.2-59-5.1-88.4
		c-2.2-35.1-3.5-70.4-2.9-105.6C2032.2,631.2,2032.3,625.6,2032.7,620.1z"/>
	<path class="st0" d="M2800.1,693.4c21.6-2.7,43-7.9,63.5-15.3c-9.6,9.2-20.1,17.4-30.6,25.4c-27.6,20.8-57.3,38.8-88.3,53.9
		c-47.3,22.8-98.2,39.4-150.8,42.8c-12.4,0.8-24.9,0.3-37.3,0.4c-56.6-0.1-113.1,0.2-169.6-0.1c9.8-10.1,21-18.9,32.1-27.7
		c24.7-19.1,51.7-35.3,80.2-47.8c32.5-14.4,67.4-23.5,102.8-27.1c20.7-2.3,41.6-1.8,62.4-1.8c26.9,0,53.8,0,80.7,0
		C2763.5,696.4,2781.8,695.9,2800.1,693.4z"/>
	<path class="st4" d="M2835,721.3c8-5.8,15.6-12,23.4-18c5.6,22.3,8.8,45,11.6,67.7c-17.7,4.1-35.6,8.7-52.1,16.5
		c-12.8,5.9-24.8,14.1-33.7,25.1c-8.5,10.4-14,22.9-17.7,35.7c-4.6,16-6.9,32.5-9,49c-3,25.3-5.5,50.6-8.4,76
		c-27.8,11-53.9,28.4-71.3,53.1c-2.4,2.9-3.9,6.6-6.4,9.4c-4.5-3.9-8.3-8.6-12.9-12.5c-14.6-13.2-31.2-24.4-49.6-31.7
		c4-5,9.1-9,13.7-13.3c7.7-6.9,15.7-13.5,23.1-20.7c4.6-4.6,9.2-9.5,11.6-15.6c1.7-4.2,1.2-8.8,1.2-13.1c0-41.1,0-82.3,0-123.4
		c32.9-8.3,64.8-20.5,95.2-35.4C2782.3,756.2,2809.5,739.9,2835,721.3z"/>
	<path class="st5" d="M2564.4,815.8c12.1-0.2,24.1,0.5,36.2-0.9c-2.4,5.9-5.9,11.4-8.1,17.6c-3.4,8.3-5.4,17.2-7.4,25.9
		c-5.8-0.6-11.4,0.8-17.1,1.2c-10.8,1-21.6,2-32.5,1.8c-15.5,0-30.9,0-46.5,0c-0.2-15.2-0.1-30.3,0-45.5
		C2514.1,815.8,2539.2,815.8,2564.4,815.8z"/>
	<path class="st6" d="M2567.9,859.6c5.7-0.4,11.3-1.9,17.1-1.2c-4.2,19.7-5.5,39.8-7.9,59.7c-3.7,3.4-8.5,5.3-12.5,8.4
		c-26.2,17.6-49.6,40.3-65.6,67.7c-3.9,6.4-7,13.3-10.2,20c-4-4.2-7.4-9-11.6-13c-14.3-14.5-31.9-25.6-51.3-32.2
		c10.7-13,23.2-24.5,35.8-35.6c6-5.4,12.2-10.6,17.7-16.6c4.9-5.3,9.6-11.8,9.5-19.4c0-12.1-0.1-24,0-36.1c15.5,0,30.9,0,46.5,0
		C2546.3,861.5,2557.1,860.5,2567.9,859.6z"/>
	<path class="st10" d="M1973.5,940c1.9-1.4,3.7-3.9,6.3-2.9c24.5,6.3,45.4,22.2,61.8,41c-3.5,5.1-6.8,10.4-9.9,15.8
		c-32.5,0-65,0.2-97.4-0.1C1941.1,972.2,1956.8,954.6,1973.5,940z"/>
	<path class="st10" d="M2414.7,983.7c1-2,3.5-1.1,5.2-0.7c23.7,7.3,44.2,23.2,58.5,43.2c1.4,2,3.2,3.9,4.1,6.4
		c-1.4,6.6-3.1,13-3.8,19.7c-29.3,0.5-58.7,0.1-88,0.2C2391.9,1027.8,2401.3,1004.1,2414.7,983.7z"/>
	<path class="st10" d="M2596.9,1003.7c14.1,4.3,27,11.9,38.7,20.7c10.5,7.9,20,16.8,28.6,26.8c-2.7,7.4-5.4,14.8-6.8,22.5
		c-1.2,5.2-1.6,10.6-2.5,15.8c-31.9,0.2-63.9,0.1-95.9,0C2561.3,1057.6,2576,1027.5,2596.9,1003.7z"/>
	<path class="st11" d="M3021.3,357.7c-1.8-35.6-9.2-71.5-25.5-103.3c-13.3-26.2-32.6-49.1-55.9-67c-24.8-19.3-53.6-33.1-83.3-43
		c-2.7-1-5.9-1.3-7.7-3.7c-31.5-32.9-69.2-59.7-110.3-79.1c-56.6-26.8-118.6-40.7-180.8-46.3c-13-1.1-26.1-2-39.1-2.3
		c-21.9-0.3-43.9,2.1-65.1,7.7c-12.4,3-23.9,8.5-35.9,12.4c-41.1,13.7-84.6,20-127.9,20.7c-42.1,0.8-84.2-3.3-125.6-11.1
		c-18.4-3.6-36.9-7.5-54.9-13.2c-6.2-55.7-26.5-109.5-57.2-156.3c-35.5-54.2-84.3-99.3-140.5-131.4
		c-60.1-34.4-128.9-53.9-198.3-55.4c-42.5-1-85,4.7-125.9,16.4c-37.9,10.9-74.2,27-108.3,47.3c-35.8,21.2-68.9,46.9-99,75.6
		c-14.7,14.1-28.7,29.2-39.3,46.7c-6.7,11.1-11.4,23.3-14.5,35.9c-7-3.2-14.1-6.2-21.5-8.2c-21.7-6.1-45-5.9-66.9-0.9
		c-24.6,5.5-48,16.3-69.2,30c-5.4,3.6-10.8,7.3-15.8,11.4c-3.3,2.7-3.5,8.1-0.6,11.1c2,2.3,5.3,2.6,8.2,3.4
		c24.6,6,49.2,12.1,73.9,18.1c-0.8,1.1-1.9,2-2.9,2.8c-6.7,5.1-12.9,11.2-18.4,17.6c-4.3,5.1-8.2,10.4-11.7,16L837,40.7l338.1,36.4
		c-0.7,3.2-1.3,6.4-1.4,9.7c0.1,5.1,6.1,8.9,10.8,6.6c9.4-4.1,18.7-8.1,28-12.2l111.6,12c0,63.1,0,126.2,0,189.3
		c0.1,12.8-0.4,25.7,0.8,38.5c2,22.7,6.6,45.4,16,66.1c5.9,12.9,14.2,25.1,25.1,34.5c2.7,2.5,6.7,2.2,10.2,2.5
		c23.4,0.8,47.3-3.8,67.8-15.1c21.2-11.4,37.9-30.6,47.2-52.7c1.5-3.7-0.8-8.4-4.6-9.7c-6.2-2.2-12.1-5.9-16.1-11.1
		c-4-5.1-5.9-11.6-5.9-18.1c0-21.6,0.1-43.3,0-64.9c0.2-1.3-0.3-2.9,0.5-4.1c3.3-2,6.9-3.6,10.3-5.6c23.6-12.7,45.8-28.5,64-48.2
		c21.5-23,37.4-50.8,47.6-80.5c13-37.6,17.5-77.6,17.4-117.1c4.4-0.1,9-0.1,13.5,0c-0.7,34.1,0.5,68.4,3.7,102.4
		c3.6,39,9.8,77.8,19.4,115.7c9,35.4,21.3,70.2,38.5,102.6c6.7,12.8,14.5,24.8,22.6,36.7c-63.8,0.3-127.8,0-191.6,0.1
		c-3.5-0.1-6.8,2.6-7.5,6c-0.4,2.8-0.1,5.8-0.1,8.6c0.7,52.3,6.9,105.3,25.5,154.4c10.9,27.9,26.3,54.2,46.2,76.6
		c18.3,20.7,40.2,38,64.1,51.7c25.3,14.4,52.4,25.5,80.6,32.5c33.4,8,68.6,9.7,102.3,2.7c25.4-5.3,50.1-15.9,70.3-32.5
		c14.6-11.9,26.7-27,34.8-44c2-4.1-0.5-9.1-4.7-10.5c-27.7-10.1-55.3-20-83-30.1c-3.2-1.3-7.1-0.4-9.2,2.4
		c-9.2,11.6-18.5,23.1-27.8,34.8c-40.3-2.7-80.8-14.8-113.1-39.5c-5.5-4.4-11.3-8.8-16-14.2c-0.2-16.4-0.1-32.8,0-49.2
		c29.1,14.5,60.5,24.3,92.2,31.1c45.8,9.8,92.9,13.4,139.7,12.7c1.2,0.1,2.7-0.3,3.8,0.8c31.6,28.6,67.9,52.6,107.9,67.7
		c-2.1,52.7,0.5,105.3,4.6,157.8c2.1,28.6,4.2,57.5,2.1,86.2c-1.1,9.9-2,20.3-6.9,29.2c-2.9,5.3-8.7,7.8-13.7,10.9
		c-23.1,13.7-45.3,29.9-62.5,50.7c-11.6,14.1-20.7,30.6-24.1,48.7c-1.2,4.8,3.1,9.8,8,9.4c37.2,0,74.4,0,111.5,0
		c3.4,0.2,6.6-2,7.7-5.1c9.2-21.7,28.6-39.1,51.7-44.9c3.7-0.6,7.4-3.6,7.3-7.6c-1.2-38,2-76.3,11.5-113.1c7.2-27,17.9-53.5,35-75.6
		c13.7-18,32.1-32.5,53.3-40.7c4.2-1.3,6.5-6.4,4.7-10.5c-4.2-11-9.6-21.5-15.6-31.7c-17.8-29.8-42.8-56.5-74.8-71
		c11.8-13,24.9-24.9,39-35.4c21.4-15.8,45.8-28.6,72.4-32.3c9-1.2,18.2-0.8,27.2-0.9c40.1,0,80.2,0,120.2,0c1.3-0.2,2.4,0.7,3.5,1.3
		c-0.6,1.1-1.2,2.2-1.8,3.3c-34,56.7-55.5,120.2-67.5,185.1c-9.2,50.1-13.2,101-13.2,151.9c0.2,3.5-0.8,7.4,1,10.6
		c2.5,4.7,9.9,5.1,12.9,0.7c16.8-28,37.3-53.7,59.9-77.3c34.3-0.1,68.5-0.1,102.9,0c0.1,26.8,0,53.6,0.1,80.2
		c0.4,4.3-3,7.4-5.7,10.4c-10.4,10.5-21.9,19.6-32.5,29.8c-12.6,11.9-24.3,24.6-33.8,39.1c-16.7,24.7-26.2,54.2-26.8,84
		c-0.3,4.3,3.7,8.1,8,7.8c34.2,0,68.5,0,102.8,0c3.6,0.3,7.3-2.5,7.8-6.1c1.2-25.4,11.5-49.8,26-70.6c17.6-25.3,41.9-45.2,68.4-60.6
		c2.5-1.3,4.3-3.8,4.4-6.7c2.9-24.6,4.2-49.7,10.8-73.7c3.5-12.9,8.9-25.6,17.8-35.7c1.2-1.7,3.3-1.6,5.1-2c5.8-0.9,11.5-2,17.3-3.2
		c0,41.8,0,83.4,0,125.2c0.3,4.2-3.1,7.1-5.6,9.9c-9.7,9.7-20.4,18.2-30.4,27.5c-12.2,11.3-23.8,23.3-33.4,36.8
		c-18.8,25.7-29.8,57.1-30.3,89c-0.1,4.2,3.9,7.7,8,7.5c36.9,0,73.7,0,110.6,0c4.3,0.4,8.3-3.3,8.2-7.6
		c-0.2-22.1,7.5-43.8,20.2-61.7c16.3-23.1,41-39,67.1-48.7c2.8-0.9,5.7-3,6.1-6.2c4.8-34.7,6.9-69.6,12.7-104.1
		c3.1-16.8,7.4-34,17.3-48.4c8-11.6,19.6-20.4,32.3-26.5c15.8-7.6,32.8-12.1,49.9-15.8c3.3-0.7,7.2-1,9.2-4.1c2-2.5,1.4-5.7,1.1-8.5
		c-3.5-27.3-7.3-54.7-14.4-81.3c15.9-14.2,31-29.2,45-45.2c41.2-47.2,73.1-102.9,90.4-163.2C3018.6,442.7,3023.5,400.1,3021.3,357.7
		z M3000,313.3c0.6,2-1.1,3.7-2.2,5.1c-5.9,6.6-15.1,9.3-23.8,9.3c-16.3,0-32.7,0.1-49.1,0c-0.8-8.4-1.2-16.8-2.3-25.2
		c-0.6-5.9-1.8-11.6-2.2-17.5c23.9,0.1,47.9-0.1,71.7,0.2C2995.3,294.4,2998,303.8,3000,313.3z M2960.4,228.6
		c6.9,8.3,13,17.2,18.3,26.6c2.5,4.8,5.4,9.4,7,14.6c-22.8,0-45.5-0.1-68.3,0c-3.1-14.6-7.4-29-12.5-43c17.2-0.4,34.5,0,51.7,0
		C2958.1,226.7,2959.5,227.3,2960.4,228.6z M2916.6,189.8c9.6,6.4,19,13.2,27.1,21.4c-15.3,0.2-30.5,0.2-45.7-0.1
		c-6.6-14.2-14.6-27.7-23.9-40.3c-1.1-1.3-2-2.7-2.8-4.3C2887.2,172.6,2902.3,180.5,2916.6,189.8z M1915.2-238
		c28.6,17.6,55.1,38.7,78.4,62.9c1.7,1.8,1.5,4.3,2,6.7c7.8,64.3-3.8,131-34.1,188.2c-1.1,2-2.1,4.1-3.7,5.7
		c-0.1-24.9-0.1-49.8-0.2-74.7c-0.1-20.5,0.4-41-1.9-61.4c-3.7-37.3-14.2-74.5-34-106.5c-6.5-10.6-14.3-20.3-22.3-29.8
		C1904.9-244.5,1909.9-241.1,1915.2-238z M1810-283.9c8.1,2.3,16.1,4.4,23.8,7.9c27.5,12.2,51.1,32.6,68.4,57.1
		c18.6,26.4,30,57.5,35.4,89.3c3.4,18.7,4.5,37.7,4.6,56.6c0.4,72.8,0.4,145.7,0.3,218.5c-0.1,20.7,0.4,41.6,2.4,62.2
		c1.9,19.8,5.1,39.5,11.3,58.3c4.6,14.4,11.1,28.3,20.1,40.4c2.3,3.3,5.1,6.1,7.4,9.3c-29.8-6.8-58.7-19.2-82.5-38.7
		c-21-17.1-37.1-40.2-45.6-65.9c-6.2-18.3-8.8-37.7-8.6-56.9c0-67.9,0.1-135.8,0-203.6c-0.3-36.7-7.2-73.5-21.9-107.3
		c-11.7-27-28-51.7-47.8-73.3c-24.7-27.1-54.7-49.4-87.2-66.4c-0.8-0.4-1.6-1.1-2.3-1.6C1729-299.4,1770.4-294.7,1810-283.9z
		 M1638.3-292.9c5.7-0.7,11.3-2.2,17.3-2.1c11.9,4.1,23.1,9.8,34.2,15.8c25.9,14.3,49.8,32.2,70.4,53.4
		c22.3,23.1,40.6,50.1,52.7,79.8c13.4,32.5,19.2,67.8,18.8,102.9c0.1,67.8-0.1,135.7,0.1,203.5c0.4,21.2,4,42.5,11.6,62.2
		c3.2,8.9,7.7,17.1,12.1,25.4c-16.1-3.2-31.9-9-45.6-18.3c-20.4-13.4-35.5-33.7-45-55.9c-7.7-17.4-12.5-35.9-15.6-54.6
		c-3.8-23.2-5.2-46.8-5.2-70.3c-0.6-13.7-0.6-27.5-0.8-41.2c-0.9-23.4-0.7-46.9-1.5-70.3c-1.3-33.1-9.8-65.8-25.4-95
		c-12.5-23.7-29.5-45-49-63.2c-23-21.5-49.6-39.1-77.8-53c-3.2-1.7-6.8-2.7-9.6-5.1C1599-284.9,1618.5-289.6,1638.3-292.9z
		 M1491.6-239.4c27.8,12.9,55.2,27.9,77.9,48.8c17.9,16.3,31.4,37.5,38.2,60.8c-6.7,0-13.1-1.8-19.6-3.1
		c-30.7-7.3-59.8-20.8-85.4-39.2c-17.3-12.7-33.2-27.8-44.3-46.3C1469.3-225.7,1480.2-232.8,1491.6-239.4z M1445.7-209
		c16.5,25.4,39.7,45.7,65.5,61.1c27.7,16.4,58.3,28.4,90.1,33.3c3.4,0.7,7.2,0.1,10.4,1.3c1.9,6.2,2.5,12.8,3.5,19.2
		c0.8,5.8,1.6,11.5,1.7,17.4c-37.2-0.4-74.5-8.1-109-22.3c-39.8-16.5-76.4-42.9-100.5-79.1C1419.6-189,1432.3-199.5,1445.7-209z
		 M1376.4-148.5c6.1-6.7,12.6-13,19.2-19.2c10.4,14.7,22.4,28.2,36,40.1c-13,0.2-26.2-2.1-38.3-7c-6.3-2.7-12.5-5.9-17.7-10.4
		C1373.9-146,1375.6-147.5,1376.4-148.5z M1364.4-134.2c19.9,16.2,46.4,23.1,71.8,21.7c4.3-0.2,8.5-1.2,12.8-1.3
		c4.3,2.3,8,5.5,12.1,7.9c6.6,4.3,13.7,7.9,20.5,12c-18.3,7.3-38.3,9.1-57.8,8.3c-26.2-1.6-53.1-9.4-73.2-27
		C1354.2-120.4,1359.2-127.4,1364.4-134.2z M1227,1.2c3.4-5,8.4-8.6,12.9-12.5c4.9-3.7,9.9-7.5,15.4-10c3.7-0.4,7.4,1.2,11,2
		c19.3,4.6,38.7,9.6,58,14.1c0.1,1.5,0.1,3,0.2,4.5l-103.4,8.8C1223,5.8,1225,3.5,1227,1.2z M1324.5,15.3
		c-11.3,4.7-22.3,10.1-33.6,14.5c-26.2,11.8-52.6,23.1-78.8,34.7c-2,0.8-4,1.7-5.9,2.6l-12.5-1.4c1.6-6,3.7-11.8,5.7-17.6
		c3.4-8.9,7.4-17.6,12.2-25.8l113-9.6C1324.5,13.6,1324.5,14.5,1324.5,15.3z M1193.3,23.8c-6.6,12.8-11.6,26.3-15.2,40.2L975.9,42.2
		L1193.3,23.8z M1323.9,79.7l-86.8-9.3c29-12.7,58-25.5,87.1-38c0,6.7,0,13.4,0,20.1L1323.9,79.7z M1331.3-19.1
		c-40.5-9.9-81.1-19.9-121.7-29.9c-10.8-2.7-21.8-5.1-32.6-8.2c12.4-8.7,26.1-15.3,40.2-20.8c26.2-10,55.6-13.8,83.1-6.3
		c25.4,6.8,47.3,23,64.1,42.8c6.1,7.2,11.8,14.7,16.8,22.8c-14.1,0.1-28.2,0-42.3,0.1C1336.3-18.6,1333.8-18.5,1331.3-19.1z
		 M1578.8,88.1c-5.8,21.1-13.6,41.7-24.6,60.5c-14,24.1-33.2,45.2-55.8,61.6c-13.7,10.2-28.8,18.4-44,26.2c-3.2,1.4-5.4,4.6-5.1,8.1
		c0,24.8-0.1,49.7,0,74.7c0.1,12.5,6,24.6,15.7,32.5c2.7,2.2,5.6,4.1,8.5,5.9c-7.3,13.9-18.2,25.9-31.3,34.3
		c-19.3,12.4-42.9,17.5-65.8,16.4c-1.6,0.2-2.7-1.2-3.7-2.1c-11.3-11.3-18.7-26.1-23.6-41.2c-7.2-22.7-9.7-46.6-9.1-70.4
		c-0.1-99.1,0-198.4-0.1-297.5c21.8-0.4,43.7,0,65.6-0.3c19.6,0,39.2-0.1,58.8,0c19.6-0.1,39.1-0.1,58.7,0c22-0.1,44.1-0.2,66.1,0
		C1589.4,27.5,1586.3,58.3,1578.8,88.1z M1399.3-18.7c-15-25.2-34-48.5-58.6-64.9c1-4.7,2.1-9.3,3.5-13.9
		c10.3,7.4,21.4,13.9,33.3,18.1c20.1,7.4,41.7,10.1,63,9.1c20-1.1,40-5.2,58.1-14c1.2-0.5,2.5-1.2,3.7-0.4
		c36.5,15.1,75.9,23.1,115.4,23.4c1.1,14.2,0.7,28.5,0.8,42.6C1545.4-18.7,1472.4-18.6,1399.3-18.7z M1632-81.7
		c-2.6-31.2-9.3-63-26.4-89.6c-16.6-26.4-41.8-46-68.3-61.6c-9.3-5.7-19.1-10.4-28.6-15.6c15.1-8.5,31-15.3,47.1-21.7
		c2.1-1.2,4.3,0.3,6.4,1.1c29.6,12.3,57.8,28.5,82.6,49c21.3,17.7,40,38.7,54,62.7c17.4,29.5,26.8,63.5,27.8,97.6
		c0.9,41.9,1.7,83.6,2.6,125.5c0.9,28.6,3.9,57.4,11.4,85.1c-26-5.6-49-21.5-65.7-42c-20.2-24.9-31.8-55.9-37.2-87.2
		c-1.9-10.9-3.1-22-3.5-33C1633.9-34.9,1634.1-58.3,1632-81.7z M1839,586.1c19,6.5,37.6,13.7,56.4,20.3c4.6,1.9,9.6,3,13.9,5.5
		c-8.2,14.5-20.1,26.8-33.7,36.4c-6.8,4.7-14,9.1-21.7,12.2c-12.7-19-17.4-41.9-20.3-64.1C1832.6,592,1836.9,589.3,1839,586.1z
		 M2023.8,603.2v-0.6c-5-0.9-9.6-3.2-14.3-5.1c-28.1-12.3-54.1-29.3-77.5-48.9c-43.3-36.4-77.7-83.3-99.7-135.4
		c-17.6-41.2-27.5-85.4-31.4-129.9c0.1-4.6-4.3-8.7-8.9-7.9c-4.2,0.4-7.3,4.6-6.7,8.7c5.6,67.1,25.4,133.6,61.7,190.6
		c13,20.7,28.5,39.8,45.1,57.7c-41.3,0.1-82.7-3.6-123.2-12.1c-33.2-7.3-66.1-17.2-95.9-34c0.2-8.7,0.5-17.9-3.8-25.9
		c-6.9-14.2-22.5-21.5-37.4-24.2c-4.7-0.7-10.8-2.8-14.4,1.5c-3.9,4.2-1.2,11.9,4.4,12.6c8.1,1.1,16.2,2.7,23.3,6.8
		c6.6,3.7,12,10.4,12.3,18.2c0,26.9,0,53.8,0,80.8c-0.4,5.1,4.3,8,7.4,11.2c22.4,21.1,50.1,36.3,79.5,45.1
		c19.4,5.9,39.6,9.2,59.9,10.5c2.4,0.2,5.1-0.2,6.8-2c3.2-3.3,5.6-7.2,8.8-10.5c3.5,19.3,8.8,38.7,19.2,55.7
		c-14.5,5.4-29.9,7.9-45.2,9.2c-35.7,2.6-71.7-4-105-17c-25.9-10.1-50.7-23.3-72.5-40.6c-22.3-17.5-41.2-39.3-55.5-63.8
		c-14.5-24.6-24.3-51.8-30.9-79.5c-8-34.2-11.2-69.3-11.6-104.4c65.5,0,131-0.1,196.4,0c10.9,12.9,23.1,24.6,36.5,34.7
		c3.5,2.4,6.7,5.1,10.5,7.1c4.9,2.3,11.1-2.1,10.6-7.5c0-3.9-3.5-6.2-6.4-8.1c-24.2-16.8-44.1-39.1-59.9-63.8
		c-17.3-26.7-30.1-56.1-40-86.3c-14.9-45.5-23.4-92.7-28.3-140.3c-1-11.4-2.4-22.9-2.6-34.4c10.6,25.6,26.2,49.7,47.7,67.4
		c17.8,14.9,39.6,25.1,62.6,28.7c9.5,25.4,23.9,49.7,45,67.1c20.1,16.8,45.5,26.5,71.3,29.8c2.6,0.5,5.9,0.3,7.5,2.8
		c18.2,21.8,42.1,38.3,68.3,49.6c18.4,8,37.9,13.6,57.5,17.1c7.2,1.3,14.5,2.6,21.8,1.7c2.4-0.2,4.6-1.3,6.7-2.6
		c-0.1-1.3-0.2-2.7,0-4.1c-5.2-6.9-13.3-10.6-19.9-16c-11-8.9-19.5-20.6-25.6-33.2c-7.5-15.4-12-32.2-14.9-49
		c-6.7-38.4-5.3-77.4-5.4-116.2c0-19.1,0-38,0-57.1c-0.2-1.8,0.6-3.4,1.6-4.8c14.1-21,25.2-43.9,34-67.6
		c11.6-33.3,18.4-68.3,19.5-103.5c0.5-11.9,0.1-23.9-0.4-35.7c42.3,50.2,71.3,112.1,80.1,177.4c2.5,17.1,3.2,34.5,3.1,51.8
		c-0.1,176.4,0.1,352.9-0.1,529.3c-20.5,0.2-41.1,0-61.5,0.1C2030.6,605,2027.3,603.8,2023.8,603.2z M2031.7,993.8
		c-32.5,0-65,0.2-97.4-0.1c6.8-21.6,22.5-39.1,39.3-53.7c1.9-1.4,3.7-3.9,6.3-2.9c24.5,6.3,45.4,22.2,61.8,41
		C2038,983.1,2034.8,988.4,2031.7,993.8z M2163.5,666.7c8,10.1,15,21.1,20.9,32.5c2,3.9,4.2,7.7,5.5,12
		c-21.5,9.8-40.2,25.5-54.2,44.6c-16,21.5-26.8,46.4-34.2,72c-10.9,38.2-15.1,78.2-14.5,117.9c-13,4.3-25.2,11.5-35.3,20.9
		c-14.4-15.9-31.4-29.6-51.1-38.1c-2.4-1-4.8-2-7.1-3.1c8.7-6.8,18.8-11.7,28-18c9.4-6.8,13.4-18.4,15.5-29.3
		c3.1-15.6,3.1-31.6,3-47.4c-0.1-29.6-3.1-59-5.1-88.4c-2.2-35.1-3.5-70.4-2.9-105.6c0.2-5.6,0.3-11.1,0.6-16.6
		c21,0,42,0.1,63.1,0.2c2.7,0,5.5-0.3,8.2,0.6C2127.8,630,2147.9,646.8,2163.5,666.7z M2239.9,525.3c-25.6,0.6-50.4,9.8-72.3,22.6
		c-20.6,12.1-39,27.5-55.9,44.2c-0.4-36-0.1-72-0.2-108c0-138.6,0-277.3,0-415.9c0-7.4-0.4-14.6-0.6-21.9
		c34.3,9.4,69.4,15.9,104.9,19.6c2.9,44.6,7.3,89.1,15.1,133.1c11.5,66.2,29.8,131.5,56.8,193.2c19.4,44.4,43.5,86.9,72.4,125.9
		c1.8,2.3,3.5,4.6,5.1,7C2323.5,525.4,2281.7,525.2,2239.9,525.3z M2309.1,402.5c-27-57.5-45.9-118.7-58.5-181.1
		c-10.1-50.7-16.5-102.2-19.1-153.8c21.2,1.6,42.4,2.1,63.7,1.8c45-1.5,90.3-8.2,132.8-23.3c8.7-2.9,17-6.8,25.9-9.3
		c17.6-5,36-7.5,54.2-8.2c14.4-0.5,28.7,0.6,43.1,1.7c61.7,5.1,123.4,18.4,179.7,45c37.7,17.6,72.4,41.6,101.7,71.1
		c21.5,21.5,40.2,46,52.6,73.9c15.2,33.7,22,70.7,23.9,107.5c-46.8,0-93.5,0-140.4,0c-25.4-0.1-50.6,2.8-75.5,7.2
		c-47.2,8.4-93.2,23.3-136.1,44.7C2516,400,2478,426.7,2445.3,459c-8.3,8.2-16.3,16.8-24,25.6c-10.9,13-21.4,26.4-30.9,40.6
		c-2-0.1-3.8-0.1-5.7-0.1C2354.8,487.4,2329.5,446,2309.1,402.5z M2478.7,1052.3c-29.3,0.5-58.7,0.1-88,0.2
		c1.2-24.6,10.6-48.4,24-68.8c1-2,3.5-1.1,5.2-0.6c23.7,7.3,44.1,23.2,58.5,43.2c1.4,2.1,3.2,4,4.1,6.4
		C2481.1,1039.2,2479.5,1045.7,2478.7,1052.3z M2592.5,832.4c-3.4,8.3-5.3,17.1-7.4,25.9c-4.2,19.6-5.4,39.7-7.9,59.7
		c-3.7,3.4-8.5,5.4-12.5,8.4c-26.2,17.6-49.7,40.3-65.6,67.7c-3.9,6.4-7,13.3-10.2,20c-4-4.3-7.4-9-11.6-13
		c-14.4-14.5-32-25.6-51.3-32.2c10.7-13,23.1-24.5,35.8-35.6c6-5.4,12.2-10.6,17.7-16.6c4.9-5.4,9.6-11.9,9.5-19.4
		c0-12.1-0.2-24,0-36.1c-0.2-15.2-0.1-30.3,0-45.5c25.1-0.1,50.3,0,75.4,0c12.1-0.2,24.1,0.5,36.2-0.9
		C2598.2,820.9,2594.6,826.3,2592.5,832.4z M2593.8,800.2c-12.4,0.8-24.9,0.4-37.3,0.4c-56.6-0.1-113.1,0.2-169.6-0.1
		c9.9-10.1,21-19,32.1-27.7c24.6-19.1,51.6-35.3,80.2-47.8c32.5-14.4,67.4-23.5,102.8-27.1c20.7-2.2,41.6-1.7,62.4-1.8
		c26.9,0,53.8,0,80.7,0c18.4,0.2,36.8-0.4,55-2.8c21.6-2.7,43-7.9,63.5-15.3c-9.6,9.1-20.1,17.3-30.6,25.4
		c-27.5,20.9-57.2,38.8-88.3,53.9C2697.4,780.1,2646.4,796.8,2593.8,800.2z M2657.3,1073.8c-1.2,5.1-1.6,10.6-2.5,15.8
		c-31.9,0.1-63.9,0-95.9,0c2.2-31.9,16.9-62,37.9-85.8c14.1,4.3,27,11.9,38.7,20.7c10.5,7.8,20,16.8,28.6,26.8
		C2661.5,1058.6,2658.8,1066.1,2657.3,1073.8z M2817.9,787.6c-12.8,5.9-24.7,14.1-33.7,25.1c-8.6,10.4-14,22.9-17.7,35.7
		c-4.6,16-6.9,32.5-9,49c-3,25.3-5.5,50.7-8.4,76c-27.8,11-53.9,28.4-71.3,53.1c-2.4,2.9-3.9,6.6-6.4,9.4c-4.5-4-8.3-8.6-12.9-12.5
		c-14.6-13.2-31.2-24.4-49.6-31.7c4-5,9.1-9,13.7-13.3c7.6-6.9,15.6-13.6,23.1-20.7c4.6-4.6,9.1-9.5,11.6-15.6
		c1.7-4.2,1.2-8.8,1.2-13.1c0-41.1,0-82.3,0-123.4c32.9-8.2,64.7-20.5,95.2-35.4c28.4-13.8,55.6-30.1,81.1-48.8
		c8-5.8,15.5-12,23.4-18c5.6,22.3,8.8,45,11.6,67.7C2852.3,775.2,2834.5,779.8,2817.9,787.6z M2942.8,586.8
		c-10.1,15.6-21.3,30.6-33.3,44.8c-9.4,9.9-20.9,17.7-33.1,23.9c-31.6,16-67,22.8-102.1,24.9c-25.2,0.8-50.4,0.3-75.5,0.4
		c-22.5,0-45-0.2-67.6,0.1c-40.7,0.6-81.2,8.2-119.3,22.5c-57.3,21.3-108.4,57.2-151,100.8c-11.6,12.1-22.8,24.6-33.2,37.9
		c-5.2,6.4-9.8,13.3-15,19.6c-0.2-21.5,1.6-43,3.5-64.5c1.8-17.8,4.1-35.6,7.1-53.3c0.6-3.7,2.9-6.8,4.7-10.1
		c22.7-39.1,51.4-75.3,87.2-103.1c40.3-31.7,90.5-51.8,142-53.6c41.2-0.3,82.5-0.9,123.7-1c48.3-0.9,96.6-0.7,144.8-1.7
		c21.3-0.6,42.6-1.7,63.8-4.7c19.5-2.7,39.1-7,57.5-14.4c6.3-2.3,12.1-5.7,18.3-8.4C2958.9,560.8,2951,574,2942.8,586.8z
		 M2984.2,503.7c-3.6,11.9-13,21-23.1,27.8c-14.2,9.3-30.7,14.5-47.1,18.4c-43,9.8-87.2,9.1-131.1,9.8
		c-70.8,0.7-141.6,1.5-212.4,1.9c-20.4-0.2-40.9,1.9-60.7,6.6c-46.8,10.8-89.8,35.6-124.8,68.3c-16.8,15.5-31.7,32.8-45.2,51.3
		c-2,2.7-3.7,5.6-6.1,8.1c5-22,12.1-43.4,19.9-64.6c17.1-45.1,40.5-88,70.8-125.6c3.1-3.6,5.8-7.8,9.9-10.3
		c20.7-13.7,43.8-23.6,67.7-30.5c26.8-7.6,54.7-11.3,82.6-11.2c95.7-0.1,191.3-0.7,286.9-0.4c12,0,23.9,0.4,35.9,0.4
		c18.9-0.5,37.6-4.3,55.4-10.5c14.9-5.1,28.9-12.9,41.1-23C3000.8,448.6,2993.9,476.7,2984.2,503.7z M3006.3,387.7
		c-0.2,2.5,0.1,5.1-1.3,7.3c-8.1,12.9-21.2,22-34.8,28.5c-20.2,9.3-42.4,14.2-64.6,14.8c-49.7-0.9-99.4-0.7-149.1-0.4
		c-49.4,0.1-98.9,0.4-148.3,0.4c-11.1,0-22.3-0.1-33.3,0.1c-29.5,0.7-59.1,5.7-87.2,14.8c-7.1,2.1-13.8,5.1-20.8,7.4
		c6.6-6.7,13.9-12.5,21.2-18.4c37.3-30,79.9-53.3,124.9-69.7c46.3-16.8,95.1-27,144.4-29.1c68.2-0.2,136.3-0.1,204.5-0.1
		c9-0.1,18.4,0.7,27.1-2c5.3-1.4,10.1-4.2,14.7-6.9C3006.1,351.8,3006.8,369.8,3006.3,387.7z"/>
	<polygon class="st12" points="1324.7,12.7 1323.9,79.7 975.9,42.2 	"/>
	<g>
		<polygon class="st13" points="837,40.7 1338.1,-1.8 1337,94.5 		"/>
		<polygon class="st13" points="1324.7,12.7 975.9,42.2 1323.9,79.7 		"/>
	</g>
	<g>
		<path class="st11" d="M1236.6,18.7h3.5C1237.9,18.6,1236.6,18.7,1236.6,18.7z"/>
		<path class="st11" d="M1290.9,46.2c-5.8-29.9-37.5-27.5-37.5-27.5h-13.3c8.4,0.4,29.4,3.7,34,27.5c7.5,38.7,29.9,33.5,29.9,33.5
			h11.2C1308,78.6,1296,72.7,1290.9,46.2z"/>
		<path class="st11" d="M1315.2,79.7c3.3,0.5,5.6,0,5.6,0H1315.2z"/>
		<path class="st11" d="M1221.7,68.7h-3.9C1220.1,69.1,1221.7,68.7,1221.7,68.7z"/>
		<path class="st11" d="M1200.6,43.9c-4.1-22.1-26.5-20.3-26.5-20.3h-9.4c5.9,0.3,20.8,2.7,24,20.3c5.3,28.6,21.2,24.8,21.2,24.8
			h7.9C1212.7,67.9,1204.2,63.5,1200.6,43.9z"/>
		<path class="st11" d="M1162.2,23.6h2.4C1163.2,23.5,1162.2,23.6,1162.2,23.6z"/>
		<path class="st11" d="M1100,43.8c-2-14.1-11.2-14.1-11.2-14.1L1080,31c0,0,9.3-0.5,11.3,13.6c2.4,17,12.8,14.8,12.8,14.8l7.1-1.1
			C1108.9,58.5,1102,58,1100,43.8z"/>
		<path class="st11" d="M1111.8,58.2l-0.7,0.1C1111.5,58.3,1111.8,58.2,1111.8,58.2z"/>
	</g>
</g>
<g id="Layer_1" class="st14">
	<path class="st15" d="M1480.6-386.6c46.4-1.7,93.1,3.7,137.9,16c9,2.6,18.2,5,26.8,8.9c31,13.8,57.5,36.7,77.1,64.4
		c21,29.8,33.8,64.8,39.9,100.7c3.8,21,5,42.4,5.2,63.8c0.5,82.1,0.4,164.3,0.3,246.4c-0.1,23.4,0.4,46.8,2.7,70.2
		c2.1,22.3,5.8,44.5,12.7,65.8c5.3,16.2,12.5,31.9,22.7,45.6c2.6,3.6,5.7,6.9,8.4,10.5c-33.6-7.7-66.2-21.7-93-43.6
		c-23.7-19.3-41.8-45.3-51.4-74.3c-6.9-20.6-9.9-42.5-9.7-64.2c0-76.5,0.1-153,0-229.6c-0.3-41.4-8.2-83-24.7-121
		c-13.1-30.3-31.6-58.3-53.9-82.7c-27.9-30.6-61.7-55.7-98.3-74.9C1482.2-385.4,1481.4-386,1480.6-386.6z"/>
	<path class="st16" d="M1424.7-380.9c6.4-0.8,12.9-2.5,19.4-2.4c13.4,4.6,26.2,11,38.6,17.8c29.2,16.1,56.1,36.3,79.4,60.2
		c25.2,25.9,45.8,56.4,59.4,90c15.1,36.7,21.8,76.5,21.2,116.1c0,76.5-0.1,153,0.1,229.5c0.4,23.9,4.5,47.8,13.1,70.2
		c3.6,10,8.8,19.3,13.7,28.7c-18.2-3.5-36-10.2-51.4-20.6c-22.9-15.1-40-38-50.8-63c-8.6-19.6-14.1-40.5-17.6-61.6
		c-4.3-26.2-5.9-52.7-5.9-79.3c-0.7-15.5-0.7-31-0.9-46.5c-1-26.4-0.9-52.9-1.7-79.3c-1.5-37.2-11.1-74.2-28.7-107.1
		c-14.1-26.7-33.3-50.7-55.3-71.3c-25.9-24.3-55.9-44.1-87.7-59.8c-3.6-1.9-7.6-3-10.8-5.7C1380.3-371.8,1402.4-377.2,1424.7-380.9z
		"/>
	<path class="st15" d="M1331.6-355.4c2.4-1.4,4.9,0.3,7.2,1.1c33.4,13.9,65.2,32.2,93.1,55.3c24,19.9,45.2,43.6,60.9,70.7
		c19.5,33.3,30.2,71.6,31.3,110.1c1,47.2,1.9,94.3,2.9,141.5c1,32.3,4.4,64.7,12.9,96c-29.3-6.3-55.3-24.4-74.1-47.4
		c-22.9-28.1-36-63-42-98.4c-2.1-12.3-3.4-24.7-4-37.2c0-26.4,0.2-52.8-2.2-79.1c-2.9-35.2-10.6-71-29.8-101.1
		c-18.7-29.7-47.1-51.8-77-69.5c-10.5-6.4-21.6-11.7-32.3-17.6C1295.5-340.5,1313.5-348.1,1331.6-355.4z"/>
	<path class="st16" d="M1719.1-329.1c6.3,2.7,12,6.6,17.9,10c32.3,19.8,62.1,43.6,88.4,70.9c1.9,2,1.7,5,2.2,7.5
		c8.8,72.4-4.2,147.7-38.5,212.3c-1.1,2.3-2.4,4.6-4.2,6.4c-0.1-28.1-0.1-56.2-0.2-84.3c-0.2-23.1,0.3-46.2-2.1-69.2
		c-4.2-42.1-16.1-83.9-38.4-120.1C1737-307.5,1728.1-318.4,1719.1-329.1z"/>
	<path class="st16" d="M1259.3-320.6c31.3,14.6,62.3,31.5,87.8,55.1c20.1,18.5,35.4,42.3,43.1,68.6c-7.5,0-14.8-2-22.1-3.5
		c-34.6-8.3-67.4-23.5-96.3-44.2c-19.5-14.3-37.5-31.4-50-52.2C1234-305.1,1246.4-313.2,1259.3-320.6z"/>
	<path class="st15" d="M1164.3-251.5c13.8-12.3,28.2-24.1,43.2-34.9c18.6,28.6,44.8,51.5,73.9,68.9c31.2,18.6,65.7,32,101.6,37.5
		c3.8,0.8,8.1,0.2,11.7,1.5c2.2,7,2.8,14.5,3.9,21.7c0.8,6.5,1.7,13,1.9,19.6c-42.1-0.5-84-9.2-122.9-25.2
		C1232.7-180.9,1191.4-210.7,1164.3-251.5z"/>
	<path class="st16" d="M1129.4-218.1c7-7.5,14.3-14.7,21.7-21.6c11.7,16.6,25.3,31.8,40.6,45.2c-14.7,0.2-29.5-2.4-43.2-7.9
		c-7.1-3-14.2-6.6-20-11.7C1126.5-215.3,1128.4-217,1129.4-218.1z"/>
	<path class="st17" d="M1846.9-224.1c47.8,56.6,80.4,126.4,90.6,200c2.8,19.3,3.7,38.9,3.5,58.4c-0.1,199,0.1,398-0.1,597
		c-23.1,0.3-46.3,0-69.4,0.1c-4,0.1-7.8-1.2-11.7-1.8v-0.7c0.2-88.4,0-176.8,0.1-265.1c-0.3-12.9,0.7-25.8-0.5-38.7
		c-0.1-1.5-0.2-3.1,0-4.6c1.2-9.6,0.3-19.3,0.6-28.9c0-79.8,0-159.6,0-239.5c0.2-18.2-2-36.4-5.2-54.3c-3.9-19.6-9.4-39.5-21.1-56.1
		c-2.2-3.4-5-6.4-8.2-8.8c13.2-37.5,20.8-76.9,22-116.7C1847.9-197.2,1847.4-210.7,1846.9-224.1z"/>
	<path class="st15" d="M1115.8-202c22.5,18.3,52.3,26.1,81,24.5c4.8-0.1,9.6-1.4,14.4-1.5c4.8,2.6,9,6.1,13.7,8.9
		c7.5,4.9,15.5,8.9,23.1,13.5c-20.6,8.2-43.2,10.3-65.2,9.4c-29.6-1.8-59.8-10.5-82.5-30.4C1104.3-186.4,1110-194.3,1115.8-202z"/>
	<path class="st18" d="M1093.1-160.6c11.6,8.4,24,15.7,37.6,20.5c22.6,8.2,47,11.4,71,10.3c22.5-1.2,45.1-5.9,65.5-15.8
		c1.3-0.6,2.8-1.3,4.2-0.5c41.2,17,85.7,26,130.2,26.4c1.3,16,0.8,32.1,0.9,48.1c-82.4,0-164.8,0.1-247.2,0
		c-16.9-28.4-38.4-54.7-66.1-73.2C1090.2-150.2,1091.5-155.4,1093.1-160.6z"/>
	<path class="st19" d="M949.7-138.6c29.6-11.3,62.7-15.6,93.6-7c28.6,7.7,53.4,25.9,72.3,48.3c6.9,8.1,13.3,16.6,18.9,25.7
		c-15.9,0.1-31.8,0-47.7,0.1c-2.8,0-5.6,0.1-8.4-0.5c-45.8-11.3-91.6-22.5-137.3-33.7c-12.3-3.1-24.7-5.7-36.8-9.3
		C918.3-124.8,933.8-132.4,949.7-138.6z"/>
	<path class="st20" d="M975.5-63.3c5.5-4.2,11.2-8.5,17.6-11.4c4.3-0.4,8.3,1.5,12.4,2.3c21.8,5.3,43.5,10.8,65.4,15.9
		c0.4,7.7,0.3,15.4,0.1,23.1c-12.7,5.3-25.1,11.4-37.9,16.3c-4.4-5.1-9.5-9.7-15.4-13.1c-8.8-5.5-19.2-7.5-29-10.6
		c-9.2-2.9-18.6-5.3-27.6-8.5C964.7-54.9,970.4-58.9,975.5-63.3z"/>
	<path class="st19" d="M1825.3-67.1c3.2,2.4,6,5.4,8.2,8.8c11.7,16.6,17.2,36.5,21.1,56.1c3.3,17.9,5.5,36.1,5.2,54.3
		c0,79.8,0,159.6,0,239.5c-0.2,9.6,0.6,19.3-0.6,28.9c-5.9-7.8-15-11.9-22.4-18c-12.4-10-21.9-23.1-28.9-37.4
		c-8.5-17.4-13.4-36.3-16.8-55.3c-7.5-43.3-5.9-87.3-6.1-131c0-21.5,0-42.9,0-64.4c-0.2-2,0.7-3.8,1.8-5.4
		C1802.9-14.6,1815.5-40.4,1825.3-67.1z"/>
	<path class="st19" d="M1088.2-53.9c24.6-0.6,49.2-0.1,73.9-0.2c22.1,0,44.2,0,66.3,0c-0.4,19.7,2.2,39.3,7.3,58.3
		c4.6,16.3,10.6,32.3,19.6,46.8c13.6,22.9,33.2,42.1,56.1,55.7c6,3.7,13,5.8,18.5,10.3c-15.9,27.2-37.5,51-62.9,69.5
		c-15.5,11.5-32.5,20.8-49.6,29.6c-3.5,1.5-6,5.1-5.7,9.1c0,28.1,0,56.2,0,84.2c0.1,14.1,6.8,27.8,17.7,36.7c3,2.5,6.3,4.6,9.6,6.7
		c-8.2,15.6-20.4,29.1-35.3,38.7c-21.9,14-48.4,19.8-74.2,18.5c-1.8,0.1-3-1.3-4.2-2.4c-12.8-12.8-21-29.5-26.6-46.5
		c-8.1-25.6-11-52.6-10.3-79.4C1088.2,169.8,1088.4,58,1088.2-53.9 M1183.3,60.5c-3.2,1.5-5.1,4.9-5,8.4c0,13.9,0,27.7,0,41.6
		c0.4,8.4-4.8,18-13.6,19.5c-5.6,1.3-7.8,8.7-4.5,13.2c2.6,3.9,7.8,4.4,11.9,3c14.5-4.5,23.8-19.9,23.8-34.6
		c-0.1-14.5,0.1-29.1-0.1-43.6C1195.8,61.8,1188.5,57.7,1183.3,60.5z"/>
	<path class="st21" d="M1228.3-54.1c22.1-0.1,44.1-0.1,66.2,0c0.8,18.2,5.9,36.2,14.3,52.4c7.7,15.2,19.4,28.1,32.6,38.7
		c5.1,4.3,11.4,7,16.1,11.8c-6.4,23.7-15.3,46.9-27.8,68.2c-5.5-4.5-12.5-6.6-18.5-10.3c-22.9-13.6-42.5-32.7-56.1-55.7
		c-9-14.4-15-30.5-19.6-46.8C1230.5-14.7,1228-34.4,1228.3-54.1z"/>
	<path class="st22" d="M1294.5-54.1c24.8-0.1,49.7-0.2,74.5,0c0.4,34.6-3.1,69.3-11.6,102.9c-4.7-4.8-11-7.5-16.1-11.8
		c-13.2-10.6-24.9-23.5-32.6-38.7C1300.5-17.9,1295.3-35.8,1294.5-54.1z"/>
	<path class="st23" d="M929.6,3.6c7.3-19.2,17.3-37.7,31.3-52.8c9.1,3.3,18.4,5.7,27.6,8.5c9.8,3.1,20.2,5,29,10.6
		c5.9,3.4,11,7.9,15.4,13.1C1003.4-3.7,973.6,9,944,22.1c-7.6,3.1-14.9,6.9-22.6,9.5C923,22,926.4,12.8,929.6,3.6z"/>
	<path class="st19" d="M2344.6-9.2c19.9-5.7,40.6-8.6,61.3-9.1c16.2-0.5,32.4,0.8,48.6,1.9c69.7,5.8,139.3,20.7,202.7,50.7
		c42.5,19.9,81.6,47,114.7,80.2c24.2,24.2,45.3,51.9,59.3,83.3c17.1,38,24.9,79.7,26.9,121.2c-52.8-0.1-105.5,0-158.3,0
		c-28.6-0.1-57.1,3.2-85.2,8.1c-53.2,9.5-105.1,26.2-153.5,50.4c-46.3,23.1-89.2,53.2-126,89.6c-9.5,9.2-18.4,19-27.1,28.9
		c-7.9-9-14.1-19.4-20.6-29.4c-37.3-58.1-65.7-121.6-86.8-187.2c-24.7-78.1-39.7-159.2-44-241c-0.1-3.2-0.1-6.4,0-9.6
		c3-0.3,6.1-0.7,9.1-1c50.8-1.7,101.7-9.3,149.8-26.3C2325.3-2,2334.7-6.4,2344.6-9.2z"/>
	<path class="st18" d="M1957.8,1.7c38.7,10.6,78.3,17.9,118.3,22.1c3.2,50.3,8.2,100.5,17,150.1c13,74.7,33.6,148.4,64.1,217.9
		c22,50.1,49.1,98,81.7,142c1.9,2.6,3.9,5.2,5.8,7.9c-47.2,0.2-94.3,0-141.5,0.1c-28.9,0.6-56.8,10.9-81.5,25.5
		c-23.2,13.5-44,31-63,49.9c-0.4-40.6-0.1-81.2-0.2-121.8c0-156.3,0-312.7,0-469C1958.5,18.1,1957.9,9.9,1957.8,1.7z"/>
	<path class="st17" d="M2093.8,25.6c23.9,1.8,47.9,2.4,71.8,2c-3,0.3-6.1,0.7-9.1,1c-0.1,3.2-0.2,6.4,0,9.6
		c4.3,81.8,19.2,163,44,241c21.1,65.6,49.4,129.2,86.8,187.2c6.5,10,12.7,20.4,20.6,29.4c-12.3,14.7-24.2,29.9-34.8,45.8
		c-2.1,0-4.3,0-6.4-0.1c-33.7-42.6-62.2-89.2-85.3-138.3c-30.6-64.9-51.8-134-66-204.2C2104,141.9,2096.8,83.9,2093.8,25.6z"/>
	<path class="st19" d="M1421.4,30.1c12,28.9,29.5,56,53.8,76c20.1,16.8,44.7,28.3,70.6,32.4c10.6,28.7,26.9,56.1,50.8,75.7
		c22.7,18.9,51.2,29.9,80.4,33.6c3,0.5,6.7,0.3,8.5,3.2c20.5,24.6,47.5,43.2,76.8,55.8c20.8,9,42.7,15.2,64.9,19.3
		c8.1,1.5,16.4,2.9,24.6,1.9c2.7-0.2,5.2-1.6,7.5-2.9c1.2,12.9,0.2,25.8,0.5,38.7c0,88.4,0.1,176.8-0.1,265.1
		c-5.7-1-10.8-3.6-16.1-5.7c-31.7-13.9-60.9-33-87.4-55.2c-48.8-41.1-87.6-93.9-112.4-152.7c-19.8-46.4-31-96.3-35.4-146.5
		c0.1-5.2-4.8-9.8-10-8.9c-4.6,0.5-8.2,5.2-7.5,9.8c6.3,75.7,28.6,150.7,69.6,215c14.7,23.4,32,45,50.9,65.1
		c-46.6,0.1-93.3-4.1-138.9-13.7c-37.4-8.2-74.7-19.4-108.2-38.3c0.1-9.9,0.5-20.3-4.3-29.2c-7.8-16.1-25.4-24.4-42.2-27.3
		c-5.3-0.8-12.2-3.2-16.2,1.7c-4.4,4.7-1.4,13.4,5,14.2c9.1,1.2,18.3,3,26.3,7.7c7.4,4.2,13.5,11.7,13.9,20.5c0,30.4,0,60.7,0,91.1
		c-0.4,5.7,4.8,9,8.4,12.6c25.3,23.8,56.5,40.9,89.7,50.9c21.9,6.6,44.6,10.3,67.5,11.8c2.7,0.2,5.7-0.2,7.7-2.2
		c3.6-3.7,6.3-8.2,9.9-11.8c3.9,21.8,9.8,43.8,21.6,62.8c-16.3,6.2-33.7,9-51,10.4c-40.3,2.9-80.9-4.5-118.4-19.2
		c-29.2-11.3-57.2-26.3-81.8-45.8c-25.2-19.8-46.5-44.3-62.6-71.9c-16.3-27.8-27.5-58.4-34.8-89.7c-9-38.5-12.6-78.2-13.1-117.7
		c73.8,0,147.6-0.1,221.5,0c12.3,14.4,26,27.7,41.2,39.1c3.9,2.7,7.5,5.8,11.8,8c5.6,2.6,12.6-2.4,11.9-8.5c0-4.4-3.9-7-7.2-9.1
		c-27.3-18.8-49.7-44.1-67.6-71.9c-19.5-30.1-33.9-63.3-45.1-97.3c-16.8-51.3-26.4-104.6-31.9-158.2
		C1423.2,56,1421.6,43.1,1421.4,30.1z"/>
	<path class="st24" d="M1183.3,60.5c5.3-2.8,12.5,1.4,12.5,7.4c0.2,14.5,0,29.1,0.1,43.6c0.1,14.8-9.3,30.2-23.8,34.6
		c-4.1,1.4-9.4,0.9-11.9-3c-3.3-4.5-1.1-11.9,4.5-13.2c8.9-1.5,14.1-11,13.6-19.5c0-13.9,0-27.7,0-41.6
		C1178.2,65.4,1180.1,61.9,1183.3,60.5z"/>
	<path class="st15" d="M2815.4,137.2c17.9,6.9,35,15.8,51,26.3c10.8,7.2,21.4,14.9,30.6,24.1c-17.2,0.2-34.3,0.2-51.5-0.1
		c-7.4-16-16.5-31.2-26.9-45.4C2817.4,140.5,2816.3,138.8,2815.4,137.2z"/>
	<path class="st16" d="M2853.2,205.2c19.5-0.4,38.9,0,58.4-0.1c1.7-0.2,3.3,0.5,4.3,2c7.7,9.4,14.6,19.4,20.6,30
		c2.8,5.4,6.1,10.6,7.9,16.5c-25.7,0-51.3,0-77,0C2863.8,237.1,2859,221,2853.2,205.2z"/>
	<path class="st15" d="M2870.7,270.9c27,0.1,54-0.1,81,0.1c3.6,10.4,6.6,20.9,8.9,31.6c0.7,2.3-1.2,4.2-2.5,5.8
		c-6.7,7.4-17,10.5-26.8,10.5c-18.5,0-37,0-55.4,0c-1-9.5-1.4-19-2.6-28.4C2872.5,284,2871.3,277.5,2870.7,270.9z"/>
	<path class="st16" d="M2948,334c6-1.6,11.4-4.7,16.7-7.8c2.7,20,3.4,40.2,3,60.4c-0.1,2.7,0.2,5.8-1.5,8.2
		c-9.1,14.7-23.8,24.8-39.2,32.1c-22.8,10.5-47.9,16.1-72.9,16.7c-56.1-0.9-112.1-0.7-168.2-0.5c-55.7,0.1-111.5,0.5-167.2,0.4
		c-12.5,0-25.1-0.1-37.6,0.1c-33.4,0.8-66.6,6.4-98.3,16.7c-8,2.4-15.6,5.8-23.5,8.3c7.4-7.6,15.7-14.2,23.9-20.8
		c42.2-33.8,90.2-60.1,140.9-78.6c52.2-18.9,107.2-30.4,162.8-32.8c76.9-0.2,153.7,0,230.6-0.1C2927.6,336.2,2938.1,337.2,2948,334z
		"/>
	<path class="st15" d="M2918.6,449c16.8-5.8,32.6-14.5,46.3-25.9c-3.6,32.2-11.4,63.9-22.3,94.4c-4.1,13.4-14.7,23.7-26.1,31.3
		c-16,10.5-34.6,16.4-53.1,20.8c-48.4,11-98.4,10.3-147.8,11c-79.8,0.8-159.6,1.7-239.5,2.1c-23-0.2-46.1,2.1-68.5,7.4
		c-52.8,12.2-101.3,40.1-140.7,77c-18.9,17.5-35.8,37-51,57.8c-2.2,3.1-4.3,6.3-6.9,9.1c5.7-24.7,13.6-49,22.4-72.8
		c19.3-50.9,45.7-99.2,79.9-141.7c3.4-4.1,6.5-8.8,11.2-11.6c23.3-15.6,49.4-26.7,76.3-34.4c30.2-8.7,61.7-12.7,93.1-12.6
		c107.9-0.1,215.7-0.8,323.6-0.5c13.5,0,27,0.4,40.5,0.4C2877.3,460.3,2898.5,456.1,2918.6,449z"/>
	<path class="st16" d="M2900.9,575.9c7.1-2.6,13.6-6.4,20.4-9.5c-7.4,15.6-16.3,30.4-25.6,44.8c-11.5,17.6-24,34.5-37.6,50.5
		c-10.6,11.3-23.6,20-37.3,27c-35.6,18-75.5,25.6-115.1,28.1c-28.4,0.9-56.8,0.3-85.2,0.5c-25.4,0.1-50.8-0.2-76.2,0.1
		c-45.8,0.7-91.5,9.3-134.5,25.4c-64.6,24.1-122.4,64.5-170.3,113.7c-13.2,13.6-25.7,27.8-37.4,42.7c-5.9,7.1-10.9,15-16.9,22.1
		c-0.2-24.3,1.8-48.5,4-72.7c2-20.1,4.6-40.2,8-60.1c0.7-4.2,3.3-7.7,5.3-11.4c25.6-44.1,58-84.9,98.4-116.3
		c45.5-35.8,102.1-58.4,160.2-60.4c46.5-0.3,93-1,139.5-1.1c54.4-1,108.9-0.8,163.3-1.9c24.1-0.7,48.2-1.9,72-5.3
		C2858.2,589,2880.2,584.2,2900.9,575.9z"/>
	<path class="st25" d="M1651.1,610.4c21.3,7.3,42.4,15.4,63.6,23c5.2,2.1,10.8,3.4,15.7,6.2c-9.4,16.3-22.7,30.1-38,41
		c-7.7,5.3-15.8,10.4-24.5,13.8c-14.3-21.4-19.6-47.2-22.9-72.3C1644,617.1,1648.7,614,1651.1,610.4z"/>
	<path class="st18" d="M1869.6,648.8c23.7-0.1,47.5,0,71.2,0c3.1,0,6.3-0.3,9.2,0.7c26.8,10.2,49.5,29.2,67.1,51.6
		c9,11.4,16.9,23.8,23.6,36.7c2.2,4.4,4.7,8.8,6.2,13.5c-24.3,11.1-45.3,28.9-61.1,50.3c-18.1,24.2-30.2,52.3-38.6,81.2
		c-12.3,43.2-16.9,88.2-16.4,133c-14.8,4.9-28.4,12.9-39.8,23.6c-16.1-17.9-35.4-33.3-57.6-43c-2.7-1.1-5.4-2.3-8-3.5
		c9.9-7.7,21.3-13.2,31.6-20.3c10.6-7.6,15.1-20.7,17.5-33c3.5-17.6,3.4-35.6,3.4-53.5c-0.1-33.3-3.6-66.5-5.7-99.7
		c-2.5-39.6-3.9-79.4-3.3-119.1C1869,661.3,1869.1,655,1869.6,648.8z"/>
	<path class="st15" d="M2735,731.4c24.4-3.1,48.5-8.9,71.6-17.3c-10.8,10.4-22.7,19.6-34.5,28.7c-31.1,23.5-64.6,43.8-99.6,60.8
		c-53.3,25.7-110.8,44.4-170.1,48.3c-14,0.9-28.1,0.3-42.1,0.5c-63.8-0.1-127.5,0.2-191.3-0.1c11.1-11.4,23.7-21.3,36.2-31.2
		c27.9-21.5,58.3-39.8,90.5-53.9c36.7-16.2,76-26.5,115.9-30.6c23.4-2.6,46.9-2,70.4-2c30.3,0,60.7,0,91,0
		C2693.7,734.8,2714.4,734.2,2735,731.4z"/>
	<path class="st19" d="M2774.4,762.9c9-6.5,17.6-13.5,26.4-20.3c6.3,25.1,9.9,50.8,13.1,76.4c-20,4.6-40.1,9.8-58.8,18.6
		c-14.4,6.7-28,15.9-38,28.3c-9.6,11.7-15.8,25.8-20,40.3c-5.2,18-7.8,36.7-10.1,55.3c-3.4,28.5-6.2,57.1-9.5,85.7
		c-31.4,12.4-60.8,32-80.4,59.9c-2.7,3.3-4.4,7.4-7.2,10.6c-5.1-4.4-9.4-9.7-14.5-14.1c-16.5-14.9-35.2-27.5-55.9-35.8
		c4.5-5.6,10.3-10.1,15.5-15c8.7-7.8,17.7-15.2,26-23.4c5.2-5.2,10.4-10.7,13.1-17.6c1.9-4.7,1.4-9.9,1.4-14.8
		c0-46.4,0-92.8,0-139.2c37.1-9.4,73.1-23.1,107.4-39.9C2714.9,802.2,2745.6,783.9,2774.4,762.9z"/>
	<path class="st20" d="M2469.2,869.4c13.6-0.2,27.2,0.6,40.8-1c-2.7,6.7-6.7,12.9-9.1,19.8c-3.8,9.4-6.1,19.4-8.4,29.2
		c-6.5-0.7-12.9,0.9-19.3,1.3c-12.2,1.1-24.4,2.2-36.6,2c-17.5,0-34.9,0-52.4,0c-0.2-17.1-0.1-34.2,0-51.3
		C2412.5,869.4,2440.8,869.5,2469.2,869.4z"/>
	<path class="st23" d="M2473.2,918.8c6.4-0.5,12.8-2.1,19.3-1.3c-4.7,22.2-6.2,44.9-8.9,67.3c-4.2,3.8-9.6,6-14.1,9.5
		c-29.6,19.9-55.9,45.4-74,76.4c-4.4,7.2-7.9,15-11.5,22.6c-4.5-4.7-8.4-10.1-13.1-14.7c-16.1-16.3-36-28.9-57.8-36.3
		c12.1-14.7,26.2-27.6,40.4-40.2c6.8-6.1,13.8-12,20-18.7c5.5-6,10.8-13.3,10.7-21.9c0-13.6-0.1-27.1,0-40.7c17.5,0,34.9,0,52.4,0
		C2448.8,921,2461,919.9,2473.2,918.8z"/>
	<path class="st25" d="M1802.8,1009.5c2.1-1.6,4.2-4.4,7.1-3.3c27.6,7.1,51.2,25,69.7,46.2c-4,5.7-7.7,11.7-11.2,17.8
		c-36.6,0-73.3,0.2-109.9-0.1C1766.2,1045.8,1783.9,1026,1802.8,1009.5z"/>
	<path class="st25" d="M2300.4,1058.8c1.1-2.3,4-1.2,5.9-0.8c26.7,8.2,49.8,26.2,66,48.7c1.6,2.3,3.6,4.4,4.6,7.2
		c-1.6,7.4-3.5,14.7-4.3,22.2c-33.1,0.6-66.2,0.1-99.3,0.2C2274.7,1108.6,2285.2,1081.8,2300.4,1058.8z"/>
	<path class="st25" d="M2505.9,1081.4c15.9,4.9,30.4,13.4,43.7,23.3c11.8,8.9,22.6,19,32.2,30.2c-3,8.3-6.1,16.7-7.7,25.4
		c-1.4,5.9-1.8,11.9-2.8,17.8c-36,0.2-72.1,0.1-108.1,0C2465.7,1142.1,2482.3,1108.2,2505.9,1081.4z"/>
	<path class="st26" d="M2984.5,352.8c-2-40.2-10.4-80.6-28.8-116.5c-15-29.5-36.8-55.4-63-75.6c-28-21.8-60.4-37.3-94-48.5
		c-3-1.1-6.6-1.5-8.7-4.2c-35.5-37.1-78-67.3-124.4-89.2c-63.8-30.2-133.8-45.9-203.9-52.2c-14.7-1.2-29.4-2.3-44.1-2.6
		c-24.7-0.3-49.5,2.4-73.4,8.7c-14,3.4-26.9,9.6-40.5,14c-46.4,15.5-95.4,22.5-144.3,23.4c-47.5,0.9-95-3.7-141.6-12.5
		c-20.8-4.1-41.6-8.5-61.9-14.9c-7-62.8-29.9-123.5-64.5-176.3c-40-61.1-95.1-112-158.5-148.2c-67.8-38.8-145.4-60.8-223.6-62.5
		c-47.9-1.1-95.9,5.3-142,18.5c-42.7,12.3-83.7,30.4-122.1,53.4c-40.4,23.9-77.7,52.9-111.6,85.3c-16.6,15.9-32.4,32.9-44.3,52.7
		c-7.6,12.5-12.9,26.3-16.4,40.5c-7.9-3.6-15.9-7-24.3-9.2c-24.5-6.9-50.7-6.6-75.4-1c-27.8,6.2-54.1,18.4-78,33.8
		c-6.1,4.1-12.2,8.2-17.8,12.9c-3.7,3-4,9.1-0.7,12.5c2.3,2.6,6,2.9,9.2,3.8c27.8,6.8,55.5,13.6,83.3,20.4c-0.9,1.2-2.1,2.2-3.3,3.2
		c-7.6,5.8-14.5,12.6-20.7,19.9c-4.8,5.7-9.2,11.8-13.2,18L521-4.8l381.3,41.1c-0.7,3.6-1.4,7.2-1.6,11c0.1,5.8,6.9,10,12.2,7.4
		c10.5-4.6,21.1-9.2,31.6-13.8l125.9,13.6c0,71.2,0,142.4,0,213.5c0.1,14.4-0.4,29,0.9,43.4c2.2,25.6,7.4,51.2,18.1,74.6
		c6.7,14.6,16,28.3,28.3,38.9c3.1,2.8,7.6,2.5,11.5,2.8c26.4,0.9,53.3-4.3,76.5-17c23.9-12.9,42.7-34.5,53.2-59.4
		c1.7-4.2-0.9-9.5-5.2-10.9c-7-2.5-13.6-6.6-18.2-12.5c-4.5-5.8-6.7-13.1-6.6-20.4c0-24.4,0.1-48.8,0-73.2c0.2-1.5-0.3-3.3,0.6-4.6
		c3.7-2.3,7.8-4.1,11.6-6.3c26.6-14.3,51.6-32.1,72.2-54.4c24.2-25.9,42.2-57.3,53.7-90.8c14.7-42.4,19.7-87.5,19.6-132.1
		c5-0.1,10.1-0.1,15.2,0c-0.8,38.5,0.6,77.1,4.2,115.5c4.1,44,11,87.7,21.9,130.5c10.2,39.9,24,79.2,43.4,115.7
		c7.5,14.4,16.4,28,25.5,41.4c-72,0.3-144.1,0-216.1,0.1c-4-0.1-7.7,2.9-8.5,6.8c-0.4,3.2-0.1,6.5-0.1,9.7
		c0.8,59,7.8,118.8,28.8,174.1c12.3,31.5,29.7,61.1,52.1,86.4c20.6,23.3,45.3,42.9,72.3,58.3c28.5,16.2,59.1,28.8,90.9,36.6
		c37.7,9,77.4,10.9,115.4,3c28.7-6,56.5-17.9,79.3-36.6c16.5-13.4,30.1-30.4,39.3-49.6c2.2-4.6-0.6-10.3-5.3-11.8
		c-31.2-11.4-62.4-22.6-93.6-34c-3.6-1.5-8-0.5-10.4,2.7c-10.4,13.1-20.9,26.1-31.3,39.2c-45.4-3-91.1-16.7-127.6-44.6
		c-6.2-5-12.8-9.9-18.1-16c-0.2-18.5-0.1-37,0-55.5c32.8,16.4,68.2,27.4,104,35.1c51.7,11,104.8,15.1,157.6,14.3
		c1.4,0.1,3.1-0.3,4.3,0.9c35.6,32.3,76.6,59.3,121.7,76.4c-2.4,59.4,0.6,118.8,5.2,178c2.4,32.3,4.7,64.8,2.4,97.2
		c-1.2,11.2-2.2,22.9-7.8,32.9c-3.3,6-9.8,8.8-15.4,12.3c-26.1,15.5-51.1,33.7-70.5,57.2c-13.1,15.9-23.4,34.5-27.2,54.9
		c-1.4,5.4,3.5,11,9,10.6c42,0,83.9,0,125.8,0c3.8,0.2,7.4-2.2,8.7-5.8c10.4-24.5,32.3-44.1,58.3-50.6c4.2-0.7,8.3-4.1,8.2-8.6
		c-1.4-42.8,2.3-86,13-127.5c8.1-30.4,20.2-60.3,39.5-85.3c15.5-20.3,36.2-36.7,60.1-45.9c4.7-1.5,7.3-7.2,5.3-11.8
		c-4.7-12.4-10.8-24.3-17.6-35.7c-20.1-33.6-48.3-63.7-84.4-80.1c13.3-14.7,28.1-28.1,44-39.9c24.1-17.8,51.7-32.3,81.7-36.4
		c10.2-1.4,20.5-0.9,30.7-1c45.2,0,90.4,0,135.6,0c1.5-0.2,2.7,0.8,3.9,1.5c-0.7,1.2-1.3,2.5-2,3.7
		c-38.4,63.9-62.6,135.6-76.1,208.7c-10.4,56.5-14.9,113.9-14.9,171.3c0.2,4-0.9,8.3,1.1,11.9c2.8,5.3,11.2,5.8,14.5,0.8
		c19-31.6,42.1-60.6,67.6-87.2c38.7-0.1,77.3-0.1,116,0c0.1,30.2,0,60.4,0.1,90.5c0.4,4.8-3.4,8.4-6.4,11.7
		c-11.7,11.8-24.7,22.1-36.6,33.6c-14.2,13.4-27.4,27.8-38.1,44.1c-18.8,27.9-29.5,61.1-30.2,94.7c-0.3,4.8,4.2,9.1,9,8.8
		c38.6,0,77.3,0,115.9,0c4.1,0.3,8.2-2.8,8.8-6.9c1.4-28.7,13-56.2,29.3-79.6c19.9-28.5,47.2-51,77.1-68.4c2.8-1.5,4.8-4.3,5-7.5
		c3.3-27.8,4.7-56,12.2-83.1c4-14.5,10-28.9,20.1-40.3c1.3-1.9,3.7-1.8,5.7-2.2c6.5-1,13-2.2,19.5-3.6c0,47.1,0,94.1,0,141.2
		c0.3,4.7-3.5,8-6.3,11.2c-10.9,10.9-23,20.5-34.3,31c-13.8,12.7-26.8,26.3-37.7,41.5c-21.2,29-33.6,64.4-34.2,100.4
		c-0.1,4.7,4.4,8.7,9,8.5c41.6,0,83.1,0,124.7,0c4.8,0.4,9.4-3.7,9.3-8.6c-0.2-24.9,8.5-49.4,22.8-69.6c18.4-26,46.2-44,75.7-54.9
		c3.2-1,6.4-3.4,6.9-7c5.4-39.1,7.8-78.5,14.3-117.4c3.5-19,8.4-38.4,19.5-54.6c9-13.1,22.1-23,36.4-29.9
		c17.8-8.6,37-13.7,56.3-17.8c3.7-0.8,8.1-1.1,10.4-4.6c2.2-2.8,1.6-6.4,1.2-9.6c-3.9-30.8-8.2-61.7-16.2-91.7
		c17.9-16,35-32.9,50.7-51c46.5-53.2,82.4-116,101.9-184.1C2981.4,448.7,2987,400.6,2984.5,352.8z M2960.5,302.7
		c0.7,2.3-1.2,4.2-2.5,5.8c-6.7,7.4-17,10.5-26.8,10.5c-18.4,0-36.9,0.1-55.4,0c-0.9-9.5-1.4-19-2.6-28.4c-0.7-6.6-2-13.1-2.5-19.7
		c27,0.1,54-0.1,80.9,0.2C2955.2,281.4,2958.2,292,2960.5,302.7z M2915.8,207.2c7.8,9.4,14.7,19.4,20.6,30
		c2.8,5.4,6.1,10.6,7.9,16.5c-25.7,0-51.3-0.1-77,0c-3.5-16.5-8.3-32.7-14.1-48.5c19.4-0.5,38.9,0,58.3,0
		C2913.2,205.1,2914.8,205.7,2915.8,207.2z M2866.4,163.4c10.8,7.2,21.4,14.9,30.6,24.1c-17.2,0.2-34.4,0.2-51.5-0.1
		c-7.4-16-16.5-31.2-26.9-45.4c-1.2-1.5-2.2-3.1-3.2-4.8C2833.3,144.1,2850.3,153,2866.4,163.4z M1737-319
		c32.3,19.8,62.1,43.6,88.4,70.9c1.9,2,1.7,4.9,2.2,7.5c8.8,72.5-4.3,147.7-38.5,212.3c-1.2,2.3-2.4,4.6-4.2,6.4
		c-0.1-28.1-0.1-56.2-0.2-84.3c-0.1-23.1,0.4-46.2-2.1-69.2c-4.2-42.1-16-84-38.4-120.1c-7.3-12-16.1-22.9-25.1-33.6
		C1725.4-326.4,1731.1-322.5,1737-319z M1618.4-370.8c9.1,2.6,18.2,5,26.8,8.9c31,13.8,57.6,36.8,77.1,64.4
		c21,29.8,33.8,64.9,39.9,100.7c3.8,21.1,5.1,42.5,5.2,63.8c0.5,82.1,0.4,164.3,0.3,246.4c-0.1,23.4,0.4,46.9,2.7,70.2
		c2.1,22.3,5.8,44.5,12.7,65.8c5.2,16.2,12.5,31.9,22.7,45.6c2.6,3.7,5.7,6.9,8.4,10.5c-33.6-7.7-66.2-21.7-93-43.6
		c-23.7-19.3-41.8-45.3-51.4-74.3c-7-20.6-9.9-42.5-9.7-64.2c0-76.6,0.1-153.1,0-229.6c-0.3-41.4-8.1-82.9-24.7-121
		c-13.2-30.4-31.6-58.3-53.9-82.7c-27.9-30.6-61.7-55.7-98.3-74.9c-0.9-0.5-1.8-1.2-2.6-1.8C1527-388.3,1573.7-383,1618.4-370.8z
		 M1424.7-380.9c6.4-0.8,12.8-2.5,19.5-2.4c13.4,4.6,26.1,11,38.6,17.8c29.2,16.1,56.2,36.3,79.4,60.2c25.2,26,45.8,56.5,59.4,90
		c15.1,36.7,21.7,76.5,21.2,116.1c0.1,76.5-0.1,153,0.1,229.5c0.4,23.9,4.5,47.9,13.1,70.2c3.6,10,8.7,19.3,13.7,28.7
		c-18.2-3.6-36-10.2-51.4-20.6c-23-15.1-40-38-50.8-63c-8.7-19.6-14.1-40.5-17.6-61.6c-4.3-26.2-5.9-52.8-5.9-79.3
		c-0.7-15.5-0.7-31-0.9-46.5c-1-26.4-0.8-52.9-1.7-79.3c-1.5-37.3-11.1-74.2-28.7-107.1c-14.1-26.7-33.3-50.7-55.3-71.3
		c-25.9-24.3-55.9-44.1-87.7-59.8c-3.6-1.9-7.7-3.1-10.8-5.7C1380.4-371.9,1402.4-377.2,1424.7-380.9z M1259.3-320.6
		c31.3,14.6,62.2,31.5,87.8,55c20.2,18.4,35.4,42.3,43.1,68.6c-7.5,0-14.8-2-22.1-3.5c-34.6-8.2-67.4-23.5-96.3-44.2
		c-19.5-14.3-37.4-31.4-50-52.2C1234.1-305.1,1246.4-313.2,1259.3-320.6z M1207.5-286.3c18.6,28.6,44.8,51.5,73.9,68.9
		c31.2,18.5,65.7,32,101.6,37.5c3.8,0.8,8.1,0.1,11.7,1.5c2.1,7,2.8,14.4,3.9,21.7c0.9,6.5,1.8,13,1.9,19.6
		c-42-0.4-84-9.1-122.9-25.2c-44.9-18.6-86.2-48.4-113.3-89.2C1178.1-263.8,1192.4-275.6,1207.5-286.3z M1129.4-218.1
		c6.9-7.5,14.2-14.7,21.7-21.7c11.7,16.6,25.3,31.8,40.6,45.2c-14.7,0.2-29.5-2.4-43.2-7.9c-7.1-3.1-14.1-6.6-20-11.7
		C1126.6-215.3,1128.5-217,1129.4-218.1z M1115.8-202c22.4,18.3,52.3,26.1,81,24.5c4.8-0.2,9.6-1.4,14.4-1.5c4.8,2.6,9,6.2,13.7,8.9
		c7.4,4.9,15.5,8.9,23.1,13.5c-20.6,8.2-43.2,10.3-65.2,9.4c-29.6-1.8-59.9-10.6-82.5-30.4C1104.3-186.4,1110-194.3,1115.8-202z
		 M960.9-49.2c3.8-5.6,9.5-9.7,14.6-14.1c5.5-4.2,11.2-8.5,17.4-11.3c4.2-0.4,8.3,1.4,12.4,2.3c21.8,5.2,43.6,10.8,65.4,15.9
		c0.1,1.7,0.1,3.4,0.2,5.1l-116.6,9.9C956.4-44.1,958.6-46.7,960.9-49.2z M1070.8-33.3c-12.7,5.3-25.1,11.4-37.9,16.3
		C1003.4-3.7,973.6,9,944,22.1c-2.2,0.9-4.5,1.9-6.7,2.9l-14.1-1.5c1.8-6.7,4.1-13.3,6.4-19.9c3.8-10,8.4-19.8,13.8-29.1l127.5-10.8
		C1070.9-35.3,1070.8-34.3,1070.8-33.3z M922.9-23.7c-7.4,14.4-13,29.7-17.1,45.3L677.6-3L922.9-23.7z M1070.2,39.3l-97.9-10.5
		c32.7-14.4,65.4-28.7,98.2-42.9c0,7.6,0,15.1,0,22.7L1070.2,39.3z M1078.5-72.1c-45.7-11.2-91.5-22.4-137.3-33.7
		c-12.2-3.1-24.6-5.8-36.8-9.3c14-9.8,29.4-17.3,45.3-23.5c29.6-11.3,62.7-15.6,93.7-7.1c28.6,7.7,53.3,25.9,72.3,48.3
		c6.9,8.1,13.3,16.6,18.9,25.7c-15.9,0.1-31.8,0-47.7,0.1C1084.1-71.6,1081.3-71.5,1078.5-72.1z M1357.6,48.7
		c-6.5,23.8-15.3,47-27.8,68.2c-15.8,27.2-37.4,51-62.9,69.5c-15.5,11.5-32.5,20.8-49.6,29.6c-3.6,1.6-6.1,5.2-5.7,9.1
		c0,28-0.1,56.1,0,84.2c0.1,14.1,6.8,27.8,17.7,36.7c3,2.5,6.3,4.6,9.6,6.7c-8.2,15.7-20.5,29.2-35.3,38.7
		c-21.8,14-48.4,19.7-74.2,18.5c-1.8,0.2-3-1.3-4.2-2.4c-12.8-12.8-21.1-29.4-26.6-46.5c-8.1-25.6-10.9-52.6-10.3-79.4
		c-0.1-111.8,0-223.7-0.1-335.5c24.6-0.5,49.3,0,74-0.3c22.1,0,44.2-0.1,66.3,0c22.1-0.1,44.1-0.1,66.2,0c24.8-0.1,49.7-0.2,74.5,0
		C1369.6-19.6,1366.1,15.1,1357.6,48.7z M1155.2-71.7c-16.9-28.4-38.4-54.7-66.1-73.2c1.1-5.3,2.4-10.5,4-15.7
		c11.6,8.4,24.1,15.7,37.5,20.4c22.7,8.3,47,11.4,71,10.3c22.6-1.2,45.1-5.9,65.5-15.8c1.3-0.6,2.8-1.3,4.2-0.5
		c41.2,17,85.6,26,130.2,26.4c1.2,16,0.8,32.1,0.9,48.1C1320-71.7,1237.6-71.6,1155.2-71.7z M1417.6-142.7
		c-2.9-35.2-10.5-71-29.8-101.1c-18.7-29.8-47.1-51.9-77-69.5c-10.5-6.4-21.5-11.7-32.3-17.6c17-9.6,35-17.3,53.1-24.5
		c2.4-1.3,4.9,0.3,7.2,1.2c33.4,13.9,65.2,32.1,93.1,55.3c24,20,45.1,43.7,60.9,70.7c19.6,33.3,30.2,71.6,31.3,110.1
		c1,47.2,1.9,94.3,2.9,141.5c1,32.3,4.4,64.7,12.9,96c-29.3-6.3-55.3-24.3-74.1-47.4c-22.8-28.1-35.9-63-42-98.4
		c-2.1-12.3-3.5-24.8-4-37.2C1419.8-90,1420-116.4,1417.6-142.7z M1651.1,610.4c21.4,7.3,42.4,15.4,63.6,22.9
		c5.2,2.1,10.8,3.4,15.7,6.2c-9.3,16.3-22.7,30.2-38,41c-7.7,5.3-15.8,10.3-24.5,13.8c-14.3-21.4-19.6-47.2-22.9-72.3
		C1643.9,617.1,1648.7,614,1651.1,610.4z M1859.5,629.7V629c-5.6-1-10.8-3.6-16.1-5.7c-31.7-13.9-61-33-87.4-55.2
		c-48.8-41-87.6-93.9-112.4-152.7c-19.8-46.5-31-96.3-35.4-146.5c0.1-5.2-4.8-9.8-10-8.9c-4.7,0.5-8.2,5.2-7.5,9.8
		c6.3,75.7,28.6,150.7,69.6,215c14.7,23.3,32.1,44.9,50.9,65.1c-46.6,0.1-93.3-4.1-138.9-13.7c-37.4-8.2-74.6-19.4-108.2-38.3
		c0.2-9.8,0.6-20.2-4.3-29.2c-7.8-16-25.4-24.3-42.2-27.3c-5.3-0.8-12.2-3.2-16.2,1.7c-4.4,4.7-1.4,13.4,5,14.2
		c9.1,1.2,18.3,3,26.3,7.7c7.4,4.2,13.5,11.7,13.9,20.5c0,30.3,0,60.7,0,91.1c-0.4,5.7,4.9,9,8.4,12.6
		c25.3,23.8,56.5,40.9,89.7,50.9c21.9,6.7,44.7,10.4,67.5,11.8c2.7,0.2,5.7-0.2,7.7-2.2c3.6-3.7,6.3-8.1,9.9-11.8
		c3.9,21.8,9.9,43.7,21.6,62.8c-16.3,6.1-33.7,8.9-51,10.4c-40.3,2.9-80.9-4.5-118.4-19.2c-29.2-11.4-57.2-26.3-81.8-45.8
		c-25.1-19.7-46.5-44.3-62.6-71.9c-16.3-27.8-27.4-58.4-34.8-89.7c-9-38.6-12.6-78.2-13.1-117.7c73.9,0,147.7-0.1,221.5,0
		c12.3,14.5,26,27.7,41.2,39.1c3.9,2.7,7.6,5.8,11.8,8c5.5,2.6,12.5-2.4,11.9-8.5c0-4.4-4-7-7.2-9.1c-27.3-18.9-49.7-44.1-67.6-71.9
		c-19.5-30.1-33.9-63.3-45.1-97.3c-16.8-51.3-26.4-104.6-31.9-158.2c-1.1-12.9-2.7-25.8-2.9-38.8c12,28.9,29.5,56,53.8,76
		c20.1,16.8,44.7,28.3,70.6,32.4c10.7,28.7,26.9,56.1,50.8,75.7c22.7,18.9,51.3,29.9,80.4,33.6c2.9,0.6,6.6,0.3,8.5,3.2
		c20.5,24.6,47.5,43.2,77,55.9c20.7,9,42.7,15.3,64.9,19.3c8.1,1.5,16.3,2.9,24.6,1.9c2.7-0.2,5.2-1.5,7.5-2.9
		c-0.1-1.5-0.2-3.1,0-4.6c-5.9-7.8-15-11.9-22.4-18c-12.4-10-22-23.2-28.9-37.4c-8.5-17.4-13.5-36.3-16.8-55.3
		c-7.5-43.3-6-87.3-6.1-131c0-21.5,0-42.9,0-64.4c-0.2-2,0.7-3.8,1.8-5.4c15.9-23.7,28.4-49.5,38.3-76.2c13.1-37.5,20.7-77,22-116.7
		c0.6-13.4,0.1-26.9-0.5-40.3c47.7,56.6,80.4,126.4,90.3,200.1c2.8,19.3,3.6,38.9,3.5,58.4c-0.1,199,0.1,398-0.1,597
		c-23.1,0.2-46.3,0-69.4,0.1C1867.2,631.7,1863.4,630.4,1859.5,629.7z M1868.4,1070.2c-36.6,0-73.3,0.2-109.9-0.1
		c7.7-24.4,25.4-44.1,44.3-60.6c2.1-1.6,4.2-4.4,7.1-3.3c27.6,7.1,51.2,25,69.7,46.2C1875.5,1058.1,1871.9,1064.1,1868.4,1070.2z
		 M2017.1,701.3c9,11.4,16.9,23.8,23.6,36.7c2.3,4.4,4.7,8.7,6.2,13.5c-24.3,11.1-45.3,28.8-61.1,50.3
		c-18.1,24.2-30.2,52.3-38.6,81.2c-12.3,43.1-17,88.2-16.4,133c-14.7,4.9-28.4,13-39.8,23.6c-16.2-17.9-35.4-33.4-57.6-43
		c-2.7-1.1-5.4-2.3-8-3.5c9.8-7.7,21.2-13.2,31.6-20.3c10.6-7.7,15.1-20.7,17.5-33c3.5-17.6,3.5-35.6,3.4-53.5
		c-0.1-33.4-3.5-66.5-5.7-99.7c-2.5-39.6-3.9-79.4-3.3-119.1c0.2-6.3,0.3-12.5,0.7-18.7c23.7,0,47.4,0.1,71.2,0.2
		c3,0,6.2-0.3,9.2,0.7C1976.8,659.9,1999.5,678.9,2017.1,701.3z M2103.2,541.8c-28.9,0.7-56.8,11-81.5,25.5
		c-23.2,13.6-44,31-63,49.9c-0.4-40.6-0.1-81.2-0.2-121.8c0-156.3,0-312.7,0-469c0-8.3-0.5-16.5-0.7-24.7
		c38.7,10.6,78.3,17.9,118.3,22.1c3.3,50.3,8.2,100.5,17,150.1c13,74.7,33.6,148.3,64.1,217.9c21.9,50.1,49.1,98,81.7,142
		c2,2.6,3.9,5.2,5.8,7.9C2197.5,541.9,2150.4,541.7,2103.2,541.8z M2181.3,403.3c-30.5-64.9-51.8-133.9-66-204.2
		c-11.4-57.2-18.6-115.3-21.5-173.5c23.9,1.8,47.8,2.4,71.8,2c50.8-1.7,101.8-9.3,149.8-26.3c9.8-3.3,19.2-7.7,29.2-10.5
		c19.9-5.6,40.6-8.5,61.1-9.2c16.2-0.6,32.4,0.7,48.6,1.9c69.6,5.8,139.2,20.8,202.7,50.7c42.5,19.9,81.6,46.9,114.7,80.2
		c24.2,24.2,45.3,51.9,59.3,83.3c17.1,38,24.8,79.7,26.9,121.2c-52.8,0-105.5,0-158.3,0c-28.6-0.1-57.1,3.2-85.2,8.1
		c-53.2,9.5-105.1,26.3-153.5,50.4c-46.3,23.1-89.2,53.2-126,89.6c-9.4,9.3-18.4,19-27.1,28.9c-12.3,14.7-24.1,29.8-34.8,45.8
		c-2.2-0.1-4.3-0.1-6.4-0.1C2232.8,499.1,2204.3,452.4,2181.3,403.3z M2372.6,1136.2c-33.1,0.6-66.2,0.1-99.3,0.2
		c1.4-27.8,11.9-54.6,27.1-77.6c1.1-2.3,4-1.2,5.9-0.7c26.7,8.2,49.7,26.2,66,48.7c1.6,2.4,3.6,4.5,4.6,7.2
		C2375.3,1121.4,2373.4,1128.7,2372.6,1136.2z M2500.9,888.2c-3.8,9.4-6,19.3-8.4,29.2c-4.7,22.1-6.1,44.8-8.9,67.3
		c-4.2,3.8-9.6,6.1-14.1,9.5c-29.6,19.9-56,45.4-74,76.4c-4.4,7.2-7.9,15-11.5,22.6c-4.5-4.8-8.4-10.1-13.1-14.7
		c-16.2-16.3-36.1-28.9-57.8-36.3c12.1-14.7,26.1-27.6,40.4-40.2c6.8-6.1,13.8-12,20-18.7c5.5-6.1,10.8-13.4,10.7-21.9
		c0-13.6-0.2-27.1,0-40.7c-0.2-17.1-0.1-34.2,0-51.3c28.3-0.1,56.7,0,85,0c13.6-0.2,27.2,0.6,40.8-1
		C2507.3,875.2,2503.3,881.3,2500.9,888.2z M2502.4,851.9c-14,0.9-28.1,0.4-42.1,0.5c-63.8-0.1-127.5,0.2-191.3-0.1
		c11.2-11.4,23.7-21.4,36.2-31.2c27.8-21.5,58.2-39.8,90.5-53.9c36.7-16.2,76-26.5,115.9-30.6c23.4-2.5,46.9-1.9,70.4-2
		c30.3,0,60.7,0,91,0c20.7,0.2,41.5-0.5,62-3.2c24.4-3.1,48.5-8.9,71.6-17.3c-10.8,10.3-22.7,19.5-34.5,28.7
		c-31,23.6-64.5,43.8-99.6,60.8C2619.2,829.2,2561.7,848,2502.4,851.9z M2574,1160.4c-1.4,5.8-1.8,11.9-2.8,17.8
		c-36,0.1-72.1,0-108.1,0c2.5-36,19.1-69.9,42.8-96.8c15.9,4.8,30.4,13.4,43.6,23.4c11.8,8.8,22.6,19,32.2,30.2
		C2578.7,1143.3,2575.7,1151.7,2574,1160.4z M2755.1,837.6c-14.4,6.7-27.9,15.9-38,28.3c-9.7,11.7-15.8,25.8-20,40.3
		c-5.2,18.1-7.8,36.7-10.1,55.3c-3.4,28.5-6.2,57.2-9.5,85.7c-31.4,12.4-60.8,32-80.4,59.9c-2.7,3.3-4.4,7.4-7.2,10.6
		c-5.1-4.5-9.4-9.7-14.5-14.1c-16.5-14.9-35.2-27.5-55.9-35.8c4.5-5.6,10.3-10.1,15.5-15c8.6-7.8,17.6-15.3,26-23.4
		c5.2-5.2,10.3-10.7,13.1-17.6c1.9-4.7,1.3-9.9,1.4-14.8c0-46.4,0-92.8,0-139.2c37.1-9.3,73-23.1,107.4-39.9
		c32-15.6,62.7-34,91.5-55c9-6.5,17.5-13.5,26.4-20.3c6.3,25.1,9.9,50.8,13.1,76.4C2793.9,823.7,2773.8,828.8,2755.1,837.6z
		 M2895.9,611.2c-11.4,17.6-24,34.5-37.6,50.5c-10.6,11.2-23.6,20-37.3,27c-35.6,18.1-75.6,25.7-115.1,28.1
		c-28.4,0.9-56.8,0.3-85.2,0.5c-25.4,0-50.8-0.2-76.2,0.1c-45.9,0.7-91.6,9.3-134.5,25.4c-64.6,24-122.3,64.5-170.3,113.7
		c-13.1,13.6-25.7,27.8-37.4,42.7c-5.9,7.2-11,15-16.9,22.1c-0.2-24.3,1.8-48.5,4-72.7c2-20.1,4.6-40.2,8-60.1
		c0.7-4.2,3.3-7.7,5.3-11.4c25.6-44.1,58-84.9,98.4-116.3c45.5-35.8,102.1-58.4,160.2-60.4c46.5-0.3,93-1,139.5-1.1
		c54.5-1,108.9-0.8,163.3-1.9c24-0.7,48.1-1.9,72-5.3c22-3.1,44.1-7.9,64.8-16.2c7.1-2.6,13.6-6.4,20.6-9.5
		C2914.1,581.9,2905.2,596.7,2895.9,611.2z M2942.7,517.5c-4.1,13.4-14.7,23.7-26.1,31.3c-16,10.5-34.6,16.4-53.1,20.8
		c-48.5,11-98.4,10.3-147.8,11c-79.9,0.8-159.7,1.7-239.5,2.1c-23-0.2-46.1,2.1-68.5,7.4c-52.8,12.2-101.3,40.1-140.7,77
		c-18.9,17.5-35.8,37-51,57.8c-2.2,3.1-4.2,6.3-6.9,9.1c5.6-24.8,13.6-49,22.4-72.8c19.3-50.9,45.7-99.3,79.9-141.7
		c3.5-4.1,6.5-8.8,11.2-11.6c23.3-15.5,49.4-26.6,76.3-34.4c30.2-8.6,61.7-12.7,93.1-12.6c107.9-0.1,215.7-0.8,323.6-0.5
		c13.5,0,27,0.4,40.5,0.4c21.3-0.6,42.4-4.8,62.5-11.8c16.8-5.8,32.6-14.5,46.4-25.9C2961.4,455.3,2953.6,487,2942.7,517.5z
		 M2967.6,386.6c-0.2,2.8,0.1,5.8-1.5,8.2c-9.1,14.6-23.9,24.8-39.2,32.1c-22.8,10.5-47.8,16-72.9,16.7c-56.1-1-112.1-0.8-168.2-0.5
		c-55.7,0.1-111.5,0.4-167.2,0.4c-12.5,0-25.1-0.1-37.6,0.1c-33.3,0.8-66.6,6.4-98.3,16.7c-8,2.4-15.6,5.8-23.5,8.3
		c7.4-7.5,15.7-14.1,23.9-20.8c42.1-33.8,90.1-60.1,140.9-78.6c52.2-18.9,107.3-30.4,162.8-32.8c76.9-0.2,153.7-0.1,230.6-0.1
		c10.2-0.1,20.7,0.8,30.6-2.3c6-1.6,11.4-4.7,16.6-7.8C2967.3,346.2,2968.1,366.4,2967.6,386.6z"/>
	<polygon class="st27" points="1071,-36.3 1070.2,39.3 677.6,-3 	"/>
	<g class="st28">
		<polygon class="st29" points="521,-4.8 1086.2,-52.6 1085,56 		"/>
		<polygon class="st29" points="1071,-36.3 677.6,-3 1070.2,39.3 		"/>
	</g>
	<g class="st28">
		<path class="st30" d="M971.7-29.5h3.9C973.2-29.6,971.7-29.5,971.7-29.5z"/>
		<path class="st30" d="M1032.9,1.5c-6.5-33.7-42.3-31-42.3-31h-15c9.4,0.4,33.2,4.2,38.4,31c8.4,43.7,33.8,37.8,33.8,37.8h12.6
			C1052.3,38.1,1038.7,31.3,1032.9,1.5z"/>
		<path class="st30" d="M1060.4,39.3c3.8,0.6,6.3,0,6.3,0H1060.4z"/>
		<path class="st30" d="M955,26.9h-4.4C953.1,27.3,955,26.9,955,26.9z"/>
		<path class="st30" d="M931.1-1.1C926.5-26,901.2-24,901.2-24h-10.6c6.7,0.3,23.5,3.1,27.1,22.9c6,32.3,23.9,27.9,23.9,27.9h8.9
			C944.8,25.9,935.2,21,931.1-1.1z"/>
		<path class="st30" d="M887.8-24h2.8C888.9-24.1,887.8-24,887.8-24z"/>
		<path class="st30" d="M817.7-1.2C815.4-17.2,805-17.1,805-17.1l-10,1.5c0,0,10.4-0.6,12.7,15.3c2.7,19.1,14.5,16.7,14.5,16.7
			l8-1.3C827.7,15.4,819.9,14.8,817.7-1.2z"/>
		<path class="st30" d="M830.9,15l-0.8,0.1C830.6,15.1,830.9,15,830.9,15z"/>
	</g>
</g>
</svg>
